NotoAmalgamated-DisplaySemiBold.ufo
<glyph name="exclam.serif" format="2">
  <advance width="382"/>
  <unicode hex="0021"/>
  <outline>
    <contour>
      <point x="184" y="228" type="line"/>
      <point x="199" y="228" type="line"/>
      <point x="278" y="714" type="line"/>
      <point x="104" y="714" type="line"/>
    </contour>
    <contour>
      <point x="192" y="-8" type="curve" smooth="yes"/>
      <point x="230" y="-8"/>
      <point x="263" y="12"/>
      <point x="263" y="72" type="curve" smooth="yes"/>
      <point x="263" y="133"/>
      <point x="230" y="152"/>
      <point x="192" y="152" type="curve" smooth="yes"/>
      <point x="152" y="152"/>
      <point x="121" y="133"/>
      <point x="121" y="72" type="curve" smooth="yes"/>
      <point x="121" y="12"/>
      <point x="152" y="-8"/>
    </contour>
  </outline>
</glyph>
<glyph name="numbersign" format="2">
  <advance width="615"/>
  <unicode hex="0023"/>
  <outline>
    <contour>
      <point x="469" y="412" type="line"/>
      <point x="596" y="412" type="line"/>
      <point x="596" y="514" type="line"/>
      <point x="488" y="514" type="line"/>
      <point x="523" y="713" type="line"/>
      <point x="412" y="713" type="line"/>
      <point x="378" y="514" type="line"/>
      <point x="294" y="514" type="line"/>
      <point x="329" y="713" type="line"/>
      <point x="217" y="713" type="line"/>
      <point x="183" y="514" type="line"/>
      <point x="51" y="514" type="line"/>
      <point x="51" y="412" type="line"/>
      <point x="163" y="412" type="line"/>
      <point x="145" y="299" type="line"/>
      <point x="19" y="299" type="line"/>
      <point x="19" y="198" type="line"/>
      <point x="125" y="198" type="line"/>
      <point x="92" y="0" type="line"/>
      <point x="202" y="0" type="line"/>
      <point x="236" y="198" type="line"/>
      <point x="319" y="198" type="line"/>
      <point x="285" y="0" type="line"/>
      <point x="396" y="0" type="line"/>
      <point x="431" y="198" type="line"/>
      <point x="566" y="198" type="line"/>
      <point x="566" y="299" type="line"/>
      <point x="451" y="299" type="line"/>
    </contour>
    <contour>
      <point x="256" y="299" type="line"/>
      <point x="274" y="412" type="line"/>
      <point x="357" y="412" type="line"/>
      <point x="340" y="299" type="line"/>
    </contour>
  </outline>
</glyph>
<glyph name="dollar" format="2">
  <advance width="544"/>
  <unicode hex="0024"/>
  <outline>
    <contour>
      <point x="232" y="40" type="curve"/>
      <point x="232" y="-58" type="line"/>
      <point x="307" y="-58" type="line"/>
      <point x="307" y="42" type="line"/>
      <point x="446" y="55"/>
      <point x="510" y="126"/>
      <point x="510" y="223" type="curve" smooth="yes"/>
      <point x="510" y="340"/>
      <point x="423" y="381"/>
      <point x="307" y="421" type="curve"/>
      <point x="307" y="565" type="line"/>
      <point x="354" y="561"/>
      <point x="407" y="549"/>
      <point x="454" y="527" type="curve"/>
      <point x="496" y="641" type="line"/>
      <point x="441" y="669"/>
      <point x="380" y="683"/>
      <point x="307" y="686" type="curve"/>
      <point x="307" y="759" type="line"/>
      <point x="232" y="759" type="line"/>
      <point x="232" y="684" type="line"/>
      <point x="113" y="673"/>
      <point x="32" y="612"/>
      <point x="32" y="512" type="curve" smooth="yes"/>
      <point x="32" y="414"/>
      <point x="101" y="366"/>
      <point x="232" y="306" type="curve"/>
      <point x="232" y="155" type="line"/>
      <point x="171" y="159"/>
      <point x="95" y="184"/>
      <point x="40" y="211" type="curve"/>
      <point x="40" y="82" type="line"/>
      <point x="93" y="57"/>
      <point x="151" y="42"/>
    </contour>
    <contour>
      <point x="307" y="158" type="curve"/>
      <point x="307" y="280" type="line"/>
      <point x="348" y="260"/>
      <point x="365" y="243"/>
      <point x="365" y="216" type="curve" smooth="yes"/>
      <point x="365" y="185"/>
      <point x="346" y="166"/>
    </contour>
    <contour>
      <point x="232" y="563" type="curve"/>
      <point x="232" y="448" type="line"/>
      <point x="193" y="468"/>
      <point x="177" y="484"/>
      <point x="177" y="512" type="curve" smooth="yes"/>
      <point x="177" y="540"/>
      <point x="196" y="557"/>
    </contour>
  </outline>
</glyph>
<glyph name="dollar.serif" format="2">
  <advance width="559"/>
  <unicode hex="0024"/>
  <outline>
    <contour>
      <point x="279" y="43" type="curve"/>
      <point x="279" y="-79" type="line"/>
      <point x="289" y="-79" type="line"/>
      <point x="289" y="43" type="line"/>
      <point x="427" y="49"/>
      <point x="509" y="127"/>
      <point x="509" y="235" type="curve" smooth="yes"/>
      <point x="509" y="367"/>
      <point x="385" y="395"/>
      <point x="289" y="439" type="curve"/>
      <point x="289" y="674" type="line"/>
      <point x="351" y="671"/>
      <point x="373" y="624"/>
      <point x="373" y="511" type="curve"/>
      <point x="447" y="511"/>
      <point x="483" y="542"/>
      <point x="483" y="584" type="curve" smooth="yes"/>
      <point x="483" y="641"/>
      <point x="424" y="684"/>
      <point x="289" y="684" type="curve"/>
      <point x="289" y="760" type="line"/>
      <point x="279" y="760" type="line"/>
      <point x="279" y="684" type="line"/>
      <point x="150" y="681"/>
      <point x="71" y="609"/>
      <point x="71" y="509" type="curve" smooth="yes"/>
      <point x="71" y="379"/>
      <point x="185" y="344"/>
      <point x="279" y="302" type="curve"/>
      <point x="279" y="54" type="line"/>
      <point x="186" y="55"/>
      <point x="143" y="118"/>
      <point x="143" y="263" type="curve"/>
      <point x="95" y="263"/>
      <point x="49" y="241"/>
      <point x="49" y="183" type="curve" smooth="yes"/>
      <point x="49" y="97"/>
      <point x="129" y="43"/>
    </contour>
    <contour>
      <point x="289" y="54" type="curve"/>
      <point x="289" y="297" type="line"/>
      <point x="350" y="268"/>
      <point x="400" y="234"/>
      <point x="400" y="164" type="curve" smooth="yes"/>
      <point x="400" y="97"/>
      <point x="361" y="57"/>
    </contour>
    <contour>
      <point x="279" y="674" type="curve"/>
      <point x="279" y="443" type="line"/>
      <point x="223" y="470"/>
      <point x="178" y="504"/>
      <point x="178" y="571" type="curve" smooth="yes"/>
      <point x="178" y="642"/>
      <point x="223" y="673"/>
    </contour>
  </outline>
</glyph>
<glyph name="percent" format="2">
  <advance width="869"/>
  <unicode hex="0025"/>
  <outline>
    <contour>
      <point x="187" y="724" type="curve" smooth="yes"/>
      <point x="77" y="724"/>
      <point x="23" y="642"/>
      <point x="23" y="501" type="curve" smooth="yes"/>
      <point x="23" y="360"/>
      <point x="85" y="276"/>
      <point x="187" y="276" type="curve" smooth="yes"/>
      <point x="300" y="276"/>
      <point x="355" y="360"/>
      <point x="355" y="501" type="curve" smooth="yes"/>
      <point x="355" y="642"/>
      <point x="293" y="724"/>
    </contour>
    <contour>
      <point x="189" y="622" type="curve" smooth="yes"/>
      <point x="217" y="622"/>
      <point x="228" y="582"/>
      <point x="228" y="500" type="curve" smooth="yes"/>
      <point x="228" y="417"/>
      <point x="217" y="377"/>
      <point x="189" y="377" type="curve" smooth="yes"/>
      <point x="161" y="377"/>
      <point x="150" y="418"/>
      <point x="150" y="500" type="curve" smooth="yes"/>
      <point x="150" y="582"/>
      <point x="161" y="622"/>
    </contour>
    <contour>
      <point x="680" y="714" type="line"/>
      <point x="557" y="714" type="line"/>
      <point x="185" y="0" type="line"/>
      <point x="308" y="0" type="line"/>
    </contour>
    <contour>
      <point x="678" y="439" type="curve" smooth="yes"/>
      <point x="568" y="439"/>
      <point x="513" y="357"/>
      <point x="513" y="216" type="curve" smooth="yes"/>
      <point x="513" y="75"/>
      <point x="575" y="-9"/>
      <point x="678" y="-9" type="curve" smooth="yes"/>
      <point x="790" y="-9"/>
      <point x="845" y="75"/>
      <point x="845" y="216" type="curve" smooth="yes"/>
      <point x="845" y="357"/>
      <point x="783" y="439"/>
    </contour>
    <contour>
      <point x="679" y="337" type="curve" smooth="yes"/>
      <point x="707" y="337"/>
      <point x="719" y="297"/>
      <point x="719" y="215" type="curve" smooth="yes"/>
      <point x="719" y="132"/>
      <point x="707" y="92"/>
      <point x="679" y="92" type="curve" smooth="yes"/>
      <point x="651" y="92"/>
      <point x="640" y="133"/>
      <point x="640" y="215" type="curve" smooth="yes"/>
      <point x="640" y="297"/>
      <point x="651" y="337"/>
    </contour>
  </outline>
</glyph>
<glyph name="ampersand" format="2">
  <advance width="728"/>
  <unicode hex="0026"/>
  <outline>
    <contour>
      <point x="301" y="724" type="curve" smooth="yes"/>
      <point x="173" y="724"/>
      <point x="96" y="660"/>
      <point x="96" y="559" type="curve" smooth="yes"/>
      <point x="96" y="501"/>
      <point x="116" y="455"/>
      <point x="159" y="395" type="curve"/>
      <point x="80" y="348"/>
      <point x="35" y="294"/>
      <point x="35" y="193" type="curve" smooth="yes"/>
      <point x="35" y="72"/>
      <point x="123" y="-10"/>
      <point x="278" y="-10" type="curve" smooth="yes"/>
      <point x="373" y="-10"/>
      <point x="426" y="15"/>
      <point x="479" y="55" type="curve"/>
      <point x="528" y="0" type="line"/>
      <point x="730" y="0" type="line"/>
      <point x="588" y="143" type="line"/>
      <point x="639" y="218"/>
      <point x="679" y="308"/>
      <point x="698" y="383" type="curve"/>
      <point x="532" y="383" type="line"/>
      <point x="521" y="332"/>
      <point x="504" y="281"/>
      <point x="480" y="236" type="curve"/>
      <point x="369" y="371" type="line"/>
      <point x="443" y="418"/>
      <point x="497" y="477"/>
      <point x="497" y="569" type="curve" smooth="yes"/>
      <point x="497" y="668"/>
      <point x="418" y="724"/>
    </contour>
    <contour>
      <point x="249" y="306" type="curve"/>
      <point x="382" y="145" type="line"/>
      <point x="360" y="126"/>
      <point x="329" y="115"/>
      <point x="292" y="115" type="curve" smooth="yes"/>
      <point x="239" y="115"/>
      <point x="201" y="150"/>
      <point x="201" y="207" type="curve" smooth="yes"/>
      <point x="201" y="248"/>
      <point x="218" y="278"/>
    </contour>
    <contour>
      <point x="299" y="609" type="curve" smooth="yes"/>
      <point x="326" y="609"/>
      <point x="351" y="593"/>
      <point x="351" y="553" type="curve" smooth="yes"/>
      <point x="351" y="513"/>
      <point x="327" y="485"/>
      <point x="284" y="454" type="curve"/>
      <point x="260" y="486"/>
      <point x="242" y="516"/>
      <point x="242" y="549" type="curve" smooth="yes"/>
      <point x="242" y="595"/>
      <point x="270" y="609"/>
    </contour>
  </outline>
</glyph>
<glyph name="ampersand.serif" format="2">
  <advance width="801"/>
  <unicode hex="0026"/>
  <outline>
    <contour>
      <point x="299" y="-10" type="curve" smooth="yes"/>
      <point x="394" y="-10"/>
      <point x="467" y="16"/>
      <point x="522" y="72" type="curve"/>
      <point x="590" y="0" type="line"/>
      <point x="788" y="0" type="line"/>
      <point x="788" y="10" type="line"/>
      <point x="786" y="10" type="line" smooth="yes"/>
      <point x="765" y="10"/>
      <point x="747" y="26"/>
      <point x="697" y="78" type="curve" smooth="yes"/>
      <point x="596" y="183" type="line"/>
      <point x="612" y="219"/>
      <point x="626" y="264"/>
      <point x="638" y="310" type="curve" smooth="yes"/>
      <point x="659" y="393"/>
      <point x="677" y="416"/>
      <point x="744" y="416" type="curve" smooth="yes"/>
      <point x="760" y="416" type="line"/>
      <point x="760" y="426" type="line"/>
      <point x="541" y="426" type="line"/>
      <point x="541" y="382" type="line" smooth="yes"/>
      <point x="541" y="333"/>
      <point x="539" y="288"/>
      <point x="534" y="249" type="curve"/>
      <point x="376" y="414" type="line"/>
      <point x="515" y="457"/>
      <point x="534" y="537"/>
      <point x="534" y="583" type="curve" smooth="yes"/>
      <point x="534" y="669"/>
      <point x="469" y="724"/>
      <point x="341" y="724" type="curve" smooth="yes"/>
      <point x="208" y="724"/>
      <point x="142" y="665"/>
      <point x="142" y="567" type="curve" smooth="yes"/>
      <point x="142" y="505"/>
      <point x="170" y="449"/>
      <point x="235" y="379" type="curve"/>
      <point x="92" y="345"/>
      <point x="47" y="277"/>
      <point x="47" y="189" type="curve" smooth="yes"/>
      <point x="47" y="60"/>
      <point x="146" y="-10"/>
    </contour>
    <contour>
      <point x="338" y="4" type="curve" smooth="yes"/>
      <point x="252" y="4"/>
      <point x="184" y="41"/>
      <point x="184" y="200" type="curve" smooth="yes"/>
      <point x="184" y="275"/>
      <point x="199" y="338"/>
      <point x="244" y="369" type="curve"/>
      <point x="495" y="102" type="line"/>
      <point x="462" y="36"/>
      <point x="410" y="4"/>
    </contour>
    <contour>
      <point x="368" y="422" type="curve"/>
      <point x="293" y="501"/>
      <point x="268" y="543"/>
      <point x="268" y="610" type="curve" smooth="yes"/>
      <point x="268" y="678"/>
      <point x="292" y="714"/>
      <point x="343" y="714" type="curve" smooth="yes"/>
      <point x="397" y="714"/>
      <point x="423" y="675"/>
      <point x="423" y="586" type="curve" smooth="yes"/>
      <point x="423" y="495"/>
      <point x="396" y="448"/>
    </contour>
  </outline>
</glyph>
<glyph name="parenleft.serif" format="2">
  <advance width="400"/>
  <unicode hex="0028"/>
  <outline>
    <contour>
      <point x="368" y="-139" type="curve"/>
      <point x="368" y="-129" type="line"/>
      <point x="244" y="-47"/>
      <point x="218" y="105"/>
      <point x="218" y="318" type="curve" smooth="yes"/>
      <point x="218" y="529"/>
      <point x="244" y="680"/>
      <point x="368" y="762" type="curve"/>
      <point x="368" y="772" type="line"/>
      <point x="145" y="683"/>
      <point x="57" y="533"/>
      <point x="57" y="318" type="curve" smooth="yes"/>
      <point x="57" y="102"/>
      <point x="145" y="-50"/>
    </contour>
  </outline>
</glyph>
<glyph name="parenright" format="2">
  <advance width="328"/>
  <unicode hex="0029"/>
  <outline>
    <contour>
      <point x="292" y="274" type="curve" smooth="yes"/>
      <point x="292" y="437"/>
      <point x="254" y="593"/>
      <point x="159" y="714" type="curve"/>
      <point x="27" y="714" type="line"/>
      <point x="112" y="589"/>
      <point x="153" y="433"/>
      <point x="153" y="275" type="curve" smooth="yes"/>
      <point x="153" y="120"/>
      <point x="112" y="-35"/>
      <point x="28" y="-158" type="curve"/>
      <point x="159" y="-158" type="line"/>
      <point x="254" y="-41"/>
      <point x="292" y="113"/>
    </contour>
  </outline>
</glyph>
<glyph name="parenright.serif" format="2">
  <advance width="400"/>
  <unicode hex="0029"/>
  <outline>
    <contour>
      <point x="32" y="-129" type="curve"/>
      <point x="32" y="-139" type="line"/>
      <point x="255" y="-50"/>
      <point x="343" y="102"/>
      <point x="343" y="318" type="curve" smooth="yes"/>
      <point x="343" y="533"/>
      <point x="255" y="683"/>
      <point x="32" y="772" type="curve"/>
      <point x="32" y="762" type="line"/>
      <point x="156" y="680"/>
      <point x="182" y="529"/>
      <point x="182" y="318" type="curve" smooth="yes"/>
      <point x="182" y="105"/>
      <point x="156" y="-47"/>
    </contour>
  </outline>
</glyph>
<glyph name="asterisk" format="2">
  <advance width="508"/>
  <unicode hex="002A"/>
  <outline>
    <contour>
      <point x="319" y="760" type="line"/>
      <point x="190" y="760" type="line"/>
      <point x="208" y="580" type="line"/>
      <point x="44" y="631" type="line"/>
      <point x="25" y="509" type="line"/>
      <point x="174" y="496" type="line"/>
      <point x="76" y="351" type="line"/>
      <point x="193" y="293" type="line"/>
      <point x="252" y="445" type="line"/>
      <point x="321" y="292" type="line"/>
      <point x="433" y="351" type="line"/>
      <point x="334" y="496" type="line"/>
      <point x="484" y="508" type="line"/>
      <point x="468" y="631" type="line"/>
      <point x="301" y="580" type="line"/>
    </contour>
  </outline>
</glyph>
<glyph name="asterisk.serif" format="2">
  <advance width="502"/>
  <unicode hex="002A"/>
  <outline>
    <contour>
      <point x="196" y="367" type="line"/>
      <point x="307" y="367" type="line"/>
      <point x="258" y="546" type="line"/>
      <point x="422" y="425" type="line"/>
      <point x="467" y="524" type="line"/>
      <point x="270" y="564" type="line"/>
      <point x="467" y="603" type="line"/>
      <point x="422" y="703" type="line"/>
      <point x="258" y="583" type="line"/>
      <point x="308" y="760" type="line"/>
      <point x="196" y="760" type="line"/>
      <point x="243" y="583" type="line"/>
      <point x="80" y="705" type="line"/>
      <point x="35" y="604" type="line"/>
      <point x="233" y="564" type="line"/>
      <point x="35" y="523" type="line"/>
      <point x="80" y="424" type="line"/>
      <point x="243" y="546" type="line"/>
    </contour>
  </outline>
</glyph>
<glyph name="plus" format="2">
  <advance width="536"/>
  <unicode hex="002B"/>
  <outline>
    <contour>
      <point x="323" y="406" type="line"/>
      <point x="323" y="596" type="line"/>
      <point x="211" y="596" type="line"/>
      <point x="211" y="406" type="line"/>
      <point x="37" y="406" type="line"/>
      <point x="37" y="299" type="line"/>
      <point x="211" y="299" type="line"/>
      <point x="211" y="111" type="line"/>
      <point x="323" y="111" type="line"/>
      <point x="323" y="299" type="line"/>
      <point x="498" y="299" type="line"/>
      <point x="498" y="406" type="line"/>
    </contour>
  </outline>
</glyph>
<glyph name="plus.serif" format="2">
  <advance width="559"/>
  <unicode hex="002B"/>
  <outline>
    <contour>
      <point x="269" y="143" type="line"/>
      <point x="289" y="143" type="line"/>
      <point x="289" y="347" type="line"/>
      <point x="494" y="347" type="line"/>
      <point x="494" y="367" type="line"/>
      <point x="289" y="367" type="line"/>
      <point x="289" y="572" type="line"/>
      <point x="269" y="572" type="line"/>
      <point x="269" y="367" type="line"/>
      <point x="65" y="367" type="line"/>
      <point x="65" y="347" type="line"/>
      <point x="269" y="347" type="line"/>
    </contour>
  </outline>
</glyph>
<glyph name="comma" format="2">
  <advance width="270"/>
  <unicode hex="002C"/>
  <outline>
    <contour>
      <point x="223" y="105" type="curve"/>
      <point x="216" y="116" type="line"/>
      <point x="74" y="116" type="line"/>
      <point x="65" y="47"/>
      <point x="46" y="-50"/>
      <point x="28" y="-129" type="curve"/>
      <point x="142" y="-129" type="line"/>
      <point x="173" y="-56"/>
      <point x="206" y="34"/>
    </contour>
  </outline>
</glyph>
<glyph name="comma.serif" format="2">
  <advance width="294"/>
  <unicode hex="002C"/>
  <outline>
    <contour>
      <point x="45" y="-144" type="curve"/>
      <point x="45" y="-154" type="line"/>
      <point x="175" y="-119"/>
      <point x="224" y="-43"/>
      <point x="224" y="42" type="curve" smooth="yes"/>
      <point x="224" y="110"/>
      <point x="191" y="152"/>
      <point x="132" y="152" type="curve" smooth="yes"/>
      <point x="94" y="152"/>
      <point x="60" y="131"/>
      <point x="60" y="85" type="curve" smooth="yes"/>
      <point x="60" y="2"/>
      <point x="153" y="33"/>
      <point x="153" y="-42" type="curve" smooth="yes"/>
      <point x="153" y="-100"/>
      <point x="103" y="-123"/>
    </contour>
  </outline>
</glyph>
<glyph name="hyphen" format="2">
  <advance width="301"/>
  <unicode hex="002D"/>
  <outline>
    <contour>
      <point x="24" y="207" type="line"/>
      <point x="277" y="207" type="line"/>
      <point x="277" y="329" type="line"/>
      <point x="24" y="329" type="line"/>
    </contour>
  </outline>
</glyph>
<glyph name="period" format="2">
  <advance width="270"/>
  <unicode hex="002E"/>
  <outline>
    <contour>
      <point x="47" y="70" type="curve" smooth="yes"/>
      <point x="47" y="11"/>
      <point x="87" y="-13"/>
      <point x="136" y="-13" type="curve" smooth="yes"/>
      <point x="183" y="-13"/>
      <point x="223" y="11"/>
      <point x="223" y="70" type="curve" smooth="yes"/>
      <point x="223" y="131"/>
      <point x="183" y="153"/>
      <point x="136" y="153" type="curve" smooth="yes"/>
      <point x="87" y="153"/>
      <point x="47" y="131"/>
    </contour>
  </outline>
</glyph>
<glyph name="period.serif" format="2">
  <advance width="294"/>
  <unicode hex="002E"/>
  <outline>
    <contour>
      <point x="147" y="-8" type="curve" smooth="yes"/>
      <point x="185" y="-8"/>
      <point x="218" y="12"/>
      <point x="218" y="72" type="curve" smooth="yes"/>
      <point x="218" y="133"/>
      <point x="185" y="152"/>
      <point x="147" y="152" type="curve" smooth="yes"/>
      <point x="107" y="152"/>
      <point x="76" y="133"/>
      <point x="76" y="72" type="curve" smooth="yes"/>
      <point x="76" y="12"/>
      <point x="107" y="-8"/>
    </contour>
  </outline>
</glyph>
<glyph name="slash" format="2">
  <advance width="402"/>
  <unicode hex="002F"/>
  <outline>
    <contour>
      <point x="399" y="714" type="line"/>
      <point x="256" y="714" type="line"/>
      <point x="6" y="0" type="line"/>
      <point x="149" y="0" type="line"/>
    </contour>
  </outline>
</glyph>
<glyph name="zero" format="2">
  <advance width="544"/>
  <unicode hex="0030"/>
  <outline>
    <contour>
      <point x="510" y="357" type="curve" smooth="yes"/>
      <point x="510" y="589"/>
      <point x="435" y="725"/>
      <point x="271" y="725" type="curve" smooth="yes"/>
      <point x="96" y="725"/>
      <point x="33" y="588"/>
      <point x="33" y="357" type="curve" smooth="yes"/>
      <point x="33" y="127"/>
      <point x="106" y="-10"/>
      <point x="271" y="-10" type="curve" smooth="yes"/>
      <point x="447" y="-10"/>
      <point x="510" y="127"/>
    </contour>
    <contour>
      <point x="194" y="357" type="curve" smooth="yes"/>
      <point x="194" y="520"/>
      <point x="210" y="603"/>
      <point x="271" y="603" type="curve" smooth="yes"/>
      <point x="331" y="603"/>
      <point x="349" y="520"/>
      <point x="349" y="357" type="curve" smooth="yes"/>
      <point x="349" y="193"/>
      <point x="331" y="112"/>
      <point x="271" y="112" type="curve" smooth="yes"/>
      <point x="210" y="112"/>
      <point x="194" y="194"/>
    </contour>
  </outline>
</glyph>
<glyph name="one" format="2">
  <advance width="544"/>
  <unicode hex="0031"/>
  <outline>
    <contour>
      <point x="410" y="0" type="line"/>
      <point x="410" y="714" type="line"/>
      <point x="270" y="714" type="line"/>
      <point x="47" y="531" type="line"/>
      <point x="129" y="440" type="line"/>
      <point x="204" y="506" type="line" smooth="yes"/>
      <point x="221" y="521"/>
      <point x="239" y="547"/>
      <point x="250" y="555" type="curve"/>
      <point x="248" y="512"/>
      <point x="247" y="447"/>
      <point x="247" y="413" type="curve"/>
      <point x="247" y="0" type="line"/>
    </contour>
  </outline>
</glyph>
<glyph name="one.serif" format="2">
  <advance width="559"/>
  <unicode hex="0031"/>
  <outline>
    <contour>
      <point x="97" y="0" type="line"/>
      <point x="510" y="0" type="line"/>
      <point x="510" y="10" type="line"/>
      <point x="429" y="10" type="line" smooth="yes"/>
      <point x="387" y="10"/>
      <point x="378" y="33"/>
      <point x="378" y="75" type="curve" smooth="yes"/>
      <point x="378" y="718" type="line"/>
      <point x="296" y="718" type="line"/>
      <point x="260" y="682" type="line" smooth="yes"/>
      <point x="177" y="599"/>
      <point x="141" y="583"/>
      <point x="42" y="581" type="curve"/>
      <point x="42" y="536"/>
      <point x="68" y="515"/>
      <point x="102" y="515" type="curve" smooth="yes"/>
      <point x="140" y="515"/>
      <point x="168" y="550"/>
      <point x="229" y="637" type="curve"/>
      <point x="229" y="75" type="line" smooth="yes"/>
      <point x="229" y="25"/>
      <point x="213" y="10"/>
      <point x="179" y="10" type="curve" smooth="yes"/>
      <point x="97" y="10" type="line"/>
    </contour>
  </outline>
</glyph>
<glyph name="two" format="2">
  <advance width="544"/>
  <unicode hex="0032"/>
  <outline>
    <contour>
      <point x="511" y="0" type="line"/>
      <point x="511" y="127" type="line"/>
      <point x="237" y="127" type="line"/>
      <point x="238" y="134" type="line"/>
      <point x="310" y="215" type="line" smooth="yes"/>
      <point x="422" y="342"/>
      <point x="495" y="412"/>
      <point x="495" y="531" type="curve" smooth="yes"/>
      <point x="495" y="641"/>
      <point x="411" y="724"/>
      <point x="277" y="724" type="curve" smooth="yes"/>
      <point x="150" y="724"/>
      <point x="87" y="675"/>
      <point x="28" y="622" type="curve"/>
      <point x="116" y="525" type="line"/>
      <point x="170" y="572"/>
      <point x="214" y="598"/>
      <point x="261" y="598" type="curve" smooth="yes"/>
      <point x="303" y="598"/>
      <point x="334" y="570"/>
      <point x="334" y="513" type="curve" smooth="yes"/>
      <point x="334" y="443"/>
      <point x="300" y="397"/>
      <point x="199" y="286" type="curve" smooth="yes"/>
      <point x="33" y="105" type="line"/>
      <point x="33" y="0" type="line"/>
    </contour>
  </outline>
</glyph>
<glyph name="two.serif" format="2">
  <advance width="559"/>
  <unicode hex="0032"/>
  <outline>
    <contour>
      <point x="35" y="0" type="line"/>
      <point x="506" y="0" type="line"/>
      <point x="513" y="210" type="line"/>
      <point x="503" y="210" type="line"/>
      <point x="500" y="179" type="line" smooth="yes"/>
      <point x="495" y="127"/>
      <point x="467" y="110"/>
      <point x="403" y="110" type="curve" smooth="yes"/>
      <point x="67" y="110" type="line"/>
      <point x="206" y="219" type="line" smooth="yes"/>
      <point x="429" y="392"/>
      <point x="488" y="466"/>
      <point x="488" y="556" type="curve" smooth="yes"/>
      <point x="488" y="662"/>
      <point x="408" y="724"/>
      <point x="259" y="724" type="curve" smooth="yes"/>
      <point x="113" y="724"/>
      <point x="39" y="663"/>
      <point x="39" y="585" type="curve" smooth="yes"/>
      <point x="39" y="519"/>
      <point x="91" y="490"/>
      <point x="167" y="490" type="curve"/>
      <point x="167" y="660"/>
      <point x="185" y="714"/>
      <point x="253" y="714" type="curve" smooth="yes"/>
      <point x="314" y="714"/>
      <point x="337" y="669"/>
      <point x="337" y="562" type="curve" smooth="yes"/>
      <point x="337" y="424"/>
      <point x="300" y="345"/>
      <point x="174" y="225" type="curve" smooth="yes"/>
      <point x="35" y="93" type="line"/>
    </contour>
  </outline>
</glyph>
<glyph name="three" format="2">
  <advance width="544"/>
  <unicode hex="0033"/>
  <outline>
    <contour>
      <point x="487" y="554" type="curve" smooth="yes"/>
      <point x="487" y="662"/>
      <point x="401" y="724"/>
      <point x="263" y="724" type="curve" smooth="yes"/>
      <point x="156" y="724"/>
      <point x="89" y="694"/>
      <point x="35" y="654" type="curve"/>
      <point x="105" y="550" type="line"/>
      <point x="131" y="572"/>
      <point x="181" y="602"/>
      <point x="244" y="602" type="curve" smooth="yes"/>
      <point x="301" y="602"/>
      <point x="329" y="572"/>
      <point x="329" y="521" type="curve" smooth="yes"/>
      <point x="329" y="465"/>
      <point x="298" y="425"/>
      <point x="185" y="425" type="curve" smooth="yes"/>
      <point x="138" y="425" type="line"/>
      <point x="138" y="309" type="line"/>
      <point x="184" y="309" type="line" smooth="yes"/>
      <point x="305" y="309"/>
      <point x="336" y="276"/>
      <point x="336" y="217" type="curve" smooth="yes"/>
      <point x="336" y="149"/>
      <point x="305" y="110"/>
      <point x="210" y="110" type="curve" smooth="yes"/>
      <point x="158" y="110"/>
      <point x="92" y="126"/>
      <point x="34" y="157" type="curve"/>
      <point x="34" y="29" type="line"/>
      <point x="91" y="3"/>
      <point x="151" y="-10"/>
      <point x="231" y="-10" type="curve" smooth="yes"/>
      <point x="422" y="-10"/>
      <point x="506" y="83"/>
      <point x="506" y="208" type="curve" smooth="yes"/>
      <point x="506" y="302"/>
      <point x="447" y="359"/>
      <point x="340" y="373" type="curve"/>
      <point x="340" y="376" type="line"/>
      <point x="421" y="397"/>
      <point x="487" y="455"/>
    </contour>
  </outline>
</glyph>
<glyph name="three.serif" format="2">
  <advance width="559"/>
  <unicode hex="0033"/>
  <outline>
    <contour>
      <point x="241" y="-10" type="curve" smooth="yes"/>
      <point x="383" y="-10"/>
      <point x="513" y="45"/>
      <point x="513" y="191" type="curve" smooth="yes"/>
      <point x="513" y="311"/>
      <point x="424" y="371"/>
      <point x="265" y="372" type="curve"/>
      <point x="433" y="388"/>
      <point x="488" y="471"/>
      <point x="488" y="556" type="curve" smooth="yes"/>
      <point x="488" y="665"/>
      <point x="399" y="724"/>
      <point x="257" y="724" type="curve" smooth="yes"/>
      <point x="111" y="724"/>
      <point x="36" y="668"/>
      <point x="36" y="597" type="curve" smooth="yes"/>
      <point x="36" y="536"/>
      <point x="83" y="508"/>
      <point x="166" y="508" type="curve"/>
      <point x="166" y="637"/>
      <point x="180" y="714"/>
      <point x="252" y="714" type="curve" smooth="yes"/>
      <point x="306" y="714"/>
      <point x="335" y="670"/>
      <point x="335" y="547" type="curve" smooth="yes"/>
      <point x="335" y="419"/>
      <point x="305" y="374"/>
      <point x="199" y="374" type="curve" smooth="yes"/>
      <point x="142" y="374" type="line"/>
      <point x="142" y="364" type="line"/>
      <point x="199" y="364" type="line" smooth="yes"/>
      <point x="314" y="364"/>
      <point x="359" y="326"/>
      <point x="359" y="192" type="curve" smooth="yes"/>
      <point x="359" y="68"/>
      <point x="322" y="0"/>
      <point x="237" y="0" type="curve" smooth="yes"/>
      <point x="163" y="0"/>
      <point x="113" y="43"/>
      <point x="113" y="188" type="curve"/>
      <point x="67" y="188"/>
      <point x="28" y="161"/>
      <point x="28" y="111" type="curve" smooth="yes"/>
      <point x="28" y="47"/>
      <point x="94" y="-10"/>
    </contour>
  </outline>
</glyph>
<glyph name="four" format="2">
  <advance width="544"/>
  <unicode hex="0034"/>
  <outline>
    <contour>
      <point x="529" y="148" type="line"/>
      <point x="529" y="265" type="line"/>
      <point x="452" y="265" type="line"/>
      <point x="452" y="714" type="line"/>
      <point x="303" y="714" type="line"/>
      <point x="16" y="253" type="line"/>
      <point x="16" y="148" type="line"/>
      <point x="293" y="148" type="line"/>
      <point x="293" y="0" type="line"/>
      <point x="452" y="0" type="line"/>
      <point x="452" y="148" type="line"/>
    </contour>
    <contour>
      <point x="293" y="386" type="curve" smooth="yes"/>
      <point x="293" y="265" type="line"/>
      <point x="156" y="265" type="line"/>
      <point x="257" y="463" type="line" smooth="yes"/>
      <point x="271" y="491"/>
      <point x="282" y="514"/>
      <point x="294" y="541" type="curve"/>
      <point x="298" y="541" type="line"/>
      <point x="297" y="522"/>
      <point x="293" y="432"/>
    </contour>
  </outline>
</glyph>
<glyph name="four.serif" format="2">
  <advance width="559"/>
  <unicode hex="0034"/>
  <outline>
    <contour>
      <point x="180" y="0" type="line"/>
      <point x="531" y="0" type="line"/>
      <point x="531" y="10" type="line"/>
      <point x="518" y="10" type="line" smooth="yes"/>
      <point x="473" y="10"/>
      <point x="436" y="19"/>
      <point x="436" y="82" type="curve" smooth="yes"/>
      <point x="436" y="186" type="line"/>
      <point x="540" y="186" type="line"/>
      <point x="540" y="252" type="line"/>
      <point x="436" y="252" type="line"/>
      <point x="436" y="714" type="line"/>
      <point x="297" y="714" type="line"/>
      <point x="13" y="247" type="line"/>
      <point x="13" y="186" type="line"/>
      <point x="290" y="186" type="line"/>
      <point x="290" y="82" type="line" smooth="yes"/>
      <point x="290" y="19"/>
      <point x="253" y="10"/>
      <point x="208" y="10" type="curve" smooth="yes"/>
      <point x="180" y="10" type="line"/>
    </contour>
    <contour>
      <point x="28" y="252" type="line"/>
      <point x="199" y="534" type="line" smooth="yes"/>
      <point x="218" y="566"/>
      <point x="276" y="663"/>
      <point x="292" y="690" type="curve"/>
      <point x="290" y="630"/>
      <point x="290" y="547"/>
      <point x="290" y="473" type="curve" smooth="yes"/>
      <point x="290" y="252" type="line"/>
    </contour>
  </outline>
</glyph>
<glyph name="five" format="2">
  <advance width="544"/>
  <unicode hex="0035"/>
  <outline>
    <contour>
      <point x="294" y="456" type="curve" smooth="yes"/>
      <point x="249" y="456"/>
      <point x="232" y="450"/>
      <point x="211" y="446" type="curve"/>
      <point x="222" y="586" type="line"/>
      <point x="456" y="586" type="line"/>
      <point x="456" y="714" type="line"/>
      <point x="83" y="714" type="line"/>
      <point x="57" y="350" type="line"/>
      <point x="119" y="318" type="line"/>
      <point x="144" y="325"/>
      <point x="181" y="334"/>
      <point x="216" y="334" type="curve" smooth="yes"/>
      <point x="298" y="334"/>
      <point x="338" y="296"/>
      <point x="338" y="226" type="curve" smooth="yes"/>
      <point x="338" y="148"/>
      <point x="296" y="113"/>
      <point x="221" y="113" type="curve" smooth="yes"/>
      <point x="165" y="113"/>
      <point x="92" y="133"/>
      <point x="45" y="159" type="curve"/>
      <point x="45" y="29" type="line"/>
      <point x="93" y="3"/>
      <point x="157" y="-10"/>
      <point x="231" y="-10" type="curve" smooth="yes"/>
      <point x="411" y="-10"/>
      <point x="501" y="84"/>
      <point x="501" y="239" type="curve" smooth="yes"/>
      <point x="501" y="380"/>
      <point x="411" y="456"/>
    </contour>
  </outline>
</glyph>
<glyph name="five.serif" format="2">
  <advance width="559"/>
  <unicode hex="0035"/>
  <outline>
    <contour>
      <point x="241" y="-10" type="curve" smooth="yes"/>
      <point x="375" y="-10"/>
      <point x="506" y="47"/>
      <point x="506" y="220" type="curve" smooth="yes"/>
      <point x="506" y="353"/>
      <point x="412" y="434"/>
      <point x="258" y="434" type="curve" smooth="yes"/>
      <point x="183" y="434"/>
      <point x="128" y="411"/>
      <point x="92" y="369" type="curve"/>
      <point x="114" y="604" type="line"/>
      <point x="394" y="604" type="line" smooth="yes"/>
      <point x="444" y="604"/>
      <point x="461" y="590"/>
      <point x="464" y="546" type="curve" smooth="yes"/>
      <point x="465" y="532" type="line"/>
      <point x="475" y="532" type="line"/>
      <point x="469" y="714" type="line"/>
      <point x="114" y="714" type="line"/>
      <point x="81" y="359" type="line"/>
      <point x="92" y="355" type="line"/>
      <point x="127" y="396"/>
      <point x="171" y="419"/>
      <point x="223" y="419" type="curve" smooth="yes"/>
      <point x="305" y="419"/>
      <point x="353" y="363"/>
      <point x="353" y="220" type="curve" smooth="yes"/>
      <point x="353" y="66"/>
      <point x="316" y="0"/>
      <point x="231" y="0" type="curve" smooth="yes"/>
      <point x="148" y="0"/>
      <point x="120" y="63"/>
      <point x="120" y="180" type="curve"/>
      <point x="72" y="180"/>
      <point x="40" y="157"/>
      <point x="40" y="111" type="curve" smooth="yes"/>
      <point x="40" y="49"/>
      <point x="104" y="-10"/>
    </contour>
  </outline>
</glyph>
<glyph name="six" format="2">
  <advance width="544"/>
  <unicode hex="0036"/>
  <outline>
    <contour>
      <point x="32" y="303" type="curve" smooth="yes"/>
      <point x="32" y="89"/>
      <point x="141" y="-10"/>
      <point x="281" y="-10" type="curve" smooth="yes"/>
      <point x="424" y="-10"/>
      <point x="514" y="83"/>
      <point x="514" y="238" type="curve" smooth="yes"/>
      <point x="514" y="382"/>
      <point x="441" y="464"/>
      <point x="324" y="464" type="curve" smooth="yes"/>
      <point x="251" y="464"/>
      <point x="209" y="428"/>
      <point x="185" y="381" type="curve"/>
      <point x="179" y="381" type="line"/>
      <point x="185" y="513"/>
      <point x="227" y="604"/>
      <point x="379" y="604" type="curve" smooth="yes"/>
      <point x="415" y="604"/>
      <point x="444" y="600"/>
      <point x="469" y="594" type="curve"/>
      <point x="469" y="715" type="line"/>
      <point x="445" y="720"/>
      <point x="402" y="722"/>
      <point x="376" y="722" type="curve" smooth="yes"/>
      <point x="88" y="722"/>
      <point x="32" y="508"/>
    </contour>
    <contour>
      <point x="278" y="111" type="curve" smooth="yes"/>
      <point x="220" y="111"/>
      <point x="193" y="183"/>
      <point x="193" y="249" type="curve" smooth="yes"/>
      <point x="193" y="297"/>
      <point x="226" y="348"/>
      <point x="280" y="348" type="curve" smooth="yes"/>
      <point x="333" y="348"/>
      <point x="357" y="305"/>
      <point x="357" y="236" type="curve" smooth="yes"/>
      <point x="357" y="150"/>
      <point x="325" y="111"/>
    </contour>
  </outline>
</glyph>
<glyph name="six.serif" format="2">
  <advance width="559"/>
  <unicode hex="0036"/>
  <outline>
    <contour>
      <point x="293" y="-10" type="curve" smooth="yes"/>
      <point x="445" y="-10"/>
      <point x="524" y="88"/>
      <point x="524" y="231" type="curve" smooth="yes"/>
      <point x="524" y="361"/>
      <point x="445" y="438"/>
      <point x="324" y="438" type="curve" smooth="yes"/>
      <point x="256" y="438"/>
      <point x="213" y="416"/>
      <point x="186" y="391" type="curve"/>
      <point x="190" y="627"/>
      <point x="239" y="713"/>
      <point x="313" y="713" type="curve" smooth="yes"/>
      <point x="367" y="713"/>
      <point x="387" y="667"/>
      <point x="387" y="536" type="curve"/>
      <point x="475" y="536"/>
      <point x="507" y="573"/>
      <point x="507" y="617" type="curve" smooth="yes"/>
      <point x="507" y="671"/>
      <point x="451" y="724"/>
      <point x="336" y="724" type="curve" smooth="yes"/>
      <point x="129" y="724"/>
      <point x="45" y="550"/>
      <point x="45" y="330" type="curve" smooth="yes"/>
      <point x="45" y="97"/>
      <point x="145" y="-10"/>
    </contour>
    <contour>
      <point x="296" y="0" type="curve" smooth="yes"/>
      <point x="213" y="0"/>
      <point x="186" y="95"/>
      <point x="186" y="375" type="curve"/>
      <point x="207" y="400"/>
      <point x="248" y="424"/>
      <point x="288" y="424" type="curve" smooth="yes"/>
      <point x="351" y="424"/>
      <point x="379" y="367"/>
      <point x="379" y="221" type="curve" smooth="yes"/>
      <point x="379" y="57"/>
      <point x="357" y="0"/>
    </contour>
  </outline>
</glyph>
<glyph name="seven.serif" format="2">
  <advance width="559"/>
  <unicode hex="0037"/>
  <outline>
    <contour>
      <point x="165" y="0" type="line"/>
      <point x="250" y="0" type="line"/>
      <point x="526" y="665" type="line"/>
      <point x="526" y="714" type="line"/>
      <point x="51" y="714" type="line"/>
      <point x="44" y="504" type="line"/>
      <point x="54" y="504" type="line"/>
      <point x="56" y="524" type="line" smooth="yes"/>
      <point x="62" y="586"/>
      <point x="84" y="605"/>
      <point x="148" y="605" type="curve" smooth="yes"/>
      <point x="491" y="605" type="line"/>
    </contour>
  </outline>
</glyph>
<glyph name="eight" format="2">
  <advance width="544"/>
  <unicode hex="0038"/>
  <outline>
    <contour>
      <point x="273" y="723" type="curve" smooth="yes"/>
      <point x="150" y="723"/>
      <point x="52" y="665"/>
      <point x="52" y="552" type="curve" smooth="yes"/>
      <point x="52" y="467"/>
      <point x="99" y="413"/>
      <point x="158" y="373" type="curve"/>
      <point x="87" y="336"/>
      <point x="32" y="279"/>
      <point x="32" y="181" type="curve" smooth="yes"/>
      <point x="32" y="62"/>
      <point x="112" y="-10"/>
      <point x="272" y="-10" type="curve" smooth="yes"/>
      <point x="426" y="-10"/>
      <point x="512" y="66"/>
      <point x="512" y="185" type="curve" smooth="yes"/>
      <point x="512" y="280"/>
      <point x="441" y="337"/>
      <point x="374" y="377" type="curve"/>
      <point x="442" y="413"/>
      <point x="492" y="465"/>
      <point x="492" y="551" type="curve" smooth="yes"/>
      <point x="492" y="666"/>
      <point x="397" y="723"/>
    </contour>
    <contour>
      <point x="181" y="190" type="curve" smooth="yes"/>
      <point x="181" y="245"/>
      <point x="218" y="282"/>
      <point x="268" y="311" type="curve"/>
      <point x="280" y="303" type="line" smooth="yes"/>
      <point x="317" y="278"/>
      <point x="363" y="243"/>
      <point x="363" y="189" type="curve" smooth="yes"/>
      <point x="363" y="136"/>
      <point x="333" y="101"/>
      <point x="270" y="101" type="curve" smooth="yes"/>
      <point x="212" y="101"/>
      <point x="181" y="138"/>
    </contour>
    <contour>
      <point x="272" y="613" type="curve" smooth="yes"/>
      <point x="310" y="613"/>
      <point x="340" y="586"/>
      <point x="340" y="540" type="curve" smooth="yes"/>
      <point x="340" y="488"/>
      <point x="306" y="461"/>
      <point x="272" y="440" type="curve"/>
      <point x="235" y="463"/>
      <point x="204" y="491"/>
      <point x="204" y="540" type="curve" smooth="yes"/>
      <point x="204" y="586"/>
      <point x="234" y="613"/>
    </contour>
  </outline>
</glyph>
<glyph name="eight.serif" format="2">
  <advance width="559"/>
  <unicode hex="0038"/>
  <outline>
    <contour>
      <point x="277" y="-10" type="curve" smooth="yes"/>
      <point x="438" y="-10"/>
      <point x="529" y="64"/>
      <point x="529" y="188" type="curve" smooth="yes"/>
      <point x="529" y="283"/>
      <point x="474" y="333"/>
      <point x="342" y="397" type="curve"/>
      <point x="445" y="418"/>
      <point x="498" y="470"/>
      <point x="498" y="555" type="curve" smooth="yes"/>
      <point x="498" y="650"/>
      <point x="431" y="724"/>
      <point x="281" y="724" type="curve" smooth="yes"/>
      <point x="117" y="724"/>
      <point x="53" y="635"/>
      <point x="53" y="538" type="curve" smooth="yes"/>
      <point x="53" y="465"/>
      <point x="89" y="411"/>
      <point x="194" y="351" type="curve"/>
      <point x="68" y="319"/>
      <point x="30" y="256"/>
      <point x="30" y="179" type="curve" smooth="yes"/>
      <point x="30" y="69"/>
      <point x="110" y="-10"/>
    </contour>
    <contour>
      <point x="285" y="0" type="curve" smooth="yes"/>
      <point x="192" y="0"/>
      <point x="155" y="62"/>
      <point x="155" y="181" type="curve" smooth="yes"/>
      <point x="155" y="267"/>
      <point x="176" y="312"/>
      <point x="212" y="341" type="curve"/>
      <point x="393" y="247"/>
      <point x="410" y="201"/>
      <point x="410" y="142" type="curve" smooth="yes"/>
      <point x="410" y="41"/>
      <point x="361" y="0"/>
    </contour>
    <contour>
      <point x="325" y="406" type="curve"/>
      <point x="219" y="458"/>
      <point x="174" y="488"/>
      <point x="174" y="582" type="curve" smooth="yes"/>
      <point x="174" y="668"/>
      <point x="211" y="714"/>
      <point x="277" y="714" type="curve" smooth="yes"/>
      <point x="349" y="714"/>
      <point x="383" y="658"/>
      <point x="383" y="553" type="curve" smooth="yes"/>
      <point x="383" y="469"/>
      <point x="362" y="429"/>
    </contour>
  </outline>
</glyph>
<glyph name="nine" format="2">
  <advance width="544"/>
  <unicode hex="0039"/>
  <outline>
    <contour>
      <point x="512" y="409" type="curve" smooth="yes"/>
      <point x="512" y="623"/>
      <point x="403" y="724"/>
      <point x="262" y="724" type="curve" smooth="yes"/>
      <point x="120" y="724"/>
      <point x="31" y="629"/>
      <point x="31" y="474" type="curve" smooth="yes"/>
      <point x="31" y="330"/>
      <point x="102" y="248"/>
      <point x="214" y="248" type="curve" smooth="yes"/>
      <point x="301" y="248"/>
      <point x="333" y="284"/>
      <point x="359" y="331" type="curve"/>
      <point x="364" y="331" type="line"/>
      <point x="359" y="199"/>
      <point x="318" y="108"/>
      <point x="153" y="108" type="curve" smooth="yes"/>
      <point x="125" y="108"/>
      <point x="98" y="112"/>
      <point x="73" y="118" type="curve"/>
      <point x="73" y="-3" type="line"/>
      <point x="98" y="-8"/>
      <point x="138" y="-10"/>
      <point x="165" y="-10" type="curve" smooth="yes"/>
      <point x="439" y="-10"/>
      <point x="512" y="188"/>
    </contour>
    <contour>
      <point x="266" y="603" type="curve" smooth="yes"/>
      <point x="322" y="603"/>
      <point x="351" y="537"/>
      <point x="351" y="463" type="curve" smooth="yes"/>
      <point x="351" y="415"/>
      <point x="315" y="364"/>
      <point x="262" y="364" type="curve" smooth="yes"/>
      <point x="212" y="364"/>
      <point x="187" y="407"/>
      <point x="187" y="476" type="curve" smooth="yes"/>
      <point x="187" y="562"/>
      <point x="220" y="603"/>
    </contour>
  </outline>
</glyph>
<glyph name="nine.serif" format="2">
  <advance width="559"/>
  <unicode hex="0039"/>
  <outline>
    <contour>
      <point x="230" y="-10" type="curve" smooth="yes"/>
      <point x="435" y="-10"/>
      <point x="514" y="168"/>
      <point x="514" y="388" type="curve" smooth="yes"/>
      <point x="514" y="623"/>
      <point x="409" y="724"/>
      <point x="264" y="724" type="curve" smooth="yes"/>
      <point x="121" y="724"/>
      <point x="35" y="626"/>
      <point x="35" y="482" type="curve" smooth="yes"/>
      <point x="35" y="347"/>
      <point x="116" y="275"/>
      <point x="231" y="275" type="curve" smooth="yes"/>
      <point x="298" y="275"/>
      <point x="343" y="304"/>
      <point x="373" y="342" type="curve"/>
      <point x="370" y="86"/>
      <point x="332" y="0"/>
      <point x="235" y="0" type="curve" smooth="yes"/>
      <point x="161" y="0"/>
      <point x="116" y="59"/>
      <point x="116" y="165" type="curve"/>
      <point x="83" y="163"/>
      <point x="63" y="141"/>
      <point x="63" y="103" type="curve" smooth="yes"/>
      <point x="63" y="48"/>
      <point x="109" y="-10"/>
    </contour>
    <contour>
      <point x="274" y="298" type="curve" smooth="yes"/>
      <point x="212" y="298"/>
      <point x="180" y="347"/>
      <point x="180" y="488" type="curve" smooth="yes"/>
      <point x="180" y="655"/>
      <point x="203" y="714"/>
      <point x="268" y="714" type="curve" smooth="yes"/>
      <point x="347" y="714"/>
      <point x="373" y="624"/>
      <point x="373" y="360" type="curve"/>
      <point x="354" y="329"/>
      <point x="320" y="298"/>
    </contour>
  </outline>
</glyph>
<glyph name="colon" format="2">
  <advance width="270"/>
  <unicode hex="003A"/>
  <outline>
    <contour>
      <point x="47" y="70" type="curve"/>
      <point x="47" y="11"/>
      <point x="87" y="-13"/>
      <point x="136" y="-13" type="curve" smooth="yes"/>
      <point x="183" y="-13"/>
      <point x="223" y="11"/>
      <point x="223" y="70" type="curve" smooth="yes"/>
      <point x="223" y="131"/>
      <point x="183" y="153"/>
      <point x="136" y="153" type="curve" smooth="yes"/>
      <point x="87" y="153"/>
      <point x="47" y="131"/>
    </contour>
    <contour>
      <point x="47" y="473" type="curve"/>
      <point x="47" y="414"/>
      <point x="87" y="390"/>
      <point x="136" y="390" type="curve" smooth="yes"/>
      <point x="183" y="390"/>
      <point x="223" y="414"/>
      <point x="223" y="473" type="curve" smooth="yes"/>
      <point x="223" y="534"/>
      <point x="183" y="556"/>
      <point x="136" y="556" type="curve" smooth="yes"/>
      <point x="87" y="556"/>
      <point x="47" y="534"/>
    </contour>
  </outline>
</glyph>
<glyph name="colon.serif" format="2">
  <advance width="304"/>
  <unicode hex="003A"/>
  <outline>
    <contour>
      <point x="152" y="385" type="curve" smooth="yes"/>
      <point x="190" y="385"/>
      <point x="223" y="405"/>
      <point x="223" y="465" type="curve" smooth="yes"/>
      <point x="223" y="526"/>
      <point x="190" y="545"/>
      <point x="152" y="545" type="curve" smooth="yes"/>
      <point x="112" y="545"/>
      <point x="81" y="526"/>
      <point x="81" y="465" type="curve" smooth="yes"/>
      <point x="81" y="405"/>
      <point x="112" y="385"/>
    </contour>
    <contour>
      <point x="152" y="-8" type="curve" smooth="yes"/>
      <point x="190" y="-8"/>
      <point x="223" y="12"/>
      <point x="223" y="72" type="curve" smooth="yes"/>
      <point x="223" y="133"/>
      <point x="190" y="152"/>
      <point x="152" y="152" type="curve" smooth="yes"/>
      <point x="112" y="152"/>
      <point x="81" y="133"/>
      <point x="81" y="72" type="curve" smooth="yes"/>
      <point x="81" y="12"/>
      <point x="112" y="-8"/>
    </contour>
  </outline>
</glyph>
<glyph name="semicolon" format="2">
  <advance width="270"/>
  <unicode hex="003B"/>
  <outline>
    <contour>
      <point x="223" y="105" type="curve"/>
      <point x="216" y="116" type="line"/>
      <point x="74" y="116" type="line"/>
      <point x="65" y="47"/>
      <point x="46" y="-50"/>
      <point x="28" y="-129" type="curve"/>
      <point x="142" y="-129" type="line"/>
      <point x="173" y="-56"/>
      <point x="206" y="34"/>
    </contour>
    <contour>
      <point x="48" y="473" type="curve"/>
      <point x="48" y="414"/>
      <point x="88" y="390"/>
      <point x="137" y="390" type="curve" smooth="yes"/>
      <point x="184" y="390"/>
      <point x="224" y="414"/>
      <point x="224" y="473" type="curve" smooth="yes"/>
      <point x="224" y="534"/>
      <point x="184" y="556"/>
      <point x="137" y="556" type="curve" smooth="yes"/>
      <point x="88" y="556"/>
      <point x="48" y="534"/>
    </contour>
  </outline>
</glyph>
<glyph name="semicolon.serif" format="2">
  <advance width="304"/>
  <unicode hex="003B"/>
  <outline>
    <contour>
      <point x="55" y="-144" type="curve"/>
      <point x="55" y="-154" type="line"/>
      <point x="185" y="-119"/>
      <point x="234" y="-43"/>
      <point x="234" y="42" type="curve" smooth="yes"/>
      <point x="234" y="110"/>
      <point x="201" y="152"/>
      <point x="142" y="152" type="curve" smooth="yes"/>
      <point x="104" y="152"/>
      <point x="70" y="131"/>
      <point x="70" y="85" type="curve" smooth="yes"/>
      <point x="70" y="2"/>
      <point x="163" y="33"/>
      <point x="163" y="-42" type="curve" smooth="yes"/>
      <point x="163" y="-100"/>
      <point x="113" y="-123"/>
    </contour>
    <contour>
      <point x="152" y="385" type="curve" smooth="yes"/>
      <point x="190" y="385"/>
      <point x="223" y="405"/>
      <point x="223" y="465" type="curve" smooth="yes"/>
      <point x="223" y="526"/>
      <point x="190" y="545"/>
      <point x="152" y="545" type="curve" smooth="yes"/>
      <point x="112" y="545"/>
      <point x="81" y="526"/>
      <point x="81" y="465" type="curve" smooth="yes"/>
      <point x="81" y="405"/>
      <point x="112" y="385"/>
    </contour>
  </outline>
</glyph>
<glyph name="greater.serif" format="2">
  <advance width="559"/>
  <unicode hex="003E"/>
  <outline>
    <contour>
      <point x="65" y="119" type="line"/>
      <point x="494" y="347" type="line"/>
      <point x="494" y="367" type="line"/>
      <point x="65" y="595" type="line"/>
      <point x="65" y="572" type="line"/>
      <point x="472" y="357" type="line"/>
      <point x="65" y="142" type="line"/>
    </contour>
  </outline>
</glyph>
<glyph name="question" format="2">
  <advance width="461"/>
  <unicode hex="003F"/>
  <outline>
    <contour>
      <point x="131" y="273" type="curve" smooth="yes"/>
      <point x="131" y="237" type="line"/>
      <point x="262" y="237" type="line"/>
      <point x="262" y="266" type="line" smooth="yes"/>
      <point x="262" y="307"/>
      <point x="277" y="323"/>
      <point x="332" y="366" type="curve" smooth="yes"/>
      <point x="406" y="424"/>
      <point x="441" y="465"/>
      <point x="441" y="547" type="curve" smooth="yes"/>
      <point x="441" y="650"/>
      <point x="364" y="724"/>
      <point x="229" y="724" type="curve" smooth="yes"/>
      <point x="140" y="724"/>
      <point x="66" y="699"/>
      <point x="1" y="663" type="curve"/>
      <point x="58" y="556" type="line"/>
      <point x="115" y="585"/>
      <point x="168" y="604"/>
      <point x="217" y="604" type="curve" smooth="yes"/>
      <point x="262" y="604"/>
      <point x="291" y="581"/>
      <point x="291" y="539" type="curve" smooth="yes"/>
      <point x="291" y="496"/>
      <point x="276" y="471"/>
      <point x="217" y="428" type="curve" smooth="yes"/>
      <point x="151" y="380"/>
      <point x="131" y="339"/>
    </contour>
    <contour>
      <point x="113" y="70" type="curve" smooth="yes"/>
      <point x="113" y="11"/>
      <point x="153" y="-13"/>
      <point x="202" y="-13" type="curve" smooth="yes"/>
      <point x="250" y="-13"/>
      <point x="290" y="11"/>
      <point x="290" y="70" type="curve" smooth="yes"/>
      <point x="290" y="131"/>
      <point x="250" y="153"/>
      <point x="202" y="153" type="curve" smooth="yes"/>
      <point x="153" y="153"/>
      <point x="113" y="131"/>
    </contour>
  </outline>
</glyph>
<glyph name="question.serif" format="2">
  <advance width="550"/>
  <unicode hex="003F"/>
  <outline>
    <contour>
      <point x="195" y="353" type="curve"/>
      <point x="238" y="228" type="line"/>
      <point x="253" y="228" type="line"/>
      <point x="296" y="349" type="line"/>
      <point x="429" y="374"/>
      <point x="495" y="436"/>
      <point x="495" y="535" type="curve" smooth="yes"/>
      <point x="495" y="659"/>
      <point x="395" y="724"/>
      <point x="242" y="724" type="curve" smooth="yes"/>
      <point x="107" y="724"/>
      <point x="37" y="670"/>
      <point x="37" y="612" type="curve" smooth="yes"/>
      <point x="37" y="558"/>
      <point x="96" y="538"/>
      <point x="178" y="538" type="curve"/>
      <point x="178" y="665"/>
      <point x="202" y="714"/>
      <point x="256" y="714" type="curve" smooth="yes"/>
      <point x="318" y="714"/>
      <point x="336" y="648"/>
      <point x="336" y="536" type="curve" smooth="yes"/>
      <point x="336" y="385"/>
      <point x="299" y="358"/>
    </contour>
    <contour>
      <point x="244" y="-8" type="curve" smooth="yes"/>
      <point x="282" y="-8"/>
      <point x="315" y="12"/>
      <point x="315" y="72" type="curve" smooth="yes"/>
      <point x="315" y="133"/>
      <point x="282" y="152"/>
      <point x="244" y="152" type="curve" smooth="yes"/>
      <point x="204" y="152"/>
      <point x="173" y="133"/>
      <point x="173" y="72" type="curve" smooth="yes"/>
      <point x="173" y="12"/>
      <point x="204" y="-8"/>
    </contour>
  </outline>
</glyph>
<glyph name="at" format="2">
  <advance width="843"/>
  <unicode hex="0040"/>
  <outline>
    <contour>
      <point x="801" y="358" type="curve"/>
      <point x="801" y="578"/>
      <point x="656" y="714"/>
      <point x="447" y="714" type="curve" smooth="yes"/>
      <point x="200" y="714"/>
      <point x="42" y="527"/>
      <point x="42" y="285" type="curve" smooth="yes"/>
      <point x="42" y="53"/>
      <point x="181" y="-84"/>
      <point x="418" y="-84" type="curve" smooth="yes"/>
      <point x="501" y="-84"/>
      <point x="579" y="-67"/>
      <point x="641" y="-40" type="curve"/>
      <point x="641" y="54" type="line"/>
      <point x="571" y="28"/>
      <point x="483" y="9"/>
      <point x="412" y="9" type="curve" smooth="yes"/>
      <point x="244" y="9"/>
      <point x="155" y="108"/>
      <point x="155" y="288" type="curve" smooth="yes"/>
      <point x="155" y="481"/>
      <point x="257" y="622"/>
      <point x="449" y="622" type="curve" smooth="yes"/>
      <point x="597" y="622"/>
      <point x="690" y="526"/>
      <point x="690" y="359" type="curve" smooth="yes"/>
      <point x="690" y="269"/>
      <point x="669" y="194"/>
      <point x="631" y="194" type="curve" smooth="yes"/>
      <point x="615" y="194"/>
      <point x="602" y="207"/>
      <point x="602" y="262" type="curve" smooth="yes"/>
      <point x="602" y="266"/>
      <point x="603" y="282"/>
      <point x="604" y="296" type="curve" smooth="yes"/>
      <point x="613" y="501" type="line"/>
      <point x="575" y="514"/>
      <point x="508" y="528"/>
      <point x="448" y="528" type="curve" smooth="yes"/>
      <point x="303" y="528"/>
      <point x="220" y="433"/>
      <point x="220" y="299" type="curve" smooth="yes"/>
      <point x="220" y="183"/>
      <point x="280" y="105"/>
      <point x="394" y="105" type="curve" smooth="yes"/>
      <point x="449" y="105"/>
      <point x="490" y="135"/>
      <point x="517" y="168" type="curve"/>
      <point x="524" y="168" type="line"/>
      <point x="543" y="131"/>
      <point x="583" y="105"/>
      <point x="629" y="105" type="curve" smooth="yes"/>
      <point x="743" y="105"/>
      <point x="801" y="234"/>
    </contour>
    <contour>
      <point x="337" y="297" type="curve"/>
      <point x="337" y="368"/>
      <point x="370" y="439"/>
      <point x="452" y="439" type="curve" smooth="yes"/>
      <point x="468" y="439"/>
      <point x="481" y="437"/>
      <point x="494" y="434" type="curve"/>
      <point x="489" y="326" type="line"/>
      <point x="483" y="247"/>
      <point x="464" y="194"/>
      <point x="407" y="194" type="curve" smooth="yes"/>
      <point x="365" y="194"/>
      <point x="337" y="224"/>
    </contour>
  </outline>
</glyph>
<glyph name="at.serif" format="2">
  <advance width="921"/>
  <unicode hex="0040"/>
  <outline>
    <contour>
      <point x="425" y="-142" type="curve" smooth="yes"/>
      <point x="536" y="-142"/>
      <point x="633" y="-111"/>
      <point x="728" y="-43" type="curve"/>
      <point x="721" y="-34" type="line"/>
      <point x="625" y="-102"/>
      <point x="532" y="-131"/>
      <point x="434" y="-131" type="curve" smooth="yes"/>
      <point x="242" y="-131"/>
      <point x="149" y="-20"/>
      <point x="149" y="203" type="curve" smooth="yes"/>
      <point x="149" y="495"/>
      <point x="308" y="704"/>
      <point x="551" y="704" type="curve" smooth="yes"/>
      <point x="713" y="704"/>
      <point x="801" y="612"/>
      <point x="801" y="403" type="curve" smooth="yes"/>
      <point x="801" y="241"/>
      <point x="748" y="87"/>
      <point x="666" y="87" type="curve" smooth="yes"/>
      <point x="641" y="87"/>
      <point x="626" y="102"/>
      <point x="626" y="148" type="curve" smooth="yes"/>
      <point x="626" y="190"/>
      <point x="638" y="242"/>
      <point x="643" y="266" type="curve" smooth="yes"/>
      <point x="694" y="520" type="line"/>
      <point x="683" y="520" type="line"/>
      <point x="586" y="484" type="line"/>
      <point x="570" y="510"/>
      <point x="550" y="529"/>
      <point x="496" y="529" type="curve" smooth="yes"/>
      <point x="330" y="529"/>
      <point x="252" y="353"/>
      <point x="252" y="234" type="curve" smooth="yes"/>
      <point x="252" y="131"/>
      <point x="311" y="77"/>
      <point x="385" y="77" type="curve" smooth="yes"/>
      <point x="449" y="77"/>
      <point x="502" y="118"/>
      <point x="532" y="218" type="curve"/>
      <point x="534" y="218" type="line"/>
      <point x="534" y="107"/>
      <point x="606" y="77"/>
      <point x="661" y="77" type="curve" smooth="yes"/>
      <point x="773" y="77"/>
      <point x="882" y="203"/>
      <point x="882" y="385" type="curve" smooth="yes"/>
      <point x="882" y="575"/>
      <point x="764" y="714"/>
      <point x="535" y="714" type="curve" smooth="yes"/>
      <point x="250" y="714"/>
      <point x="51" y="500"/>
      <point x="51" y="223" type="curve" smooth="yes"/>
      <point x="51" y="-24"/>
      <point x="209" y="-142"/>
    </contour>
    <contour>
      <point x="423" y="98" type="curve" smooth="yes"/>
      <point x="393" y="98"/>
      <point x="375" y="134"/>
      <point x="375" y="204" type="curve" smooth="yes"/>
      <point x="375" y="318"/>
      <point x="422" y="518"/>
      <point x="513" y="518" type="curve" smooth="yes"/>
      <point x="544" y="518"/>
      <point x="568" y="495"/>
      <point x="574" y="479" type="curve"/>
      <point x="529" y="251" type="line" smooth="yes"/>
      <point x="510" y="154"/>
      <point x="459" y="98"/>
    </contour>
  </outline>
</glyph>
<glyph name="A" format="2">
  <advance width="665"/>
  <unicode hex="0041"/>
  <anchor x="333" y="0" name="bottom"/>
  <anchor x="333" y="714" name="top"/>
  <anchor x="576" y="714" name="topright"/>
  <outline>
    <contour>
      <point x="490" y="0" type="line"/>
      <point x="665" y="0" type="line"/>
      <point x="436" y="717" type="line"/>
      <point x="228" y="717" type="line"/>
      <point x="0" y="0" type="line"/>
      <point x="176" y="0" type="line"/>
      <point x="218" y="170" type="line"/>
      <point x="449" y="170" type="line"/>
    </contour>
    <contour>
      <point x="367" y="463" type="curve" smooth="yes"/>
      <point x="414" y="297" type="line"/>
      <point x="254" y="297" type="line"/>
      <point x="300" y="463" type="line" smooth="yes"/>
      <point x="311" y="503"/>
      <point x="324" y="553"/>
      <point x="333" y="606" type="curve"/>
      <point x="342" y="553"/>
      <point x="355" y="505"/>
    </contour>
  </outline>
</glyph>
<glyph name="A.serif" format="2">
  <advance width="753"/>
  <unicode hex="0041"/>
  <anchor x="607" y="0" name="bottom"/>
  <anchor x="377" y="714" name="top"/>
  <anchor x="603" y="714" name="topright"/>
  <outline>
    <contour>
      <point x="4" y="0" type="line"/>
      <point x="244" y="0" type="line"/>
      <point x="244" y="10" type="line"/>
      <point x="173" y="10" type="line" smooth="yes"/>
      <point x="140" y="10"/>
      <point x="124" y="19"/>
      <point x="124" y="44" type="curve" smooth="yes"/>
      <point x="124" y="59"/>
      <point x="130" y="79"/>
      <point x="140" y="106" type="curve" smooth="yes"/>
      <point x="197" y="261" type="line"/>
      <point x="455" y="261" type="line"/>
      <point x="512" y="93" type="line" smooth="yes"/>
      <point x="519" y="71"/>
      <point x="523" y="54"/>
      <point x="523" y="42" type="curve" smooth="yes"/>
      <point x="523" y="19"/>
      <point x="508" y="10"/>
      <point x="477" y="10" type="curve" smooth="yes"/>
      <point x="423" y="10" type="line"/>
      <point x="423" y="0" type="line"/>
      <point x="753" y="0" type="line"/>
      <point x="753" y="10" type="line"/>
      <point x="750" y="10" type="line" smooth="yes"/>
      <point x="712" y="10"/>
      <point x="694" y="27"/>
      <point x="674" y="82" type="curve" smooth="yes"/>
      <point x="450" y="714" type="line"/>
      <point x="352" y="714" type="line"/>
      <point x="121" y="83" type="line" smooth="yes"/>
      <point x="101" y="28"/>
      <point x="82" y="10"/>
      <point x="45" y="10" type="curve" smooth="yes"/>
      <point x="4" y="10" type="line"/>
    </contour>
    <contour>
      <point x="201" y="271" type="line"/>
      <point x="272" y="465" type="line" smooth="yes"/>
      <point x="290" y="513"/>
      <point x="320" y="595"/>
      <point x="336" y="643" type="curve"/>
      <point x="348" y="592"/>
      <point x="374" y="506"/>
      <point x="390" y="458" type="curve" smooth="yes"/>
      <point x="452" y="271" type="line"/>
    </contour>
  </outline>
</glyph>
<glyph name="B" format="2">
  <advance width="633"/>
  <unicode hex="0042"/>
  <anchor x="320" y="0" name="bottom"/>
  <anchor x="320" y="714" name="top"/>
  <anchor x="614" y="714" name="topright"/>
  <outline>
    <contour>
      <point x="300" y="714" type="curve" smooth="yes"/>
      <point x="79" y="714" type="line"/>
      <point x="79" y="0" type="line"/>
      <point x="335" y="0" type="line" smooth="yes"/>
      <point x="490" y="0"/>
      <point x="586" y="77"/>
      <point x="586" y="207" type="curve" smooth="yes"/>
      <point x="586" y="319"/>
      <point x="527" y="359"/>
      <point x="467" y="374" type="curve"/>
      <point x="467" y="379" type="line"/>
      <point x="525" y="391"/>
      <point x="571" y="452"/>
      <point x="571" y="533" type="curve" smooth="yes"/>
      <point x="571" y="667"/>
      <point x="486" y="714"/>
    </contour>
    <contour>
      <point x="309" y="431" type="curve" smooth="yes"/>
      <point x="241" y="431" type="line"/>
      <point x="241" y="590" type="line"/>
      <point x="304" y="590" type="line" smooth="yes"/>
      <point x="373" y="590"/>
      <point x="405" y="568"/>
      <point x="405" y="513" type="curve" smooth="yes"/>
      <point x="405" y="459"/>
      <point x="381" y="431"/>
    </contour>
    <contour>
      <point x="241" y="311" type="line"/>
      <point x="315" y="311" type="line"/>
      <point x="394" y="311"/>
      <point x="419" y="275"/>
      <point x="419" y="222" type="curve" smooth="yes"/>
      <point x="419" y="163"/>
      <point x="393" y="125"/>
      <point x="319" y="125" type="curve" smooth="yes"/>
      <point x="241" y="125" type="line"/>
    </contour>
  </outline>
</glyph>
<glyph name="C" format="2">
  <advance width="604"/>
  <unicode hex="0043"/>
  <anchor x="352" y="0" name="bottom"/>
  <anchor x="349" y="714" name="top"/>
  <anchor x="585" y="714" name="topright"/>
  <outline>
    <contour>
      <point x="370" y="598" type="curve" smooth="yes"/>
      <point x="423" y="598"/>
      <point x="473" y="576"/>
      <point x="522" y="551" type="curve"/>
      <point x="573" y="674" type="line"/>
      <point x="518" y="705"/>
      <point x="437" y="724"/>
      <point x="371" y="724" type="curve" smooth="yes"/>
      <point x="165" y="724"/>
      <point x="51" y="572"/>
      <point x="51" y="356" type="curve" smooth="yes"/>
      <point x="51" y="136"/>
      <point x="145" y="-10"/>
      <point x="359" y="-10" type="curve" smooth="yes"/>
      <point x="429" y="-10"/>
      <point x="487" y="1"/>
      <point x="546" y="27" type="curve"/>
      <point x="546" y="154" type="line"/>
      <point x="486" y="130"/>
      <point x="432" y="116"/>
      <point x="375" y="116" type="curve" smooth="yes"/>
      <point x="267" y="116"/>
      <point x="217" y="203"/>
      <point x="217" y="355" type="curve" smooth="yes"/>
      <point x="217" y="505"/>
      <point x="273" y="598"/>
    </contour>
  </outline>
</glyph>
<glyph name="C.serif" format="2">
  <advance width="668"/>
  <unicode hex="0043"/>
  <anchor x="413" y="-10" name="bottom"/>
  <anchor x="384" y="714" name="top"/>
  <anchor x="648" y="714" name="topright"/>
  <outline>
    <contour>
      <point x="401" y="-10" type="curve" smooth="yes"/>
      <point x="572" y="-10"/>
      <point x="627" y="68"/>
      <point x="627" y="121" type="curve" smooth="yes"/>
      <point x="627" y="144"/>
      <point x="617" y="158"/>
      <point x="600" y="165" type="curve"/>
      <point x="578" y="57"/>
      <point x="516" y="1"/>
      <point x="419" y="1" type="curve" smooth="yes"/>
      <point x="282" y="1"/>
      <point x="223" y="108"/>
      <point x="223" y="358" type="curve" smooth="yes"/>
      <point x="223" y="607"/>
      <point x="270" y="714"/>
      <point x="381" y="714" type="curve" smooth="yes"/>
      <point x="466" y="714"/>
      <point x="503" y="656"/>
      <point x="503" y="521" type="curve"/>
      <point x="584" y="521"/>
      <point x="628" y="558"/>
      <point x="628" y="607" type="curve" smooth="yes"/>
      <point x="628" y="673"/>
      <point x="547" y="724"/>
      <point x="404" y="724" type="curve" smooth="yes"/>
      <point x="167" y="724"/>
      <point x="55" y="574"/>
      <point x="55" y="358" type="curve" smooth="yes"/>
      <point x="55" y="137"/>
      <point x="169" y="-10"/>
    </contour>
  </outline>
</glyph>
<glyph name="D" format="2">
  <advance width="693"/>
  <unicode hex="0044"/>
  <anchor x="331" y="0" name="bottom"/>
  <anchor x="347" y="357" name="center"/>
  <anchor x="347" y="714" name="top"/>
  <anchor x="674" y="714" name="topright"/>
  <outline>
    <contour>
      <point x="642" y="364" type="curve" smooth="yes"/>
      <point x="642" y="593"/>
      <point x="514" y="714"/>
      <point x="300" y="714" type="curve" smooth="yes"/>
      <point x="79" y="714" type="line"/>
      <point x="79" y="0" type="line"/>
      <point x="282" y="0" type="line" smooth="yes"/>
      <point x="505" y="0"/>
      <point x="642" y="123"/>
    </contour>
    <contour>
      <point x="474" y="360" type="curve" smooth="yes"/>
      <point x="474" y="204"/>
      <point x="416" y="125"/>
      <point x="291" y="125" type="curve" smooth="yes"/>
      <point x="241" y="125" type="line"/>
      <point x="241" y="590" type="line"/>
      <point x="305" y="590" type="line" smooth="yes"/>
      <point x="416" y="590"/>
      <point x="474" y="518"/>
    </contour>
  </outline>
</glyph>
<glyph name="D.serif" format="2">
  <advance width="767"/>
  <unicode hex="0044"/>
  <anchor x="384" y="0" name="bottom"/>
  <anchor x="384" y="357" name="center"/>
  <anchor x="384" y="714" name="top"/>
  <anchor x="747" y="714" name="topright"/>
  <outline>
    <contour>
      <point x="28" y="0" type="line"/>
      <point x="358" y="0" type="line"/>
      <point x="591" y="0"/>
      <point x="712" y="151"/>
      <point x="712" y="370" type="curve" smooth="yes"/>
      <point x="712" y="597"/>
      <point x="579" y="714"/>
      <point x="358" y="714" type="curve"/>
      <point x="28" y="714" type="line"/>
      <point x="28" y="704" type="line"/>
      <point x="70" y="704" type="line" smooth="yes"/>
      <point x="98" y="704"/>
      <point x="121" y="696"/>
      <point x="121" y="643" type="curve" smooth="yes"/>
      <point x="121" y="75" type="line" smooth="yes"/>
      <point x="121" y="18"/>
      <point x="99" y="10"/>
      <point x="70" y="10" type="curve" smooth="yes"/>
      <point x="28" y="10" type="line"/>
    </contour>
    <contour>
      <point x="335" y="10" type="curve" smooth="yes"/>
      <point x="279" y="10" type="line"/>
      <point x="279" y="704" type="line"/>
      <point x="336" y="704" type="line" smooth="yes"/>
      <point x="485" y="704"/>
      <point x="543" y="610"/>
      <point x="543" y="370" type="curve" smooth="yes"/>
      <point x="543" y="111"/>
      <point x="485" y="10"/>
    </contour>
  </outline>
</glyph>
<glyph name="E" format="2">
  <advance width="521"/>
  <unicode hex="0045"/>
  <anchor x="282" y="0" name="bottom"/>
  <anchor x="278" y="714" name="top"/>
  <anchor x="503" y="714" name="topright"/>
  <outline>
    <contour>
      <point x="471" y="0" type="line"/>
      <point x="471" y="125" type="line"/>
      <point x="241" y="125" type="line"/>
      <point x="241" y="309" type="line"/>
      <point x="455" y="309" type="line"/>
      <point x="455" y="433" type="line"/>
      <point x="241" y="433" type="line"/>
      <point x="241" y="590" type="line"/>
      <point x="471" y="590" type="line"/>
      <point x="471" y="714" type="line"/>
      <point x="79" y="714" type="line"/>
      <point x="79" y="0" type="line"/>
    </contour>
  </outline>
</glyph>
<glyph name="E.serif" format="2">
  <advance width="653"/>
  <unicode hex="0045"/>
  <anchor x="327" y="0" name="bottom"/>
  <anchor x="327" y="714" name="top"/>
  <anchor x="633" y="714" name="topright"/>
  <outline>
    <contour>
      <point x="28" y="0" type="line"/>
      <point x="614" y="0" type="line"/>
      <point x="621" y="184" type="line"/>
      <point x="611" y="184" type="line"/>
      <point x="608" y="151" type="line" smooth="yes"/>
      <point x="599" y="49"/>
      <point x="554" y="10"/>
      <point x="448" y="10" type="curve" smooth="yes"/>
      <point x="280" y="10" type="line"/>
      <point x="280" y="368" type="line"/>
      <point x="517" y="368" type="line"/>
      <point x="517" y="378" type="line"/>
      <point x="280" y="378" type="line"/>
      <point x="280" y="704" type="line"/>
      <point x="414" y="704" type="line" smooth="yes"/>
      <point x="521" y="704"/>
      <point x="565" y="665"/>
      <point x="574" y="564" type="curve" smooth="yes"/>
      <point x="577" y="530" type="line"/>
      <point x="587" y="530" type="line"/>
      <point x="581" y="714" type="line"/>
      <point x="28" y="714" type="line"/>
      <point x="28" y="704" type="line"/>
      <point x="70" y="704" type="line" smooth="yes"/>
      <point x="99" y="704"/>
      <point x="121" y="696"/>
      <point x="121" y="639" type="curve" smooth="yes"/>
      <point x="121" y="70" type="line" smooth="yes"/>
      <point x="121" y="17"/>
      <point x="98" y="10"/>
      <point x="70" y="10" type="curve" smooth="yes"/>
      <point x="28" y="10" type="line"/>
    </contour>
  </outline>
</glyph>
<glyph name="F" format="2">
  <advance width="512"/>
  <unicode hex="0046"/>
  <anchor x="257" y="0" name="bottom"/>
  <anchor x="276" y="714" name="top"/>
  <anchor x="493" y="714" name="topright"/>
  <outline>
    <contour>
      <point x="238" y="0" type="line"/>
      <point x="238" y="282" type="line"/>
      <point x="453" y="282" type="line"/>
      <point x="453" y="406" type="line"/>
      <point x="238" y="406" type="line"/>
      <point x="238" y="590" type="line"/>
      <point x="470" y="590" type="line"/>
      <point x="470" y="714" type="line"/>
      <point x="79" y="714" type="line"/>
      <point x="79" y="0" type="line"/>
    </contour>
  </outline>
</glyph>
<glyph name="F.serif" format="2">
  <advance width="621"/>
  <unicode hex="0046"/>
  <anchor x="200" y="0" name="bottom"/>
  <anchor x="311" y="714" name="top"/>
  <anchor x="601" y="714" name="topright"/>
  <outline>
    <contour>
      <point x="28" y="0" type="line"/>
      <point x="393" y="0" type="line"/>
      <point x="393" y="10" type="line"/>
      <point x="331" y="10" type="line" smooth="yes"/>
      <point x="302" y="10"/>
      <point x="280" y="18"/>
      <point x="280" y="75" type="curve" smooth="yes"/>
      <point x="280" y="368" type="line"/>
      <point x="517" y="368" type="line"/>
      <point x="517" y="378" type="line"/>
      <point x="280" y="378" type="line"/>
      <point x="280" y="704" type="line"/>
      <point x="414" y="704" type="line" smooth="yes"/>
      <point x="521" y="704"/>
      <point x="565" y="665"/>
      <point x="574" y="564" type="curve" smooth="yes"/>
      <point x="577" y="530" type="line"/>
      <point x="587" y="530" type="line"/>
      <point x="581" y="714" type="line"/>
      <point x="28" y="714" type="line"/>
      <point x="28" y="704" type="line"/>
      <point x="70" y="704" type="line" smooth="yes"/>
      <point x="99" y="704"/>
      <point x="121" y="696"/>
      <point x="121" y="639" type="curve" smooth="yes"/>
      <point x="121" y="70" type="line" smooth="yes"/>
      <point x="121" y="17"/>
      <point x="98" y="10"/>
      <point x="70" y="10" type="curve" smooth="yes"/>
      <point x="28" y="10" type="line"/>
    </contour>
  </outline>
</glyph>
<glyph name="G" format="2">
  <advance width="688"/>
  <unicode hex="0047"/>
  <anchor x="362" y="0" name="bottom"/>
  <anchor x="376" y="714" name="top"/>
  <anchor x="669" y="714" name="topright"/>
  <outline>
    <contour>
      <point x="341" y="401" type="line"/>
      <point x="341" y="275" type="line"/>
      <point x="464" y="275" type="line"/>
      <point x="464" y="126" type="line"/>
      <point x="443" y="121"/>
      <point x="412" y="116"/>
      <point x="381" y="116" type="curve" smooth="yes"/>
      <point x="270" y="116"/>
      <point x="218" y="215"/>
      <point x="218" y="355" type="curve" smooth="yes"/>
      <point x="218" y="502"/>
      <point x="280" y="598"/>
      <point x="403" y="598" type="curve" smooth="yes"/>
      <point x="461" y="598"/>
      <point x="514" y="581"/>
      <point x="559" y="559" type="curve"/>
      <point x="611" y="680" type="line"/>
      <point x="555" y="706"/>
      <point x="480" y="724"/>
      <point x="403" y="724" type="curve" smooth="yes"/>
      <point x="175" y="724"/>
      <point x="51" y="582"/>
      <point x="51" y="358" type="curve" smooth="yes"/>
      <point x="51" y="118"/>
      <point x="172" y="-10"/>
      <point x="369" y="-10" type="curve" smooth="yes"/>
      <point x="466" y="-10"/>
      <point x="548" y="6"/>
      <point x="618" y="31" type="curve"/>
      <point x="618" y="401" type="line"/>
    </contour>
  </outline>
</glyph>
<glyph name="G.serif" format="2">
  <advance width="769"/>
  <unicode hex="0047"/>
  <anchor x="435" y="-10" name="bottom"/>
  <anchor x="435" y="714" name="top"/>
  <anchor x="749" y="714" name="topright"/>
  <outline>
    <contour>
      <point x="423" y="-10" type="curve" smooth="yes"/>
      <point x="514" y="-10"/>
      <point x="591" y="8"/>
      <point x="669" y="44" type="curve"/>
      <point x="669" y="251" type="line" smooth="yes"/>
      <point x="669" y="308"/>
      <point x="687" y="326"/>
      <point x="728" y="326" type="curve" smooth="yes"/>
      <point x="741" y="326" type="line"/>
      <point x="741" y="336" type="line"/>
      <point x="427" y="336" type="line"/>
      <point x="427" y="326" type="line"/>
      <point x="440" y="326" type="line" smooth="yes"/>
      <point x="487" y="326"/>
      <point x="511" y="308"/>
      <point x="511" y="255" type="curve" smooth="yes"/>
      <point x="511" y="8" type="line"/>
      <point x="488" y="3"/>
      <point x="463" y="1"/>
      <point x="438" y="1" type="curve" smooth="yes"/>
      <point x="288" y="1"/>
      <point x="223" y="108"/>
      <point x="223" y="358" type="curve" smooth="yes"/>
      <point x="223" y="607"/>
      <point x="283" y="714"/>
      <point x="419" y="714" type="curve" smooth="yes"/>
      <point x="517" y="714"/>
      <point x="549" y="658"/>
      <point x="549" y="523" type="curve"/>
      <point x="633" y="523"/>
      <point x="678" y="561"/>
      <point x="678" y="608" type="curve" smooth="yes"/>
      <point x="678" y="673"/>
      <point x="594" y="724"/>
      <point x="428" y="724" type="curve" smooth="yes"/>
      <point x="183" y="724"/>
      <point x="55" y="574"/>
      <point x="55" y="358" type="curve" smooth="yes"/>
      <point x="55" y="137"/>
      <point x="175" y="-10"/>
    </contour>
  </outline>
</glyph>
<glyph name="H" format="2">
  <advance width="721"/>
  <unicode hex="0048"/>
  <anchor x="359" y="0" name="bottom"/>
  <anchor x="361" y="357" name="center"/>
  <anchor x="361" y="714" name="top"/>
  <anchor x="701" y="714" name="topright"/>
  <outline>
    <contour>
      <point x="642" y="0" type="line"/>
      <point x="642" y="714" type="line"/>
      <point x="479" y="714" type="line"/>
      <point x="479" y="434" type="line"/>
      <point x="241" y="434" type="line"/>
      <point x="241" y="714" type="line"/>
      <point x="79" y="714" type="line"/>
      <point x="79" y="0" type="line"/>
      <point x="241" y="0" type="line"/>
      <point x="241" y="308" type="line"/>
      <point x="479" y="308" type="line"/>
      <point x="479" y="0" type="line"/>
    </contour>
  </outline>
</glyph>
<glyph name="I" format="2">
  <advance width="389"/>
  <unicode hex="0049"/>
  <anchor x="195" y="0" name="bottom"/>
  <anchor x="195" y="714" name="top"/>
  <anchor x="371" y="714" name="topright"/>
  <outline>
    <contour>
      <point x="358" y="0" type="line"/>
      <point x="358" y="86" type="line"/>
      <point x="276" y="126" type="line"/>
      <point x="276" y="588" type="line"/>
      <point x="358" y="628" type="line"/>
      <point x="358" y="714" type="line"/>
      <point x="31" y="714" type="line"/>
      <point x="31" y="628" type="line"/>
      <point x="114" y="588" type="line"/>
      <point x="114" y="126" type="line"/>
      <point x="31" y="86" type="line"/>
      <point x="31" y="0" type="line"/>
    </contour>
  </outline>
</glyph>
<glyph name="J" format="2">
  <advance width="321"/>
  <unicode hex="004A"/>
  <anchor x="17" y="-210" name="bottom"/>
  <anchor x="161" y="714" name="top"/>
  <anchor x="302" y="714" name="topright"/>
  <outline>
    <contour>
      <point x="17" y="-210" type="curve" smooth="yes"/>
      <point x="150" y="-210"/>
      <point x="242" y="-138"/>
      <point x="242" y="46" type="curve" smooth="yes"/>
      <point x="242" y="714" type="line"/>
      <point x="80" y="714" type="line"/>
      <point x="80" y="45" type="line" smooth="yes"/>
      <point x="80" y="-60"/>
      <point x="52" y="-83"/>
      <point x="-5" y="-83" type="curve" smooth="yes"/>
      <point x="-31" y="-83"/>
      <point x="-52" y="-78"/>
      <point x="-72" y="-73" type="curve"/>
      <point x="-72" y="-199" type="line"/>
      <point x="-51" y="-205"/>
      <point x="-22" y="-210"/>
    </contour>
  </outline>
</glyph>
<glyph name="J.serif" format="2">
  <advance width="397"/>
  <unicode hex="004A"/>
  <anchor x="112" y="-240" name="bottom"/>
  <anchor x="202" y="714" name="top"/>
  <anchor x="366" y="714" name="topright"/>
  <outline>
    <contour>
      <point x="-21" y="-240" type="line"/>
      <point x="15" y="-240" type="line" smooth="yes"/>
      <point x="152" y="-240"/>
      <point x="281" y="-183"/>
      <point x="281" y="-2" type="curve" smooth="yes"/>
      <point x="281" y="639" type="line" smooth="yes"/>
      <point x="281" y="696"/>
      <point x="304" y="704"/>
      <point x="333" y="704" type="curve" smooth="yes"/>
      <point x="375" y="704" type="line"/>
      <point x="375" y="714" type="line"/>
      <point x="30" y="714" type="line"/>
      <point x="30" y="704" type="line"/>
      <point x="72" y="704" type="line" smooth="yes"/>
      <point x="100" y="704"/>
      <point x="123" y="696"/>
      <point x="123" y="643" type="curve" smooth="yes"/>
      <point x="123" y="-51" type="line" smooth="yes"/>
      <point x="123" y="-185"/>
      <point x="61" y="-230"/>
      <point x="-3" y="-230" type="curve" smooth="yes"/>
      <point x="-21" y="-230" type="line"/>
    </contour>
  </outline>
</glyph>
<glyph name="K" format="2">
  <advance width="635"/>
  <unicode hex="004B"/>
  <anchor x="333" y="0" name="bottom"/>
  <anchor x="336" y="714" name="top"/>
  <anchor x="617" y="714" name="topright"/>
  <outline>
    <contour>
      <point x="635" y="0" type="line"/>
      <point x="414" y="398" type="line"/>
      <point x="636" y="714" type="line"/>
      <point x="458" y="714" type="line"/>
      <point x="297" y="471" type="line"/>
      <point x="278" y="443"/>
      <point x="258" y="415"/>
      <point x="241" y="387" type="curve"/>
      <point x="241" y="714" type="line"/>
      <point x="79" y="714" type="line"/>
      <point x="79" y="0" type="line"/>
      <point x="241" y="0" type="line"/>
      <point x="241" y="255" type="line"/>
      <point x="298" y="301" type="line"/>
      <point x="452" y="0" type="line"/>
    </contour>
  </outline>
</glyph>
<glyph name="K.serif" format="2">
  <advance width="734"/>
  <unicode hex="004B"/>
  <anchor x="398" y="0" name="bottom"/>
  <anchor x="404" y="714" name="top"/>
  <anchor x="714" y="714" name="topright"/>
  <outline>
    <contour>
      <point x="28" y="0" type="line"/>
      <point x="373" y="0" type="line"/>
      <point x="373" y="10" type="line"/>
      <point x="331" y="10" type="line" smooth="yes"/>
      <point x="302" y="10"/>
      <point x="279" y="18"/>
      <point x="279" y="75" type="curve" smooth="yes"/>
      <point x="279" y="312" type="line"/>
      <point x="309" y="344" type="line"/>
      <point x="457" y="92" type="line" smooth="yes"/>
      <point x="495" y="28"/>
      <point x="527" y="0"/>
      <point x="680" y="0" type="curve" smooth="yes"/>
      <point x="734" y="0" type="line"/>
      <point x="734" y="10" type="line"/>
      <point x="732" y="10" type="line" smooth="yes"/>
      <point x="702" y="10"/>
      <point x="680" y="33"/>
      <point x="616" y="134" type="curve" smooth="yes"/>
      <point x="413" y="456" type="line"/>
      <point x="561" y="616" type="line" smooth="yes"/>
      <point x="637" y="698"/>
      <point x="662" y="704"/>
      <point x="716" y="704" type="curve"/>
      <point x="716" y="714" type="line"/>
      <point x="469" y="714" type="line"/>
      <point x="469" y="704" type="line"/>
      <point x="545" y="704"/>
      <point x="569" y="696"/>
      <point x="569" y="669" type="curve" smooth="yes"/>
      <point x="569" y="648"/>
      <point x="548" y="618"/>
      <point x="508" y="574" type="curve" smooth="yes"/>
      <point x="279" y="327" type="line"/>
      <point x="279" y="639" type="line" smooth="yes"/>
      <point x="279" y="696"/>
      <point x="302" y="704"/>
      <point x="331" y="704" type="curve" smooth="yes"/>
      <point x="373" y="704" type="line"/>
      <point x="373" y="714" type="line"/>
      <point x="28" y="714" type="line"/>
      <point x="28" y="704" type="line"/>
      <point x="70" y="704" type="line" smooth="yes"/>
      <point x="98" y="704"/>
      <point x="121" y="696"/>
      <point x="121" y="643" type="curve" smooth="yes"/>
      <point x="121" y="70" type="line" smooth="yes"/>
      <point x="121" y="17"/>
      <point x="98" y="10"/>
      <point x="70" y="10" type="curve" smooth="yes"/>
      <point x="28" y="10" type="line"/>
    </contour>
  </outline>
</glyph>
<glyph name="L" format="2">
  <advance width="539"/>
  <unicode hex="004C"/>
  <anchor x="290" y="0" name="bottom"/>
  <anchor x="270" y="357" name="center"/>
  <anchor x="157" y="714" name="top"/>
  <anchor x="353" y="714" name="topright"/>
  <outline>
    <contour>
      <point x="79" y="0" type="line"/>
      <point x="506" y="0" type="line"/>
      <point x="506" y="125" type="line"/>
      <point x="241" y="125" type="line"/>
      <point x="241" y="714" type="line"/>
      <point x="79" y="714" type="line"/>
    </contour>
  </outline>
</glyph>
<glyph name="L.serif" format="2">
  <advance width="654"/>
  <unicode hex="004C"/>
  <anchor x="327" y="0" name="bottom"/>
  <anchor x="196" y="357" name="center"/>
  <anchor x="203" y="714" name="top"/>
  <anchor x="634" y="714" name="topright"/>
  <outline>
    <contour>
      <point x="28" y="0" type="line"/>
      <point x="613" y="0" type="line"/>
      <point x="621" y="223" type="line"/>
      <point x="611" y="223" type="line"/>
      <point x="607" y="170" type="line" smooth="yes"/>
      <point x="599" y="55"/>
      <point x="548" y="10"/>
      <point x="427" y="10" type="curve" smooth="yes"/>
      <point x="280" y="10" type="line"/>
      <point x="280" y="643" type="line" smooth="yes"/>
      <point x="280" y="696"/>
      <point x="303" y="704"/>
      <point x="331" y="704" type="curve" smooth="yes"/>
      <point x="373" y="704" type="line"/>
      <point x="373" y="714" type="line"/>
      <point x="28" y="714" type="line"/>
      <point x="28" y="704" type="line"/>
      <point x="70" y="704" type="line" smooth="yes"/>
      <point x="99" y="704"/>
      <point x="121" y="696"/>
      <point x="121" y="639" type="curve" smooth="yes"/>
      <point x="121" y="75" type="line" smooth="yes"/>
      <point x="121" y="18"/>
      <point x="99" y="10"/>
      <point x="70" y="10" type="curve" smooth="yes"/>
      <point x="28" y="10" type="line"/>
    </contour>
  </outline>
</glyph>
<glyph name="M.serif" format="2">
  <advance width="952"/>
  <unicode hex="004D"/>
  <anchor x="477" y="0" name="bottom"/>
  <anchor x="476" y="714" name="top"/>
  <anchor x="932" y="714" name="topright"/>
  <outline>
    <contour>
      <point x="28" y="0" type="line"/>
      <point x="276" y="0" type="line"/>
      <point x="276" y="10" type="line"/>
      <point x="236" y="10" type="line" smooth="yes"/>
      <point x="189" y="10"/>
      <point x="162" y="18"/>
      <point x="162" y="75" type="curve" smooth="yes"/>
      <point x="162" y="672" type="line"/>
      <point x="417" y="0" type="line"/>
      <point x="465" y="0" type="line"/>
      <point x="677" y="677" type="line"/>
      <point x="677" y="66" type="line" smooth="yes"/>
      <point x="677" y="17"/>
      <point x="656" y="10"/>
      <point x="614" y="10" type="curve" smooth="yes"/>
      <point x="604" y="10" type="line"/>
      <point x="604" y="0" type="line"/>
      <point x="924" y="0" type="line"/>
      <point x="924" y="10" type="line"/>
      <point x="882" y="10" type="line" smooth="yes"/>
      <point x="853" y="10"/>
      <point x="831" y="18"/>
      <point x="831" y="75" type="curve" smooth="yes"/>
      <point x="831" y="639" type="line" smooth="yes"/>
      <point x="831" y="696"/>
      <point x="853" y="704"/>
      <point x="882" y="704" type="curve" smooth="yes"/>
      <point x="924" y="704" type="line"/>
      <point x="924" y="714" type="line"/>
      <point x="678" y="714" type="line"/>
      <point x="508" y="169" type="line"/>
      <point x="301" y="714" type="line"/>
      <point x="28" y="714" type="line"/>
      <point x="28" y="704" type="line"/>
      <point x="101" y="704" type="line" smooth="yes"/>
      <point x="129" y="704"/>
      <point x="152" y="696"/>
      <point x="152" y="643" type="curve" smooth="yes"/>
      <point x="152" y="70" type="line" smooth="yes"/>
      <point x="152" y="17"/>
      <point x="129" y="10"/>
      <point x="101" y="10" type="curve" smooth="yes"/>
      <point x="28" y="10" type="line"/>
    </contour>
  </outline>
</glyph>
<glyph name="N" format="2">
  <advance width="775"/>
  <unicode hex="004E"/>
  <anchor x="388" y="0" name="bottom"/>
  <anchor x="388" y="714" name="top"/>
  <anchor x="756" y="714" name="topright"/>
  <outline>
    <contour>
      <point x="696" y="0" type="line"/>
      <point x="696" y="714" type="line"/>
      <point x="551" y="714" type="line"/>
      <point x="551" y="376" type="line"/>
      <point x="552" y="310"/>
      <point x="557" y="245"/>
      <point x="558" y="179" type="curve"/>
      <point x="555" y="179" type="line"/>
      <point x="287" y="714" type="line"/>
      <point x="79" y="714" type="line"/>
      <point x="79" y="0" type="line"/>
      <point x="223" y="0" type="line"/>
      <point x="223" y="336" type="line"/>
      <point x="221" y="404"/>
      <point x="216" y="472"/>
      <point x="214" y="540" type="curve"/>
      <point x="218" y="540" type="line"/>
      <point x="487" y="0" type="line"/>
    </contour>
  </outline>
</glyph>
<glyph name="N.serif" format="2">
  <advance width="788"/>
  <unicode hex="004E"/>
  <anchor x="394" y="0" name="bottom"/>
  <anchor x="394" y="714" name="top"/>
  <anchor x="768" y="714" name="topright"/>
  <outline>
    <contour>
      <point x="28" y="0" type="line"/>
      <point x="289" y="0" type="line"/>
      <point x="289" y="10" type="line"/>
      <point x="202" y="10" type="line" smooth="yes"/>
      <point x="174" y="10"/>
      <point x="151" y="18"/>
      <point x="151" y="75" type="curve" smooth="yes"/>
      <point x="151" y="662" type="line"/>
      <point x="586" y="0" type="line"/>
      <point x="646" y="0" type="line"/>
      <point x="646" y="639" type="line" smooth="yes"/>
      <point x="646" y="696"/>
      <point x="669" y="704"/>
      <point x="697" y="704" type="curve" smooth="yes"/>
      <point x="771" y="704" type="line"/>
      <point x="771" y="714" type="line"/>
      <point x="510" y="714" type="line"/>
      <point x="510" y="704" type="line"/>
      <point x="585" y="704" type="line" smooth="yes"/>
      <point x="612" y="704"/>
      <point x="636" y="696"/>
      <point x="636" y="643" type="curve" smooth="yes"/>
      <point x="636" y="175" type="line"/>
      <point x="282" y="714" type="line"/>
      <point x="28" y="714" type="line"/>
      <point x="28" y="704" type="line"/>
      <point x="90" y="704" type="line" smooth="yes"/>
      <point x="117" y="704"/>
      <point x="141" y="696"/>
      <point x="141" y="643" type="curve" smooth="yes"/>
      <point x="141" y="75" type="line" smooth="yes"/>
      <point x="141" y="18"/>
      <point x="118" y="10"/>
      <point x="90" y="10" type="curve" smooth="yes"/>
      <point x="28" y="10" type="line"/>
    </contour>
  </outline>
</glyph>
<glyph name="O" format="2">
  <advance width="749"/>
  <unicode hex="004F"/>
  <anchor x="374" y="0" name="bottom"/>
  <anchor x="374" y="357" name="center"/>
  <anchor x="374" y="725" name="top"/>
  <anchor x="730" y="725" name="topright"/>
  <outline>
    <contour>
      <point x="697" y="358" type="curve" smooth="yes"/>
      <point x="697" y="580"/>
      <point x="599" y="725"/>
      <point x="375" y="725" type="curve" smooth="yes"/>
      <point x="152" y="725"/>
      <point x="51" y="580"/>
      <point x="51" y="359" type="curve" smooth="yes"/>
      <point x="51" y="137"/>
      <point x="152" y="-10"/>
      <point x="374" y="-10" type="curve" smooth="yes"/>
      <point x="599" y="-10"/>
      <point x="697" y="137"/>
    </contour>
    <contour>
      <point x="221" y="358" type="curve" smooth="yes"/>
      <point x="221" y="508"/>
      <point x="265" y="599"/>
      <point x="375" y="599" type="curve" smooth="yes"/>
      <point x="484" y="599"/>
      <point x="527" y="508"/>
      <point x="527" y="358" type="curve" smooth="yes"/>
      <point x="527" y="208"/>
      <point x="484" y="117"/>
      <point x="374" y="117" type="curve" smooth="yes"/>
      <point x="266" y="117"/>
      <point x="221" y="208"/>
    </contour>
  </outline>
</glyph>
<glyph name="O.serif" format="2">
  <advance width="787"/>
  <unicode hex="004F"/>
  <anchor x="394" y="0" name="bottom"/>
  <anchor x="394" y="357" name="center"/>
  <anchor x="394" y="714" name="top"/>
  <anchor x="767" y="714" name="topright"/>
  <outline>
    <contour>
      <point x="394" y="-10" type="curve" smooth="yes"/>
      <point x="611" y="-10"/>
      <point x="732" y="137"/>
      <point x="732" y="358" type="curve" smooth="yes"/>
      <point x="732" y="580"/>
      <point x="611" y="725"/>
      <point x="395" y="725" type="curve" smooth="yes"/>
      <point x="166" y="725"/>
      <point x="55" y="580"/>
      <point x="55" y="359" type="curve" smooth="yes"/>
      <point x="55" y="137"/>
      <point x="166" y="-10"/>
    </contour>
    <contour>
      <point x="394" y="0" type="curve" smooth="yes"/>
      <point x="274" y="0"/>
      <point x="223" y="107"/>
      <point x="223" y="358" type="curve" smooth="yes"/>
      <point x="223" y="608"/>
      <point x="275" y="715"/>
      <point x="395" y="715" type="curve" smooth="yes"/>
      <point x="513" y="715"/>
      <point x="564" y="608"/>
      <point x="564" y="358" type="curve" smooth="yes"/>
      <point x="564" y="107"/>
      <point x="513" y="0"/>
    </contour>
  </outline>
</glyph>
<glyph name="P" format="2">
  <advance width="593"/>
  <unicode hex="0050"/>
  <anchor x="297" y="0" name="bottom"/>
  <anchor x="306" y="714" name="top"/>
  <anchor x="574" y="714" name="topright"/>
  <outline>
    <contour>
      <point x="302" y="714" type="curve"/>
      <point x="79" y="714" type="line"/>
      <point x="79" y="0" type="line"/>
      <point x="241" y="0" type="line"/>
      <point x="241" y="254" type="line"/>
      <point x="297" y="254" type="line"/>
      <point x="490" y="254"/>
      <point x="554" y="366"/>
      <point x="554" y="491" type="curve"/>
      <point x="554" y="630"/>
      <point x="474" y="714"/>
    </contour>
    <contour>
      <point x="297" y="590" type="line"/>
      <point x="361" y="590"/>
      <point x="392" y="556"/>
      <point x="392" y="486" type="curve" smooth="yes"/>
      <point x="392" y="410"/>
      <point x="346" y="378"/>
      <point x="282" y="378" type="curve"/>
      <point x="241" y="378" type="line"/>
      <point x="241" y="590" type="line"/>
    </contour>
  </outline>
</glyph>
<glyph name="P.serif" format="2">
  <advance width="638"/>
  <unicode hex="0050"/>
  <anchor x="200" y="0" name="bottom"/>
  <anchor x="319" y="714" name="top"/>
  <anchor x="628" y="714" name="topright"/>
  <outline>
    <contour>
      <point x="28" y="0" type="line"/>
      <point x="393" y="0" type="line"/>
      <point x="393" y="10" type="line"/>
      <point x="332" y="10" type="line" smooth="yes"/>
      <point x="304" y="10"/>
      <point x="279" y="17"/>
      <point x="279" y="70" type="curve" smooth="yes"/>
      <point x="279" y="273" type="line"/>
      <point x="313" y="273" type="line" smooth="yes"/>
      <point x="529" y="273"/>
      <point x="608" y="382"/>
      <point x="608" y="502" type="curve" smooth="yes"/>
      <point x="608" y="633"/>
      <point x="520" y="714"/>
      <point x="335" y="714" type="curve" smooth="yes"/>
      <point x="28" y="714" type="line"/>
      <point x="28" y="704" type="line"/>
      <point x="70" y="704" type="line" smooth="yes"/>
      <point x="98" y="704"/>
      <point x="121" y="696"/>
      <point x="121" y="643" type="curve" smooth="yes"/>
      <point x="121" y="75" type="line" smooth="yes"/>
      <point x="121" y="18"/>
      <point x="99" y="10"/>
      <point x="70" y="10" type="curve" smooth="yes"/>
      <point x="28" y="10" type="line"/>
    </contour>
    <contour>
      <point x="303" y="283" type="curve" smooth="yes"/>
      <point x="279" y="283" type="line"/>
      <point x="279" y="704" type="line"/>
      <point x="318" y="704" type="line" smooth="yes"/>
      <point x="406" y="704"/>
      <point x="440" y="645"/>
      <point x="440" y="494" type="curve" smooth="yes"/>
      <point x="440" y="342"/>
      <point x="402" y="283"/>
    </contour>
  </outline>
</glyph>
<glyph name="Q.serif" format="2">
  <advance width="787"/>
  <unicode hex="0051"/>
  <anchor x="394" y="-240" name="bottom"/>
  <anchor x="394" y="714" name="top"/>
  <anchor x="767" y="714" name="topright"/>
  <outline>
    <contour>
      <point x="577" y="-240" type="curve" smooth="yes"/>
      <point x="649" y="-240" type="line"/>
      <point x="649" y="-230" type="line"/>
      <point x="633" y="-230" type="line" smooth="yes"/>
      <point x="532" y="-230"/>
      <point x="489" y="-161"/>
      <point x="489" y="1" type="curve"/>
      <point x="646" y="38"/>
      <point x="732" y="172"/>
      <point x="732" y="358" type="curve" smooth="yes"/>
      <point x="732" y="580"/>
      <point x="611" y="725"/>
      <point x="395" y="725" type="curve" smooth="yes"/>
      <point x="166" y="725"/>
      <point x="55" y="580"/>
      <point x="55" y="359" type="curve" smooth="yes"/>
      <point x="55" y="162"/>
      <point x="143" y="24"/>
      <point x="322" y="-5" type="curve"/>
      <point x="335" y="-173"/>
      <point x="457" y="-240"/>
    </contour>
    <contour>
      <point x="394" y="0" type="curve" smooth="yes"/>
      <point x="274" y="0"/>
      <point x="223" y="107"/>
      <point x="223" y="358" type="curve" smooth="yes"/>
      <point x="223" y="608"/>
      <point x="275" y="715"/>
      <point x="395" y="715" type="curve" smooth="yes"/>
      <point x="513" y="715"/>
      <point x="564" y="608"/>
      <point x="564" y="358" type="curve" smooth="yes"/>
      <point x="564" y="107"/>
      <point x="513" y="0"/>
    </contour>
  </outline>
</glyph>
<glyph name="R" format="2">
  <advance width="628"/>
  <unicode hex="0052"/>
  <anchor x="335" y="0" name="bottom"/>
  <anchor x="319" y="714" name="top"/>
  <anchor x="610" y="714" name="topright"/>
  <outline>
    <contour>
      <point x="287" y="714" type="curve" smooth="yes"/>
      <point x="79" y="714" type="line"/>
      <point x="79" y="0" type="line"/>
      <point x="241" y="0" type="line"/>
      <point x="241" y="274" type="line"/>
      <point x="302" y="274" type="line"/>
      <point x="453" y="0" type="line"/>
      <point x="634" y="0" type="line"/>
      <point x="438" y="311" type="line"/>
      <point x="506" y="343"/>
      <point x="557" y="402"/>
      <point x="557" y="500" type="curve" smooth="yes"/>
      <point x="557" y="644"/>
      <point x="469" y="714"/>
    </contour>
    <contour>
      <point x="280" y="590" type="line"/>
      <point x="359" y="590"/>
      <point x="394" y="564"/>
      <point x="394" y="496" type="curve" smooth="yes"/>
      <point x="394" y="431"/>
      <point x="355" y="397"/>
      <point x="281" y="397" type="curve" smooth="yes"/>
      <point x="241" y="397" type="line"/>
      <point x="241" y="590" type="line"/>
    </contour>
  </outline>
</glyph>
<glyph name="R.serif" format="2">
  <advance width="707"/>
  <unicode hex="0052"/>
  <anchor x="397" y="0" name="bottom"/>
  <anchor x="354" y="714" name="top"/>
  <anchor x="687" y="714" name="topright"/>
  <outline>
    <contour>
      <point x="28" y="0" type="line"/>
      <point x="373" y="0" type="line"/>
      <point x="373" y="10" type="line"/>
      <point x="330" y="10" type="line" smooth="yes"/>
      <point x="303" y="10"/>
      <point x="279" y="17"/>
      <point x="279" y="70" type="curve" smooth="yes"/>
      <point x="279" y="334" type="line"/>
      <point x="326" y="334" type="line"/>
      <point x="455" y="98" type="line" smooth="yes"/>
      <point x="501" y="15"/>
      <point x="558" y="0"/>
      <point x="678" y="0" type="curve" smooth="yes"/>
      <point x="711" y="0" type="line"/>
      <point x="711" y="10" type="line"/>
      <point x="709" y="10" type="line" smooth="yes"/>
      <point x="680" y="10"/>
      <point x="662" y="23"/>
      <point x="587" y="151" type="curve" smooth="yes"/>
      <point x="476" y="340" type="line"/>
      <point x="555" y="367"/>
      <point x="624" y="423"/>
      <point x="624" y="529" type="curve" smooth="yes"/>
      <point x="624" y="649"/>
      <point x="539" y="714"/>
      <point x="350" y="714" type="curve" smooth="yes"/>
      <point x="28" y="714" type="line"/>
      <point x="28" y="704" type="line"/>
      <point x="70" y="704" type="line" smooth="yes"/>
      <point x="97" y="704"/>
      <point x="121" y="696"/>
      <point x="121" y="643" type="curve" smooth="yes"/>
      <point x="121" y="70" type="line" smooth="yes"/>
      <point x="121" y="17"/>
      <point x="97" y="10"/>
      <point x="70" y="10" type="curve" smooth="yes"/>
      <point x="28" y="10" type="line"/>
    </contour>
    <contour>
      <point x="335" y="344" type="curve" smooth="yes"/>
      <point x="279" y="344" type="line"/>
      <point x="279" y="704" type="line"/>
      <point x="333" y="704" type="line" smooth="yes"/>
      <point x="419" y="704"/>
      <point x="456" y="650"/>
      <point x="456" y="524" type="curve" smooth="yes"/>
      <point x="456" y="398"/>
      <point x="420" y="344"/>
    </contour>
  </outline>
</glyph>
<glyph name="S" format="2">
  <advance width="529"/>
  <unicode hex="0053"/>
  <anchor x="261" y="0" name="bottom"/>
  <anchor x="269" y="714" name="top"/>
  <anchor x="511" y="714" name="topright"/>
  <outline>
    <contour>
      <point x="495" y="198" type="curve"/>
      <point x="495" y="310"/>
      <point x="437" y="360"/>
      <point x="337" y="410" type="curve" smooth="yes"/>
      <point x="246" y="456"/>
      <point x="207" y="475"/>
      <point x="207" y="526" type="curve" smooth="yes"/>
      <point x="207" y="569"/>
      <point x="233" y="598"/>
      <point x="283" y="598" type="curve" smooth="yes"/>
      <point x="332" y="598"/>
      <point x="384" y="583"/>
      <point x="443" y="556" type="curve"/>
      <point x="494" y="674" type="line"/>
      <point x="432" y="706"/>
      <point x="367" y="724"/>
      <point x="288" y="724" type="curve" smooth="yes"/>
      <point x="143" y="724"/>
      <point x="48" y="649"/>
      <point x="48" y="521" type="curve" smooth="yes"/>
      <point x="48" y="391"/>
      <point x="128" y="340"/>
      <point x="209" y="306" type="curve" smooth="yes"/>
      <point x="291" y="272"/>
      <point x="335" y="244"/>
      <point x="335" y="191" type="curve" smooth="yes"/>
      <point x="335" y="147"/>
      <point x="309" y="115"/>
      <point x="248" y="115" type="curve" smooth="yes"/>
      <point x="184" y="115"/>
      <point x="110" y="144"/>
      <point x="42" y="174" type="curve"/>
      <point x="42" y="33" type="line"/>
      <point x="101" y="5"/>
      <point x="160" y="-10"/>
      <point x="240" y="-10" type="curve" smooth="yes"/>
      <point x="411" y="-10"/>
      <point x="495" y="71"/>
    </contour>
  </outline>
</glyph>
<glyph name="S.serif" format="2">
  <advance width="586"/>
  <unicode hex="0053"/>
  <anchor x="267" y="-10" name="bottom"/>
  <anchor x="293" y="714" name="top"/>
  <anchor x="566" y="714" name="topright"/>
  <outline>
    <contour>
      <point x="255" y="-10" type="curve" smooth="yes"/>
      <point x="435" y="-10"/>
      <point x="536" y="80"/>
      <point x="536" y="209" type="curve" smooth="yes"/>
      <point x="536" y="307"/>
      <point x="482" y="365"/>
      <point x="344" y="421" type="curve" smooth="yes"/>
      <point x="210" y="475"/>
      <point x="165" y="519"/>
      <point x="165" y="596" type="curve" smooth="yes"/>
      <point x="165" y="687"/>
      <point x="225" y="712"/>
      <point x="277" y="712" type="curve" smooth="yes"/>
      <point x="356" y="712"/>
      <point x="385" y="654"/>
      <point x="385" y="525" type="curve"/>
      <point x="467" y="525"/>
      <point x="508" y="561"/>
      <point x="508" y="609" type="curve" smooth="yes"/>
      <point x="508" y="673"/>
      <point x="435" y="724"/>
      <point x="308" y="724" type="curve" smooth="yes"/>
      <point x="147" y="724"/>
      <point x="50" y="645"/>
      <point x="50" y="523" type="curve" smooth="yes"/>
      <point x="50" y="425"/>
      <point x="97" y="362"/>
      <point x="237" y="305" type="curve" smooth="yes"/>
      <point x="349" y="259"/>
      <point x="414" y="221"/>
      <point x="414" y="128" type="curve" smooth="yes"/>
      <point x="414" y="42"/>
      <point x="357" y="0"/>
      <point x="277" y="0" type="curve" smooth="yes"/>
      <point x="199" y="0"/>
      <point x="143" y="39"/>
      <point x="143" y="223" type="curve"/>
      <point x="85" y="223"/>
      <point x="30" y="198"/>
      <point x="30" y="133" type="curve" smooth="yes"/>
      <point x="30" y="65"/>
      <point x="90" y="-10"/>
    </contour>
  </outline>
</glyph>
<glyph name="T" format="2">
  <advance width="550"/>
  <unicode hex="0054"/>
  <anchor x="275" y="0" name="bottom"/>
  <anchor x="275" y="357" name="center"/>
  <anchor x="275" y="714" name="top"/>
  <anchor x="531" y="714" name="topright"/>
  <outline>
    <contour>
      <point x="356" y="0" type="line"/>
      <point x="356" y="588" type="line"/>
      <point x="529" y="588" type="line"/>
      <point x="529" y="714" type="line"/>
      <point x="21" y="714" type="line"/>
      <point x="21" y="588" type="line"/>
      <point x="194" y="588" type="line"/>
      <point x="194" y="0" type="line"/>
    </contour>
  </outline>
</glyph>
<glyph name="U" format="2">
  <advance width="711"/>
  <unicode hex="0055"/>
  <anchor x="354" y="0" name="bottom"/>
  <anchor x="356" y="714" name="top"/>
  <anchor x="692" y="714" name="topright"/>
  <outline>
    <contour>
      <point x="637" y="252" type="curve" smooth="yes"/>
      <point x="637" y="714" type="line"/>
      <point x="475" y="714" type="line"/>
      <point x="475" y="278" type="line" smooth="yes"/>
      <point x="475" y="167"/>
      <point x="440" y="117"/>
      <point x="356" y="117" type="curve" smooth="yes"/>
      <point x="277" y="117"/>
      <point x="236" y="159"/>
      <point x="236" y="277" type="curve" smooth="yes"/>
      <point x="236" y="714" type="line"/>
      <point x="74" y="714" type="line"/>
      <point x="74" y="254" type="line" smooth="yes"/>
      <point x="74" y="95"/>
      <point x="171" y="-10"/>
      <point x="353" y="-10" type="curve" smooth="yes"/>
      <point x="543" y="-10"/>
      <point x="637" y="104"/>
    </contour>
  </outline>
</glyph>
<glyph name="U.serif" format="2">
  <advance width="747"/>
  <unicode hex="0055"/>
  <anchor x="374" y="0" name="bottom"/>
  <anchor x="419" y="714" name="top"/>
  <anchor x="747" y="714" name="topright"/>
  <outline>
    <contour>
      <point x="387" y="-10" type="curve" smooth="yes"/>
      <point x="542" y="-10"/>
      <point x="627" y="63"/>
      <point x="627" y="206" type="curve" smooth="yes"/>
      <point x="627" y="639" type="line" smooth="yes"/>
      <point x="627" y="696"/>
      <point x="650" y="704"/>
      <point x="678" y="704" type="curve" smooth="yes"/>
      <point x="731" y="704" type="line"/>
      <point x="731" y="714" type="line"/>
      <point x="504" y="714" type="line"/>
      <point x="504" y="704" type="line"/>
      <point x="566" y="704" type="line" smooth="yes"/>
      <point x="594" y="704"/>
      <point x="617" y="696"/>
      <point x="617" y="643" type="curve" smooth="yes"/>
      <point x="617" y="206" type="line" smooth="yes"/>
      <point x="617" y="81"/>
      <point x="544" y="5"/>
      <point x="417" y="5" type="curve" smooth="yes"/>
      <point x="326" y="5"/>
      <point x="268" y="42"/>
      <point x="268" y="154" type="curve" smooth="yes"/>
      <point x="268" y="639" type="line" smooth="yes"/>
      <point x="268" y="696"/>
      <point x="291" y="704"/>
      <point x="319" y="704" type="curve" smooth="yes"/>
      <point x="361" y="704" type="line"/>
      <point x="361" y="714" type="line"/>
      <point x="16" y="714" type="line"/>
      <point x="16" y="704" type="line"/>
      <point x="59" y="704" type="line" smooth="yes"/>
      <point x="86" y="704"/>
      <point x="110" y="696"/>
      <point x="110" y="643" type="curve" smooth="yes"/>
      <point x="110" y="218" type="line" smooth="yes"/>
      <point x="110" y="54"/>
      <point x="213" y="-10"/>
    </contour>
  </outline>
</glyph>
<glyph name="V" format="2">
  <advance width="632"/>
  <unicode hex="0056"/>
  <anchor x="313" y="0" name="bottom"/>
  <anchor x="316" y="714" name="top"/>
  <anchor x="613" y="714" name="topright"/>
  <outline>
    <contour>
      <point x="632" y="714" type="line"/>
      <point x="458" y="714" type="line"/>
      <point x="348" y="289" type="line" smooth="yes"/>
      <point x="342" y="264"/>
      <point x="321" y="175"/>
      <point x="316" y="132" type="curve"/>
      <point x="312" y="175"/>
      <point x="289" y="267"/>
      <point x="283" y="289" type="curve" smooth="yes"/>
      <point x="173" y="714" type="line"/>
      <point x="0" y="714" type="line"/>
      <point x="223" y="0" type="line"/>
      <point x="407" y="0" type="line"/>
    </contour>
  </outline>
</glyph>
<glyph name="V.serif" format="2">
  <advance width="698"/>
  <unicode hex="0056"/>
  <anchor x="349" y="0" name="bottom"/>
  <anchor x="389" y="714" name="top"/>
  <anchor x="718" y="714" name="topright"/>
  <outline>
    <contour>
      <point x="70" y="656" type="curve" smooth="yes"/>
      <point x="298" y="0" type="line"/>
      <point x="398" y="0" type="line"/>
      <point x="589" y="631" type="line" smooth="yes"/>
      <point x="606" y="686"/>
      <point x="627" y="704"/>
      <point x="668" y="704" type="curve" smooth="yes"/>
      <point x="698" y="704" type="line"/>
      <point x="698" y="714" type="line"/>
      <point x="460" y="714" type="line"/>
      <point x="460" y="704" type="line"/>
      <point x="527" y="704" type="line" smooth="yes"/>
      <point x="568" y="704"/>
      <point x="585" y="694"/>
      <point x="585" y="668" type="curve" smooth="yes"/>
      <point x="585" y="656"/>
      <point x="581" y="641"/>
      <point x="575" y="621" type="curve" smooth="yes"/>
      <point x="458" y="233" type="line" smooth="yes"/>
      <point x="444" y="187"/>
      <point x="428" y="132"/>
      <point x="415" y="86" type="curve"/>
      <point x="400" y="139"/>
      <point x="378" y="210"/>
      <point x="356" y="277" type="curve" smooth="yes"/>
      <point x="239" y="628" type="line" smooth="yes"/>
      <point x="235" y="639"/>
      <point x="230" y="658"/>
      <point x="230" y="671" type="curve" smooth="yes"/>
      <point x="230" y="696"/>
      <point x="250" y="704"/>
      <point x="269" y="704" type="curve" smooth="yes"/>
      <point x="330" y="704" type="line"/>
      <point x="330" y="714" type="line"/>
      <point x="0" y="714" type="line"/>
      <point x="0" y="704" type="line"/>
      <point x="8" y="704" type="line" smooth="yes"/>
      <point x="28" y="704"/>
      <point x="57" y="694"/>
    </contour>
  </outline>
</glyph>
<glyph name="W" format="2">
  <advance width="943"/>
  <unicode hex="0057"/>
  <anchor x="471" y="0" name="bottom"/>
  <anchor x="472" y="714" name="top"/>
  <anchor x="924" y="714" name="topright"/>
  <outline>
    <contour>
      <point x="936" y="714" type="line"/>
      <point x="778" y="714" type="line"/>
      <point x="699" y="324" type="line" smooth="yes"/>
      <point x="689" y="277"/>
      <point x="671" y="186"/>
      <point x="665" y="137" type="curve"/>
      <point x="658" y="185"/>
      <point x="640" y="278"/>
      <point x="632" y="314" type="curve" smooth="yes"/>
      <point x="547" y="714" type="line"/>
      <point x="397" y="714" type="line"/>
      <point x="310" y="316" type="line" smooth="yes"/>
      <point x="302" y="279"/>
      <point x="285" y="187"/>
      <point x="277" y="137" type="curve"/>
      <point x="272" y="185"/>
      <point x="253" y="278"/>
      <point x="244" y="324" type="curve" smooth="yes"/>
      <point x="165" y="714" type="line"/>
      <point x="7" y="714" type="line"/>
      <point x="176" y="0" type="line"/>
      <point x="364" y="0" type="line"/>
      <point x="443" y="374" type="line" smooth="yes"/>
      <point x="450" y="406"/>
      <point x="468" y="506"/>
      <point x="472" y="542" type="curve"/>
      <point x="476" y="506"/>
      <point x="494" y="404"/>
      <point x="500" y="375" type="curve" smooth="yes"/>
      <point x="579" y="0" type="line"/>
      <point x="767" y="0" type="line"/>
    </contour>
  </outline>
</glyph>
<glyph name="W.serif" format="2">
  <advance width="1067"/>
  <unicode hex="0057"/>
  <anchor x="534" y="0" name="bottom"/>
  <anchor x="574" y="714" name="top"/>
  <anchor x="1087" y="714" name="topright"/>
  <outline>
    <contour>
      <point x="71" y="651" type="curve" smooth="yes"/>
      <point x="267" y="0" type="line"/>
      <point x="390" y="0" type="line"/>
      <point x="525" y="553" type="line"/>
      <point x="703" y="0" type="line"/>
      <point x="817" y="0" type="line"/>
      <point x="962" y="625" type="line" smooth="yes"/>
      <point x="976" y="685"/>
      <point x="995" y="704"/>
      <point x="1039" y="704" type="curve" smooth="yes"/>
      <point x="1067" y="704" type="line"/>
      <point x="1067" y="714" type="line"/>
      <point x="836" y="714" type="line"/>
      <point x="836" y="704" type="line"/>
      <point x="890" y="704" type="line" smooth="yes"/>
      <point x="936" y="704"/>
      <point x="955" y="691"/>
      <point x="955" y="655" type="curve" smooth="yes"/>
      <point x="955" y="641"/>
      <point x="952" y="624"/>
      <point x="947" y="603" type="curve" smooth="yes"/>
      <point x="881" y="320" type="line" smooth="yes"/>
      <point x="868" y="266"/>
      <point x="841" y="152"/>
      <point x="825" y="75" type="curve"/>
      <point x="809" y="134"/>
      <point x="775" y="256"/>
      <point x="752" y="325" type="curve" smooth="yes"/>
      <point x="624" y="707" type="line"/>
      <point x="552" y="707" type="line"/>
      <point x="423" y="178" type="line" smooth="yes"/>
      <point x="412" y="134"/>
      <point x="403" y="97"/>
      <point x="396" y="64" type="curve"/>
      <point x="371" y="171"/>
      <point x="352" y="246"/>
      <point x="328" y="328" type="curve" smooth="yes"/>
      <point x="248" y="602" type="line" smooth="yes"/>
      <point x="243" y="620"/>
      <point x="238" y="645"/>
      <point x="238" y="656" type="curve" smooth="yes"/>
      <point x="238" y="689"/>
      <point x="258" y="704"/>
      <point x="298" y="704" type="curve" smooth="yes"/>
      <point x="334" y="704" type="line"/>
      <point x="334" y="714" type="line"/>
      <point x="0" y="714" type="line"/>
      <point x="0" y="704" type="line"/>
      <point x="2" y="704" type="line" smooth="yes"/>
      <point x="39" y="704"/>
      <point x="58" y="693"/>
    </contour>
  </outline>
</glyph>
<glyph name="X" format="2">
  <advance width="653"/>
  <unicode hex="0058"/>
  <anchor x="327" y="0" name="bottom"/>
  <anchor x="324" y="714" name="top"/>
  <anchor x="634" y="714" name="topright"/>
  <outline>
    <contour>
      <point x="652" y="0" type="line"/>
      <point x="424" y="360" type="line"/>
      <point x="636" y="714" type="line"/>
      <point x="456" y="714" type="line"/>
      <point x="327" y="457" type="line"/>
      <point x="194" y="714" type="line"/>
      <point x="15" y="714" type="line"/>
      <point x="224" y="368" type="line"/>
      <point x="1" y="0" type="line"/>
      <point x="179" y="0" type="line"/>
      <point x="322" y="270" type="line"/>
      <point x="466" y="0" type="line"/>
    </contour>
  </outline>
</glyph>
<glyph name="X.serif" format="2">
  <advance width="732"/>
  <unicode hex="0058"/>
  <anchor x="356" y="0" name="bottom"/>
  <anchor x="406" y="714" name="top"/>
  <anchor x="722" y="714" name="topright"/>
  <outline>
    <contour>
      <point x="10" y="0" type="line"/>
      <point x="249" y="0" type="line"/>
      <point x="249" y="10" type="line"/>
      <point x="205" y="10" type="line" smooth="yes"/>
      <point x="159" y="10"/>
      <point x="137" y="18"/>
      <point x="137" y="39" type="curve" smooth="yes"/>
      <point x="137" y="53"/>
      <point x="147" y="73"/>
      <point x="166" y="100" type="curve" smooth="yes"/>
      <point x="320" y="314" type="line"/>
      <point x="442" y="112" type="line" smooth="yes"/>
      <point x="468" y="69"/>
      <point x="475" y="58"/>
      <point x="475" y="43" type="curve" smooth="yes"/>
      <point x="475" y="21"/>
      <point x="455" y="10"/>
      <point x="415" y="10" type="curve" smooth="yes"/>
      <point x="392" y="10" type="line"/>
      <point x="392" y="0" type="line"/>
      <point x="722" y="0" type="line"/>
      <point x="722" y="10" type="line"/>
      <point x="720" y="10" type="line" smooth="yes"/>
      <point x="683" y="10"/>
      <point x="664" y="27"/>
      <point x="611" y="115" type="curve" smooth="yes"/>
      <point x="427" y="419" type="line"/>
      <point x="581" y="633" type="line" smooth="yes"/>
      <point x="620" y="687"/>
      <point x="646" y="704"/>
      <point x="690" y="704" type="curve" smooth="yes"/>
      <point x="703" y="704" type="line"/>
      <point x="703" y="714" type="line"/>
      <point x="479" y="714" type="line"/>
      <point x="479" y="704" type="line"/>
      <point x="516" y="704" type="line" smooth="yes"/>
      <point x="562" y="704"/>
      <point x="584" y="696"/>
      <point x="584" y="675" type="curve" smooth="yes"/>
      <point x="584" y="661"/>
      <point x="574" y="641"/>
      <point x="555" y="614" type="curve" smooth="yes"/>
      <point x="421" y="428" type="line"/>
      <point x="308" y="616" type="line" smooth="yes"/>
      <point x="294" y="639"/>
      <point x="282" y="661"/>
      <point x="282" y="675" type="curve" smooth="yes"/>
      <point x="282" y="691"/>
      <point x="295" y="704"/>
      <point x="341" y="704" type="curve" smooth="yes"/>
      <point x="362" y="704" type="line"/>
      <point x="362" y="714" type="line"/>
      <point x="31" y="714" type="line"/>
      <point x="31" y="704" type="line"/>
      <point x="33" y="704" type="line" smooth="yes"/>
      <point x="72" y="704"/>
      <point x="92" y="691"/>
      <point x="116" y="651" type="curve" smooth="yes"/>
      <point x="314" y="324" type="line"/>
      <point x="140" y="82" type="line" smooth="yes"/>
      <point x="101" y="27"/>
      <point x="75" y="10"/>
      <point x="31" y="10" type="curve" smooth="yes"/>
      <point x="10" y="10" type="line"/>
    </contour>
  </outline>
</glyph>
<glyph name="Y" format="2">
  <advance width="605"/>
  <unicode hex="0059"/>
  <anchor x="303" y="0" name="bottom"/>
  <anchor x="303" y="714" name="top"/>
  <anchor x="586" y="714" name="topright"/>
  <outline>
    <contour>
      <point x="303" y="420" type="line"/>
      <point x="176" y="714" type="line"/>
      <point x="0" y="714" type="line"/>
      <point x="222" y="273" type="line"/>
      <point x="222" y="0" type="line"/>
      <point x="383" y="0" type="line"/>
      <point x="383" y="278" type="line"/>
      <point x="605" y="714" type="line"/>
      <point x="431" y="714" type="line"/>
    </contour>
  </outline>
</glyph>
<glyph name="Y.serif" format="2">
  <advance width="693"/>
  <unicode hex="0059"/>
  <anchor x="347" y="0" name="bottom"/>
  <anchor x="387" y="714" name="top"/>
  <anchor x="673" y="714" name="topright"/>
  <outline>
    <contour>
      <point x="164" y="0" type="line"/>
      <point x="533" y="0" type="line"/>
      <point x="533" y="10" type="line"/>
      <point x="484" y="10" type="line" smooth="yes"/>
      <point x="453" y="10"/>
      <point x="428" y="14"/>
      <point x="428" y="72" type="curve" smooth="yes"/>
      <point x="428" y="278" type="line"/>
      <point x="588" y="625" type="line" smooth="yes"/>
      <point x="616" y="685"/>
      <point x="634" y="704"/>
      <point x="664" y="704" type="curve" smooth="yes"/>
      <point x="693" y="704" type="line"/>
      <point x="693" y="714" type="line"/>
      <point x="441" y="714" type="line"/>
      <point x="441" y="704" type="line"/>
      <point x="512" y="704" type="line" smooth="yes"/>
      <point x="561" y="704"/>
      <point x="584" y="693"/>
      <point x="584" y="664" type="curve" smooth="yes"/>
      <point x="584" y="647"/>
      <point x="576" y="625"/>
      <point x="562" y="594" type="curve" smooth="yes"/>
      <point x="487" y="431" type="line" smooth="yes"/>
      <point x="466" y="386"/>
      <point x="443" y="336"/>
      <point x="422" y="286" type="curve"/>
      <point x="402" y="328"/>
      <point x="385" y="360"/>
      <point x="362" y="404" type="curve" smooth="yes"/>
      <point x="260" y="604" type="line" smooth="yes"/>
      <point x="246" y="632"/>
      <point x="239" y="653"/>
      <point x="239" y="669" type="curve" smooth="yes"/>
      <point x="239" y="695"/>
      <point x="260" y="704"/>
      <point x="305" y="704" type="curve" smooth="yes"/>
      <point x="335" y="704" type="line"/>
      <point x="335" y="714" type="line"/>
      <point x="0" y="714" type="line"/>
      <point x="0" y="704" type="line"/>
      <point x="12" y="704" type="line" smooth="yes"/>
      <point x="36" y="704"/>
      <point x="50" y="691"/>
      <point x="71" y="651" type="curve" smooth="yes"/>
      <point x="269" y="275" type="line"/>
      <point x="269" y="71" type="line" smooth="yes"/>
      <point x="269" y="14"/>
      <point x="243" y="10"/>
      <point x="211" y="10" type="curve" smooth="yes"/>
      <point x="164" y="10" type="line"/>
    </contour>
  </outline>
</glyph>
<glyph name="Z" format="2">
  <advance width="559"/>
  <unicode hex="005A"/>
  <anchor x="292" y="0" name="bottom"/>
  <anchor x="286" y="714" name="top"/>
  <anchor x="540" y="714" name="topright"/>
  <outline>
    <contour>
      <point x="536" y="0" type="line"/>
      <point x="536" y="125" type="line"/>
      <point x="222" y="125" type="line"/>
      <point x="528" y="616" type="line"/>
      <point x="528" y="714" type="line"/>
      <point x="33" y="714" type="line"/>
      <point x="33" y="589" type="line"/>
      <point x="331" y="589" type="line"/>
      <point x="25" y="98" type="line"/>
      <point x="25" y="0" type="line"/>
    </contour>
  </outline>
</glyph>
<glyph name="Z.serif" format="2">
  <advance width="666"/>
  <unicode hex="005A"/>
  <anchor x="333" y="0" name="bottom"/>
  <anchor x="333" y="714" name="top"/>
  <anchor x="646" y="714" name="topright"/>
  <outline>
    <contour>
      <point x="42" y="0" type="line"/>
      <point x="615" y="0" type="line"/>
      <point x="622" y="206" type="line"/>
      <point x="612" y="206" type="line"/>
      <point x="608" y="150" type="line" smooth="yes"/>
      <point x="600" y="49"/>
      <point x="556" y="10"/>
      <point x="448" y="10" type="curve" smooth="yes"/>
      <point x="213" y="10" type="line"/>
      <point x="600" y="704" type="line"/>
      <point x="600" y="714" type="line"/>
      <point x="68" y="714" type="line"/>
      <point x="61" y="508" type="line"/>
      <point x="72" y="508" type="line"/>
      <point x="75" y="564" type="line" smooth="yes"/>
      <point x="80" y="665"/>
      <point x="125" y="704"/>
      <point x="235" y="704" type="curve" smooth="yes"/>
      <point x="429" y="704" type="line"/>
      <point x="42" y="10" type="line"/>
    </contour>
  </outline>
</glyph>
<glyph name="bracketleft" format="2">
  <advance width="309"/>
  <unicode hex="005B"/>
  <outline>
    <contour>
      <point x="286" y="-158" type="line"/>
      <point x="286" y="-55" type="line"/>
      <point x="192" y="-55" type="line"/>
      <point x="192" y="611" type="line"/>
      <point x="286" y="611" type="line"/>
      <point x="286" y="714" type="line"/>
      <point x="60" y="714" type="line"/>
      <point x="60" y="-158" type="line"/>
    </contour>
  </outline>
</glyph>
<glyph name="bracketleft.serif" format="2">
  <advance width="414"/>
  <unicode hex="005B"/>
  <outline>
    <contour>
      <point x="100" y="-128" type="line"/>
      <point x="377" y="-128" type="line"/>
      <point x="377" y="-118" type="line"/>
      <point x="334" y="-118" type="line" smooth="yes"/>
      <point x="289" y="-118"/>
      <point x="252" y="-109"/>
      <point x="252" y="-46" type="curve" smooth="yes"/>
      <point x="252" y="678" type="line" smooth="yes"/>
      <point x="252" y="741"/>
      <point x="289" y="750"/>
      <point x="334" y="750" type="curve" smooth="yes"/>
      <point x="377" y="750" type="line"/>
      <point x="377" y="760" type="line"/>
      <point x="100" y="760" type="line"/>
    </contour>
  </outline>
</glyph>
<glyph name="backslash.serif" format="2">
  <advance width="226"/>
  <unicode hex="005C"/>
  <outline>
    <contour>
      <point x="216" y="-121" type="line"/>
      <point x="226" y="-121" type="line"/>
      <point x="9" y="760" type="line"/>
      <point x="0" y="760" type="line"/>
    </contour>
  </outline>
</glyph>
<glyph name="asciicircum" format="2">
  <advance width="516"/>
  <unicode hex="005E"/>
  <outline>
    <contour>
      <point x="7" y="254" type="line"/>
      <point x="127" y="254" type="line"/>
      <point x="248" y="568" type="line"/>
      <point x="388" y="254" type="line"/>
      <point x="511" y="254" type="line"/>
      <point x="281" y="718" type="line"/>
      <point x="209" y="718" type="line"/>
    </contour>
  </outline>
</glyph>
<glyph name="asciicircum.serif" format="2">
  <advance width="504"/>
  <unicode hex="005E"/>
  <outline>
    <contour>
      <point x="55" y="261" type="line"/>
      <point x="77" y="261" type="line"/>
      <point x="251" y="694" type="line"/>
      <point x="427" y="261" type="line"/>
      <point x="449" y="261" type="line"/>
      <point x="263" y="714" type="line"/>
      <point x="239" y="714" type="line"/>
    </contour>
  </outline>
</glyph>
<glyph name="grave" format="2">
  <advance width="371"/>
  <unicode hex="0060"/>
  <outline>
    <contour>
      <point x="217" y="766" type="curve"/>
      <point x="40" y="766" type="line"/>
      <point x="40" y="756" type="line"/>
      <point x="80" y="719"/>
      <point x="176" y="641"/>
      <point x="225" y="606" type="curve"/>
      <point x="331" y="606" type="line"/>
      <point x="331" y="619" type="line"/>
      <point x="301" y="656"/>
      <point x="247" y="721"/>
    </contour>
  </outline>
</glyph>
<glyph name="grave.serif" format="2">
  <advance width="294"/>
  <unicode hex="0060"/>
  <outline>
    <contour>
      <point x="244" y="606" type="curve"/>
      <point x="254" y="606" type="line"/>
      <point x="254" y="616" type="line"/>
      <point x="225" y="659"/>
      <point x="192" y="721"/>
      <point x="170" y="766" type="curve"/>
      <point x="40" y="766" type="line"/>
      <point x="40" y="756" type="line"/>
      <point x="75" y="721"/>
      <point x="181" y="646"/>
    </contour>
  </outline>
</glyph>
<glyph name="a" format="2">
  <advance width="577"/>
  <unicode hex="0061"/>
  <anchor x="249" y="0" name="bottom"/>
  <anchor x="289" y="557" name="top"/>
  <anchor x="537" y="557" name="topright"/>
  <outline>
    <contour>
      <point x="300" y="557" type="curve" smooth="yes"/>
      <point x="217" y="557"/>
      <point x="145" y="538"/>
      <point x="87" y="508" type="curve"/>
      <point x="136" y="407" type="line"/>
      <point x="185" y="430"/>
      <point x="235" y="447"/>
      <point x="281" y="447" type="curve" smooth="yes"/>
      <point x="325" y="447"/>
      <point x="352" y="421"/>
      <point x="352" y="364" type="curve" smooth="yes"/>
      <point x="352" y="340" type="line"/>
      <point x="264" y="337" type="line" smooth="yes"/>
      <point x="114" y="332"/>
      <point x="37" y="279"/>
      <point x="37" y="163" type="curve" smooth="yes"/>
      <point x="37" y="45"/>
      <point x="105" y="-10"/>
      <point x="195" y="-10" type="curve" smooth="yes"/>
      <point x="281" y="-10"/>
      <point x="322" y="15"/>
      <point x="366" y="74" type="curve"/>
      <point x="370" y="74" type="line"/>
      <point x="401" y="0" type="line"/>
      <point x="512" y="0" type="line"/>
      <point x="512" y="364" type="line" smooth="yes"/>
      <point x="512" y="494"/>
      <point x="435" y="557"/>
    </contour>
    <contour>
      <point x="305" y="251" type="curve" smooth="yes"/>
      <point x="353" y="253" type="line"/>
      <point x="353" y="208" type="line"/>
      <point x="353" y="138"/>
      <point x="311" y="99"/>
      <point x="260" y="99" type="curve" smooth="yes"/>
      <point x="224" y="99"/>
      <point x="200" y="116"/>
      <point x="200" y="162" type="curve" smooth="yes"/>
      <point x="200" y="214"/>
      <point x="227" y="248"/>
    </contour>
  </outline>
</glyph>
<glyph name="a.serif" format="2">
  <advance width="599"/>
  <unicode hex="0061"/>
  <anchor x="434" y="0" name="bottom"/>
  <anchor x="300" y="536" name="top"/>
  <anchor x="579" y="536" name="topright"/>
  <outline>
    <contour>
      <point x="205" y="-10" type="curve" smooth="yes"/>
      <point x="269" y="-10"/>
      <point x="325" y="15"/>
      <point x="351" y="101" type="curve"/>
      <point x="353" y="101" type="line"/>
      <point x="353" y="0" type="line"/>
      <point x="567" y="0" type="line"/>
      <point x="567" y="10" type="line"/>
      <point x="563" y="10" type="line" smooth="yes"/>
      <point x="518" y="10"/>
      <point x="503" y="26"/>
      <point x="503" y="81" type="curve" smooth="yes"/>
      <point x="503" y="379" type="line" smooth="yes"/>
      <point x="503" y="504"/>
      <point x="433" y="549"/>
      <point x="293" y="549" type="curve" smooth="yes"/>
      <point x="180" y="549"/>
      <point x="87" y="520"/>
      <point x="87" y="448" type="curve" smooth="yes"/>
      <point x="87" y="398"/>
      <point x="133" y="380"/>
      <point x="222" y="380" type="curve"/>
      <point x="222" y="501"/>
      <point x="237" y="539"/>
      <point x="290" y="539" type="curve" smooth="yes"/>
      <point x="335" y="539"/>
      <point x="351" y="512"/>
      <point x="351" y="425" type="curve" smooth="yes"/>
      <point x="351" y="298" type="line"/>
      <point x="269" y="295" type="line" smooth="yes"/>
      <point x="119" y="290"/>
      <point x="45" y="249"/>
      <point x="45" y="146" type="curve" smooth="yes"/>
      <point x="45" y="51"/>
      <point x="105" y="-10"/>
    </contour>
    <contour>
      <point x="256" y="18" type="curve" smooth="yes"/>
      <point x="218" y="18"/>
      <point x="200" y="52"/>
      <point x="200" y="149" type="curve" smooth="yes"/>
      <point x="200" y="243"/>
      <point x="226" y="282"/>
      <point x="306" y="286" type="curve" smooth="yes"/>
      <point x="351" y="288" type="line"/>
      <point x="351" y="171" type="line" smooth="yes"/>
      <point x="351" y="93"/>
      <point x="314" y="18"/>
    </contour>
  </outline>
</glyph>
<glyph name="b" format="2">
  <advance width="600"/>
  <unicode hex="0062"/>
  <anchor x="313" y="0" name="bottom"/>
  <anchor x="307" y="760" name="top"/>
  <anchor x="529" y="760" name="topright"/>
  <outline>
    <contour>
      <point x="228" y="583" type="curve" smooth="yes"/>
      <point x="228" y="760" type="line"/>
      <point x="68" y="760" type="line"/>
      <point x="68" y="0" type="line"/>
      <point x="192" y="0" type="line"/>
      <point x="217" y="60" type="line"/>
      <point x="228" y="60" type="line"/>
      <point x="255" y="24"/>
      <point x="291" y="-10"/>
      <point x="365" y="-10" type="curve" smooth="yes"/>
      <point x="480" y="-10"/>
      <point x="559" y="87"/>
      <point x="559" y="274" type="curve" smooth="yes"/>
      <point x="559" y="459"/>
      <point x="481" y="556"/>
      <point x="370" y="556" type="curve" smooth="yes"/>
      <point x="297" y="556"/>
      <point x="255" y="520"/>
      <point x="228" y="475" type="curve"/>
      <point x="222" y="475" type="line"/>
      <point x="225" y="497"/>
      <point x="228" y="542"/>
    </contour>
    <contour>
      <point x="314" y="437" type="curve"/>
      <point x="367" y="437"/>
      <point x="396" y="383"/>
      <point x="396" y="276" type="curve" smooth="yes"/>
      <point x="396" y="169"/>
      <point x="366" y="111"/>
      <point x="316" y="111" type="curve" smooth="yes"/>
      <point x="249" y="111"/>
      <point x="228" y="169"/>
      <point x="228" y="275" type="curve" smooth="yes"/>
      <point x="228" y="291" type="line" smooth="yes"/>
      <point x="228" y="389"/>
      <point x="253" y="437"/>
    </contour>
  </outline>
</glyph>
<glyph name="c" format="2">
  <advance width="495"/>
  <unicode hex="0063"/>
  <anchor x="285" y="0" name="bottom"/>
  <anchor x="273" y="546" name="top"/>
  <anchor x="469" y="546" name="topright"/>
  <outline>
    <contour>
      <point x="291" y="-10" type="curve" smooth="yes"/>
      <point x="362" y="-10"/>
      <point x="408" y="2"/>
      <point x="452" y="31" type="curve"/>
      <point x="452" y="158" type="line"/>
      <point x="410" y="128"/>
      <point x="365" y="111"/>
      <point x="314" y="111" type="curve" smooth="yes"/>
      <point x="246" y="111"/>
      <point x="204" y="162"/>
      <point x="204" y="271" type="curve" smooth="yes"/>
      <point x="204" y="381"/>
      <point x="244" y="436"/>
      <point x="314" y="436" type="curve" smooth="yes"/>
      <point x="352" y="436"/>
      <point x="382" y="424"/>
      <point x="422" y="407" type="curve"/>
      <point x="469" y="519" type="line"/>
      <point x="430" y="539"/>
      <point x="371" y="556"/>
      <point x="304" y="556" type="curve" smooth="yes"/>
      <point x="150" y="556"/>
      <point x="41" y="470"/>
      <point x="41" y="270" type="curve" smooth="yes"/>
      <point x="41" y="76"/>
      <point x="135" y="-10"/>
    </contour>
  </outline>
</glyph>
<glyph name="c.serif" format="2">
  <advance width="527"/>
  <unicode hex="0063"/>
  <anchor x="284" y="0" name="bottom"/>
  <anchor x="284" y="536" name="top"/>
  <anchor x="507" y="536" name="topright"/>
  <outline>
    <contour>
      <point x="296" y="-10" type="curve" smooth="yes"/>
      <point x="434" y="-10"/>
      <point x="494" y="50"/>
      <point x="494" y="100" type="curve" smooth="yes"/>
      <point x="494" y="124"/>
      <point x="481" y="144"/>
      <point x="460" y="151" type="curve"/>
      <point x="447" y="40"/>
      <point x="394" y="1"/>
      <point x="325" y="1" type="curve" smooth="yes"/>
      <point x="236" y="1"/>
      <point x="201" y="75"/>
      <point x="201" y="267" type="curve" smooth="yes"/>
      <point x="201" y="474"/>
      <point x="224" y="539"/>
      <point x="291" y="539" type="curve" smooth="yes"/>
      <point x="345" y="539"/>
      <point x="361" y="496"/>
      <point x="361" y="359" type="curve"/>
      <point x="465" y="359"/>
      <point x="490" y="403"/>
      <point x="490" y="441" type="curve" smooth="yes"/>
      <point x="490" y="505"/>
      <point x="418" y="549"/>
      <point x="297" y="549" type="curve" smooth="yes"/>
      <point x="151" y="549"/>
      <point x="47" y="482"/>
      <point x="47" y="266" type="curve" smooth="yes"/>
      <point x="47" y="61"/>
      <point x="147" y="-10"/>
    </contour>
  </outline>
</glyph>
<glyph name="d" format="2">
  <advance width="600"/>
  <unicode hex="0064"/>
  <anchor x="289" y="0" name="bottom"/>
  <anchor x="300" y="273" name="center"/>
  <anchor x="287" y="760" name="top"/>
  <anchor x="557" y="760" name="topright"/>
  <outline>
    <contour>
      <point x="230" y="-10" type="curve" smooth="yes"/>
      <point x="303" y="-10"/>
      <point x="346" y="26"/>
      <point x="372" y="71" type="curve"/>
      <point x="378" y="71" type="line"/>
      <point x="411" y="0" type="line"/>
      <point x="532" y="0" type="line"/>
      <point x="532" y="760" type="line"/>
      <point x="372" y="760" type="line"/>
      <point x="372" y="585" type="line" smooth="yes"/>
      <point x="372" y="542"/>
      <point x="377" y="497"/>
      <point x="381" y="476" type="curve"/>
      <point x="377" y="476" type="line"/>
      <point x="349" y="521"/>
      <point x="307" y="556"/>
      <point x="235" y="556" type="curve" smooth="yes"/>
      <point x="120" y="556"/>
      <point x="41" y="459"/>
      <point x="41" y="272" type="curve" smooth="yes"/>
      <point x="41" y="87"/>
      <point x="119" y="-10"/>
    </contour>
    <contour>
      <point x="291" y="109" type="curve" smooth="yes"/>
      <point x="236" y="109"/>
      <point x="203" y="163"/>
      <point x="203" y="270" type="curve" smooth="yes"/>
      <point x="203" y="377"/>
      <point x="236" y="435"/>
      <point x="289" y="435" type="curve" smooth="yes"/>
      <point x="362" y="435"/>
      <point x="384" y="377"/>
      <point x="384" y="271" type="curve" smooth="yes"/>
      <point x="384" y="255" type="line" smooth="yes"/>
      <point x="384" y="157"/>
      <point x="358" y="109"/>
    </contour>
  </outline>
</glyph>
<glyph name="e" format="2">
  <advance width="568"/>
  <unicode hex="0065"/>
  <anchor x="296" y="0" name="bottom"/>
  <anchor x="284" y="546" name="top"/>
  <anchor x="549" y="546" name="topright"/>
  <outline>
    <contour>
      <point x="291" y="556" type="curve" smooth="yes"/>
      <point x="142" y="556"/>
      <point x="41" y="460"/>
      <point x="41" y="269" type="curve" smooth="yes"/>
      <point x="41" y="80"/>
      <point x="154" y="-10"/>
      <point x="309" y="-10" type="curve" smooth="yes"/>
      <point x="394" y="-10"/>
      <point x="447" y="2"/>
      <point x="497" y="29" type="curve"/>
      <point x="497" y="144" type="line"/>
      <point x="440" y="115"/>
      <point x="389" y="101"/>
      <point x="323" y="101" type="curve" smooth="yes"/>
      <point x="247" y="101"/>
      <point x="205" y="152"/>
      <point x="203" y="236" type="curve"/>
      <point x="528" y="236" type="line"/>
      <point x="528" y="308" type="line"/>
      <point x="528" y="467"/>
      <point x="437" y="556"/>
    </contour>
    <contour>
      <point x="294" y="450" type="curve" smooth="yes"/>
      <point x="352" y="450"/>
      <point x="380" y="401"/>
      <point x="381" y="335" type="curve"/>
      <point x="206" y="335" type="line"/>
      <point x="211" y="414"/>
      <point x="246" y="450"/>
    </contour>
  </outline>
</glyph>
<glyph name="e.serif" format="2">
  <advance width="571"/>
  <unicode hex="0065"/>
  <anchor x="296" y="0" name="bottom"/>
  <anchor x="296" y="536" name="top"/>
  <anchor x="551" y="536" name="topright"/>
  <outline>
    <contour>
      <point x="311" y="-10" type="curve" smooth="yes"/>
      <point x="443" y="-10"/>
      <point x="508" y="48"/>
      <point x="508" y="105" type="curve" smooth="yes"/>
      <point x="508" y="127"/>
      <point x="498" y="146"/>
      <point x="471" y="152" type="curve"/>
      <point x="458" y="42"/>
      <point x="404" y="1"/>
      <point x="334" y="1" type="curve" smooth="yes"/>
      <point x="239" y="1"/>
      <point x="201" y="82"/>
      <point x="201" y="284" type="curve"/>
      <point x="529" y="284" type="line"/>
      <point x="529" y="308" type="line" smooth="yes"/>
      <point x="529" y="467"/>
      <point x="440" y="549"/>
      <point x="295" y="549" type="curve" smooth="yes"/>
      <point x="137" y="549"/>
      <point x="47" y="453"/>
      <point x="47" y="265" type="curve" smooth="yes"/>
      <point x="47" y="91"/>
      <point x="138" y="-10"/>
    </contour>
    <contour>
      <point x="377" y="294" type="curve"/>
      <point x="201" y="294" type="line"/>
      <point x="202" y="475"/>
      <point x="230" y="539"/>
      <point x="295" y="539" type="curve" smooth="yes"/>
      <point x="359" y="539"/>
      <point x="377" y="475"/>
    </contour>
  </outline>
</glyph>
<glyph name="f" format="2">
  <advance width="376"/>
  <unicode hex="0066"/>
  <anchor x="172" y="0" name="bottom"/>
  <anchor x="256" y="765" name="top"/>
  <anchor x="399" y="765" name="topright"/>
  <outline>
    <contour>
      <point x="369" y="434" type="line"/>
      <point x="369" y="546" type="line"/>
      <point x="253" y="546" type="line"/>
      <point x="253" y="580" type="line" smooth="yes"/>
      <point x="253" y="619"/>
      <point x="267" y="647"/>
      <point x="301" y="647" type="curve" smooth="yes"/>
      <point x="329" y="647"/>
      <point x="352" y="640"/>
      <point x="372" y="633" type="curve"/>
      <point x="409" y="742" type="line"/>
      <point x="371" y="754"/>
      <point x="328" y="765"/>
      <point x="274" y="765" type="curve" smooth="yes"/>
      <point x="155" y="765"/>
      <point x="95" y="725"/>
      <point x="95" y="586" type="curve" smooth="yes"/>
      <point x="95" y="546" type="line"/>
      <point x="20" y="506" type="line"/>
      <point x="20" y="434" type="line"/>
      <point x="93" y="434" type="line"/>
      <point x="93" y="0" type="line"/>
      <point x="253" y="0" type="line"/>
      <point x="253" y="434" type="line"/>
    </contour>
  </outline>
</glyph>
<glyph name="f.serif" format="2">
  <advance width="407"/>
  <unicode hex="0066"/>
  <anchor x="204" y="0" name="bottom"/>
  <anchor x="294" y="769" name="top"/>
  <anchor x="487" y="769" name="topright"/>
  <outline>
    <contour>
      <point x="19" y="0" type="line"/>
      <point x="382" y="0" type="line"/>
      <point x="382" y="10" type="line"/>
      <point x="335" y="10" type="line" smooth="yes"/>
      <point x="306" y="10"/>
      <point x="264" y="18"/>
      <point x="264" y="75" type="curve" smooth="yes"/>
      <point x="264" y="526" type="line"/>
      <point x="402" y="526" type="line"/>
      <point x="402" y="536" type="line"/>
      <point x="264" y="536" type="line"/>
      <point x="264" y="638" type="line" smooth="yes"/>
      <point x="264" y="730"/>
      <point x="276" y="759"/>
      <point x="312" y="759" type="curve" smooth="yes"/>
      <point x="348" y="759"/>
      <point x="360" y="728"/>
      <point x="360" y="631" type="curve"/>
      <point x="442" y="631"/>
      <point x="483" y="651"/>
      <point x="483" y="694" type="curve" smooth="yes"/>
      <point x="483" y="737"/>
      <point x="441" y="769"/>
      <point x="332" y="769" type="curve" smooth="yes"/>
      <point x="171" y="769"/>
      <point x="112" y="697"/>
      <point x="112" y="573" type="curve" smooth="yes"/>
      <point x="112" y="536" type="line"/>
      <point x="23" y="536" type="line"/>
      <point x="23" y="526" type="line"/>
      <point x="112" y="526" type="line"/>
      <point x="112" y="75" type="line" smooth="yes"/>
      <point x="112" y="18"/>
      <point x="70" y="10"/>
      <point x="41" y="10" type="curve" smooth="yes"/>
      <point x="19" y="10" type="line"/>
    </contour>
  </outline>
</glyph>
<glyph name="g" format="2">
  <advance width="600"/>
  <unicode hex="0067"/>
  <anchor x="277" y="-240" name="bottom"/>
  <anchor x="295" y="546" name="top"/>
  <anchor x="556" y="546" name="topright"/>
  <outline>
    <contour>
      <point x="234" y="556" type="curve" smooth="yes"/>
      <point x="117" y="556"/>
      <point x="41" y="451"/>
      <point x="41" y="272" type="curve" smooth="yes"/>
      <point x="41" y="95"/>
      <point x="115" y="-10"/>
      <point x="231" y="-10" type="curve" smooth="yes"/>
      <point x="297" y="-10"/>
      <point x="343" y="14"/>
      <point x="372" y="71" type="curve"/>
      <point x="377" y="71" type="line"/>
      <point x="374" y="52"/>
      <point x="372" y="26"/>
      <point x="372" y="4" type="curve" smooth="yes"/>
      <point x="372" y="-7" type="line" smooth="yes"/>
      <point x="372" y="-90"/>
      <point x="337" y="-131"/>
      <point x="264" y="-131" type="curve" smooth="yes"/>
      <point x="188" y="-131"/>
      <point x="131" y="-117"/>
      <point x="68" y="-89" type="curve"/>
      <point x="68" y="-208" type="line"/>
      <point x="127" y="-232"/>
      <point x="187" y="-240"/>
      <point x="265" y="-240" type="curve" smooth="yes"/>
      <point x="444" y="-240"/>
      <point x="532" y="-157"/>
      <point x="532" y="-1" type="curve"/>
      <point x="532" y="546" type="line"/>
      <point x="395" y="546" type="line"/>
      <point x="383" y="476" type="line"/>
      <point x="379" y="476" type="line"/>
      <point x="348" y="529"/>
      <point x="302" y="556"/>
    </contour>
    <contour>
      <point x="290" y="435" type="curve" smooth="yes"/>
      <point x="360" y="435"/>
      <point x="384" y="388"/>
      <point x="384" y="271" type="curve" smooth="yes"/>
      <point x="384" y="253" type="line" smooth="yes"/>
      <point x="384" y="145"/>
      <point x="357" y="107"/>
      <point x="292" y="107" type="curve" smooth="yes"/>
      <point x="232" y="107"/>
      <point x="204" y="161"/>
      <point x="204" y="270" type="curve" smooth="yes"/>
      <point x="204" y="380"/>
      <point x="232" y="435"/>
    </contour>
  </outline>
</glyph>
<glyph name="h" format="2">
  <advance width="624"/>
  <unicode hex="0068"/>
  <anchor x="316" y="0" name="bottom"/>
  <anchor x="312" y="273" name="center"/>
  <anchor x="150" y="760" name="top"/>
  <anchor x="548" y="760" name="topright"/>
  <outline>
    <contour>
      <point x="228" y="605" type="curve"/>
      <point x="228" y="760" type="line"/>
      <point x="68" y="760" type="line"/>
      <point x="68" y="0" type="line"/>
      <point x="228" y="0" type="line"/>
      <point x="228" y="257" type="line" smooth="yes"/>
      <point x="228" y="373"/>
      <point x="251" y="437"/>
      <point x="326" y="437" type="curve" smooth="yes"/>
      <point x="375" y="437"/>
      <point x="398" y="397"/>
      <point x="398" y="319" type="curve" smooth="yes"/>
      <point x="398" y="0" type="line"/>
      <point x="559" y="0" type="line"/>
      <point x="559" y="356" type="line"/>
      <point x="559" y="496"/>
      <point x="481" y="556"/>
      <point x="374" y="556" type="curve" smooth="yes"/>
      <point x="312" y="556"/>
      <point x="262" y="532"/>
      <point x="229" y="476" type="curve"/>
      <point x="221" y="476" type="line"/>
      <point x="223" y="496"/>
      <point x="228" y="551"/>
    </contour>
  </outline>
</glyph>
<glyph name="i" format="2">
  <advance width="296"/>
  <unicode hex="0069"/>
  <anchor x="151" y="0" name="bottom"/>
  <anchor x="149" y="760" name="top"/>
  <anchor x="277" y="760" name="topright"/>
  <outline>
    <contour>
      <point x="228" y="546" type="line"/>
      <point x="68" y="546" type="line"/>
      <point x="68" y="0" type="line"/>
      <point x="228" y="0" type="line"/>
    </contour>
    <contour>
      <point x="149" y="760" type="curve" smooth="yes"/>
      <point x="101" y="760"/>
      <point x="63" y="743"/>
      <point x="63" y="687" type="curve"/>
      <point x="63" y="632"/>
      <point x="101" y="614"/>
      <point x="149" y="614" type="curve" smooth="yes"/>
      <point x="195" y="614"/>
      <point x="234" y="632"/>
      <point x="234" y="687" type="curve" smooth="yes"/>
      <point x="234" y="743"/>
      <point x="195" y="760"/>
    </contour>
  </outline>
</glyph>
<glyph name="i.serif" format="2">
  <advance width="352"/>
  <unicode hex="0069"/>
  <anchor x="176" y="0" name="bottom"/>
  <anchor x="173" y="770" name="top"/>
  <anchor x="292" y="770" name="topright"/>
  <outline>
    <contour>
      <point x="17" y="0" type="line"/>
      <point x="335" y="0" type="line"/>
      <point x="335" y="10" type="line"/>
      <point x="323" y="10" type="line" smooth="yes"/>
      <point x="294" y="10"/>
      <point x="252" y="18"/>
      <point x="252" y="75" type="curve" smooth="yes"/>
      <point x="252" y="536" type="line"/>
      <point x="17" y="536" type="line"/>
      <point x="17" y="526" type="line"/>
      <point x="29" y="526" type="line" smooth="yes"/>
      <point x="57" y="526"/>
      <point x="100" y="518"/>
      <point x="100" y="465" type="curve" smooth="yes"/>
      <point x="100" y="75" type="line" smooth="yes"/>
      <point x="100" y="18"/>
      <point x="58" y="10"/>
      <point x="29" y="10" type="curve" smooth="yes"/>
      <point x="17" y="10" type="line"/>
    </contour>
    <contour>
      <point x="171" y="626" type="curve" smooth="yes"/>
      <point x="209" y="626"/>
      <point x="242" y="649"/>
      <point x="242" y="698" type="curve" smooth="yes"/>
      <point x="242" y="749"/>
      <point x="209" y="770"/>
      <point x="171" y="770" type="curve" smooth="yes"/>
      <point x="132" y="770"/>
      <point x="101" y="749"/>
      <point x="101" y="698" type="curve" smooth="yes"/>
      <point x="101" y="649"/>
      <point x="132" y="626"/>
    </contour>
  </outline>
</glyph>
<glyph name="j" format="2">
  <advance width="296"/>
  <unicode hex="006A"/>
  <anchor x="40" y="-240" name="bottom"/>
  <anchor x="148" y="760" name="top"/>
  <anchor x="277" y="760" name="topright"/>
  <outline>
    <contour>
      <point x="40" y="-240" type="curve" smooth="yes"/>
      <point x="178" y="-240"/>
      <point x="227" y="-159"/>
      <point x="227" y="-59" type="curve" smooth="yes"/>
      <point x="227" y="546" type="line"/>
      <point x="68" y="546" type="line"/>
      <point x="68" y="-37" type="line" smooth="yes"/>
      <point x="68" y="-103"/>
      <point x="40" y="-120"/>
      <point x="7" y="-120" type="curve" smooth="yes"/>
      <point x="-16" y="-120"/>
      <point x="-33" y="-117"/>
      <point x="-54" y="-111" type="curve"/>
      <point x="-54" y="-228" type="line"/>
      <point x="-31" y="-235"/>
      <point x="10" y="-240"/>
    </contour>
    <contour>
      <point x="63" y="687" type="curve" smooth="yes"/>
      <point x="63" y="632"/>
      <point x="101" y="614"/>
      <point x="148" y="614" type="curve" smooth="yes"/>
      <point x="195" y="614"/>
      <point x="234" y="632"/>
      <point x="234" y="687" type="curve" smooth="yes"/>
      <point x="234" y="743"/>
      <point x="195" y="760"/>
      <point x="148" y="760" type="curve" smooth="yes"/>
      <point x="101" y="760"/>
      <point x="63" y="743"/>
    </contour>
  </outline>
</glyph>
<glyph name="j.serif" format="2">
  <advance width="345"/>
  <unicode hex="006A"/>
  <anchor x="113" y="-240" name="bottom"/>
  <anchor x="173" y="770" name="top"/>
  <anchor x="295" y="770" name="topright"/>
  <outline>
    <contour>
      <point x="-20" y="-240" type="line"/>
      <point x="0" y="-240" type="line" smooth="yes"/>
      <point x="147" y="-240"/>
      <point x="252" y="-187"/>
      <point x="252" y="-8" type="curve" smooth="yes"/>
      <point x="252" y="536" type="line"/>
      <point x="17" y="536" type="line"/>
      <point x="17" y="526" type="line"/>
      <point x="20" y="526" type="line" smooth="yes"/>
      <point x="63" y="526"/>
      <point x="100" y="517"/>
      <point x="100" y="460" type="curve" smooth="yes"/>
      <point x="100" y="-52" type="line" smooth="yes"/>
      <point x="100" y="-188"/>
      <point x="60" y="-230"/>
      <point x="-13" y="-230" type="curve" smooth="yes"/>
      <point x="-20" y="-230" type="line"/>
    </contour>
    <contour>
      <point x="172" y="626" type="curve" smooth="yes"/>
      <point x="212" y="626"/>
      <point x="246" y="649"/>
      <point x="246" y="698" type="curve" smooth="yes"/>
      <point x="246" y="749"/>
      <point x="212" y="770"/>
      <point x="172" y="770" type="curve" smooth="yes"/>
      <point x="131" y="770"/>
      <point x="99" y="749"/>
      <point x="99" y="698" type="curve" smooth="yes"/>
      <point x="99" y="649"/>
      <point x="131" y="626"/>
    </contour>
  </outline>
</glyph>
<glyph name="k" format="2">
  <advance width="601"/>
  <unicode hex="006B"/>
  <anchor x="311" y="0" name="bottom"/>
  <anchor x="152" y="760" name="top"/>
  <anchor x="460" y="840" name="topright"/>
  <outline>
    <contour>
      <point x="228" y="420" type="curve" smooth="yes"/>
      <point x="228" y="760" type="line"/>
      <point x="68" y="760" type="line"/>
      <point x="68" y="0" type="line"/>
      <point x="228" y="0" type="line"/>
      <point x="228" y="170" type="line"/>
      <point x="287" y="221" type="line"/>
      <point x="418" y="0" type="line"/>
      <point x="601" y="0" type="line"/>
      <point x="397" y="309" type="line"/>
      <point x="590" y="546" type="line"/>
      <point x="411" y="546" type="line"/>
      <point x="280" y="380" type="line" smooth="yes"/>
      <point x="258" y="353"/>
      <point x="232" y="325"/>
      <point x="222" y="297" type="curve"/>
      <point x="219" y="297" type="line"/>
      <point x="224" y="338"/>
      <point x="228" y="379"/>
    </contour>
  </outline>
</glyph>
<glyph name="k.serif" format="2">
  <advance width="636"/>
  <unicode hex="006B"/>
  <anchor x="318" y="0" name="bottom"/>
  <anchor x="318" y="760" name="top"/>
  <anchor x="476" y="890" name="topright"/>
  <outline>
    <contour>
      <point x="17" y="0" type="line"/>
      <point x="335" y="0" type="line"/>
      <point x="335" y="10" type="line"/>
      <point x="323" y="10" type="line" smooth="yes"/>
      <point x="294" y="10"/>
      <point x="252" y="18"/>
      <point x="252" y="75" type="curve" smooth="yes"/>
      <point x="252" y="224" type="line"/>
      <point x="278" y="251" type="line"/>
      <point x="381" y="89" type="line" smooth="yes"/>
      <point x="433" y="7"/>
      <point x="476" y="0"/>
      <point x="622" y="0" type="curve" smooth="yes"/>
      <point x="636" y="0" type="line"/>
      <point x="636" y="10" type="line"/>
      <point x="634" y="10" type="line" smooth="yes"/>
      <point x="617" y="10"/>
      <point x="604" y="19"/>
      <point x="564" y="79" type="curve" smooth="yes"/>
      <point x="378" y="356" type="line"/>
      <point x="459" y="441" type="line" smooth="yes"/>
      <point x="531" y="517"/>
      <point x="555" y="526"/>
      <point x="600" y="526" type="curve"/>
      <point x="600" y="536" type="line"/>
      <point x="358" y="536" type="line"/>
      <point x="358" y="526" type="line"/>
      <point x="440" y="526"/>
      <point x="475" y="518"/>
      <point x="475" y="494" type="curve" smooth="yes"/>
      <point x="475" y="482"/>
      <point x="466" y="464"/>
      <point x="444" y="441" type="curve" smooth="yes"/>
      <point x="251" y="238" type="line"/>
      <point x="252" y="269"/>
      <point x="252" y="298"/>
      <point x="252" y="328" type="curve" smooth="yes"/>
      <point x="252" y="760" type="line"/>
      <point x="17" y="760" type="line"/>
      <point x="17" y="750" type="line"/>
      <point x="29" y="750" type="line" smooth="yes"/>
      <point x="57" y="750"/>
      <point x="100" y="742"/>
      <point x="100" y="689" type="curve" smooth="yes"/>
      <point x="100" y="75" type="line" smooth="yes"/>
      <point x="100" y="18"/>
      <point x="58" y="10"/>
      <point x="29" y="10" type="curve" smooth="yes"/>
      <point x="17" y="10" type="line"/>
    </contour>
  </outline>
</glyph>
<glyph name="l" format="2">
  <advance width="296"/>
  <unicode hex="006C"/>
  <anchor x="148" y="0" name="bottom"/>
  <anchor x="148" y="273" name="center"/>
  <anchor x="148" y="760" name="top"/>
  <anchor x="247" y="760" name="topright"/>
  <outline>
    <contour>
      <point x="228" y="0" type="line"/>
      <point x="228" y="760" type="line"/>
      <point x="68" y="760" type="line"/>
      <point x="68" y="0" type="line"/>
    </contour>
  </outline>
</glyph>
<glyph name="l.serif" format="2">
  <advance width="352"/>
  <unicode hex="006C"/>
  <anchor x="176" y="0" name="bottom"/>
  <anchor x="176" y="268" name="center"/>
  <anchor x="176" y="760" name="top"/>
  <anchor x="302" y="760" name="topright"/>
  <outline>
    <contour>
      <point x="17" y="0" type="line"/>
      <point x="335" y="0" type="line"/>
      <point x="335" y="10" type="line"/>
      <point x="323" y="10" type="line" smooth="yes"/>
      <point x="294" y="10"/>
      <point x="252" y="18"/>
      <point x="252" y="75" type="curve" smooth="yes"/>
      <point x="252" y="760" type="line"/>
      <point x="17" y="760" type="line"/>
      <point x="17" y="750" type="line"/>
      <point x="29" y="750" type="line" smooth="yes"/>
      <point x="57" y="750"/>
      <point x="100" y="742"/>
      <point x="100" y="689" type="curve" smooth="yes"/>
      <point x="100" y="75" type="line" smooth="yes"/>
      <point x="100" y="18"/>
      <point x="58" y="10"/>
      <point x="29" y="10" type="curve" smooth="yes"/>
      <point x="17" y="10" type="line"/>
    </contour>
  </outline>
</glyph>
<glyph name="m" format="2">
  <advance width="931"/>
  <unicode hex="006D"/>
  <anchor x="469" y="0" name="bottom"/>
  <anchor x="480" y="546" name="top"/>
  <anchor x="892" y="546" name="topright"/>
  <outline>
    <contour>
      <point x="686" y="556" type="curve" smooth="yes"/>
      <point x="624" y="556"/>
      <point x="567" y="532"/>
      <point x="535" y="476" type="curve"/>
      <point x="526" y="476" type="line"/>
      <point x="497" y="531"/>
      <point x="446" y="556"/>
      <point x="371" y="556" type="curve" smooth="yes"/>
      <point x="302" y="556"/>
      <point x="247" y="532"/>
      <point x="218" y="476" type="curve"/>
      <point x="212" y="476" type="line"/>
      <point x="189" y="546" type="line"/>
      <point x="68" y="546" type="line"/>
      <point x="68" y="0" type="line"/>
      <point x="228" y="0" type="line"/>
      <point x="228" y="257" type="line" smooth="yes"/>
      <point x="228" y="373"/>
      <point x="248" y="437"/>
      <point x="318" y="437" type="curve" smooth="yes"/>
      <point x="365" y="437"/>
      <point x="387" y="397"/>
      <point x="387" y="319" type="curve" smooth="yes"/>
      <point x="387" y="0" type="line"/>
      <point x="547" y="0" type="line"/>
      <point x="547" y="274" type="line"/>
      <point x="547" y="379"/>
      <point x="570" y="437"/>
      <point x="637" y="437" type="curve" smooth="yes"/>
      <point x="684" y="437"/>
      <point x="707" y="397"/>
      <point x="707" y="319" type="curve" smooth="yes"/>
      <point x="707" y="0" type="line"/>
      <point x="866" y="0" type="line"/>
      <point x="866" y="356" type="line" smooth="yes"/>
      <point x="866" y="496"/>
      <point x="804" y="556"/>
    </contour>
  </outline>
</glyph>
<glyph name="n" format="2">
  <advance width="624"/>
  <unicode hex="006E"/>
  <anchor x="312" y="0" name="bottom"/>
  <anchor x="312" y="546" name="top"/>
  <anchor x="574" y="546" name="topright"/>
  <outline>
    <contour>
      <point x="376" y="556" type="curve" smooth="yes"/>
      <point x="308" y="556"/>
      <point x="251" y="532"/>
      <point x="218" y="476" type="curve"/>
      <point x="211" y="476" type="line"/>
      <point x="189" y="546" type="line"/>
      <point x="68" y="546" type="line"/>
      <point x="68" y="0" type="line"/>
      <point x="228" y="0" type="line"/>
      <point x="228" y="257" type="line" smooth="yes"/>
      <point x="228" y="373"/>
      <point x="249" y="437"/>
      <point x="326" y="437" type="curve" smooth="yes"/>
      <point x="377" y="437"/>
      <point x="399" y="397"/>
      <point x="399" y="319" type="curve" smooth="yes"/>
      <point x="399" y="0" type="line"/>
      <point x="559" y="0" type="line"/>
      <point x="559" y="356" type="line" smooth="yes"/>
      <point x="559" y="496"/>
      <point x="485" y="556"/>
    </contour>
  </outline>
</glyph>
<glyph name="o" format="2">
  <advance width="590"/>
  <unicode hex="006F"/>
  <anchor x="295" y="0" name="bottom"/>
  <anchor x="296" y="273" name="center"/>
  <anchor x="296" y="546" name="top"/>
  <anchor x="572" y="546" name="topright"/>
  <outline>
    <contour>
      <point x="549" y="274" type="curve"/>
      <point x="549" y="455"/>
      <point x="443" y="556"/>
      <point x="297" y="556" type="curve" smooth="yes"/>
      <point x="138" y="556"/>
      <point x="41" y="455"/>
      <point x="41" y="274" type="curve" smooth="yes"/>
      <point x="41" y="92"/>
      <point x="147" y="-10"/>
      <point x="294" y="-10" type="curve" smooth="yes"/>
      <point x="452" y="-10"/>
      <point x="549" y="92"/>
    </contour>
    <contour>
      <point x="204" y="274" type="curve"/>
      <point x="204" y="382"/>
      <point x="230" y="436"/>
      <point x="295" y="436" type="curve" smooth="yes"/>
      <point x="361" y="436"/>
      <point x="386" y="382"/>
      <point x="386" y="274" type="curve" smooth="yes"/>
      <point x="386" y="166"/>
      <point x="361" y="110"/>
      <point x="296" y="110" type="curve" smooth="yes"/>
      <point x="230" y="110"/>
      <point x="204" y="166"/>
    </contour>
  </outline>
</glyph>
<glyph name="o.serif" format="2">
  <advance width="613"/>
  <unicode hex="006F"/>
  <anchor x="307" y="0" name="bottom"/>
  <anchor x="307" y="268" name="center"/>
  <anchor x="307" y="536" name="top"/>
  <anchor x="593" y="536" name="topright"/>
  <outline>
    <contour>
      <point x="305" y="-10" type="curve" smooth="yes"/>
      <point x="476" y="-10"/>
      <point x="566" y="82"/>
      <point x="566" y="270" type="curve" smooth="yes"/>
      <point x="566" y="458"/>
      <point x="468" y="549"/>
      <point x="308" y="549" type="curve" smooth="yes"/>
      <point x="136" y="549"/>
      <point x="47" y="458"/>
      <point x="47" y="270" type="curve" smooth="yes"/>
      <point x="47" y="82"/>
      <point x="145" y="-10"/>
    </contour>
    <contour>
      <point x="307" y="0" type="curve" smooth="yes"/>
      <point x="229" y="0"/>
      <point x="202" y="70"/>
      <point x="202" y="270" type="curve" smooth="yes"/>
      <point x="202" y="469"/>
      <point x="229" y="539"/>
      <point x="306" y="539" type="curve" smooth="yes"/>
      <point x="384" y="539"/>
      <point x="411" y="469"/>
      <point x="411" y="270" type="curve" smooth="yes"/>
      <point x="411" y="70"/>
      <point x="384" y="0"/>
    </contour>
  </outline>
</glyph>
<glyph name="p" format="2">
  <advance width="600"/>
  <unicode hex="0070"/>
  <anchor x="149" y="-240" name="bottom"/>
  <anchor x="315" y="546" name="top"/>
  <anchor x="581" y="546" name="topright"/>
  <outline>
    <contour>
      <point x="370" y="556" type="curve" smooth="yes"/>
      <point x="296" y="556"/>
      <point x="254" y="519"/>
      <point x="228" y="475" type="curve"/>
      <point x="220" y="475" type="line"/>
      <point x="198" y="546" type="line"/>
      <point x="68" y="546" type="line"/>
      <point x="68" y="-240" type="line"/>
      <point x="228" y="-240" type="line"/>
      <point x="228" y="-20" type="line" smooth="yes"/>
      <point x="228" y="6"/>
      <point x="225" y="34"/>
      <point x="221" y="60" type="curve"/>
      <point x="228" y="60" type="line"/>
      <point x="253" y="24"/>
      <point x="291" y="-10"/>
      <point x="365" y="-10" type="curve" smooth="yes"/>
      <point x="477" y="-10"/>
      <point x="559" y="88"/>
      <point x="559" y="274" type="curve" smooth="yes"/>
      <point x="559" y="459"/>
      <point x="485" y="556"/>
    </contour>
    <contour>
      <point x="313" y="437" type="curve" smooth="yes"/>
      <point x="369" y="437"/>
      <point x="396" y="383"/>
      <point x="396" y="276" type="curve" smooth="yes"/>
      <point x="396" y="169"/>
      <point x="369" y="111"/>
      <point x="315" y="111" type="curve" smooth="yes"/>
      <point x="248" y="111"/>
      <point x="228" y="169"/>
      <point x="228" y="275" type="curve" smooth="yes"/>
      <point x="228" y="291" type="line" smooth="yes"/>
      <point x="228" y="389"/>
      <point x="250" y="437"/>
    </contour>
  </outline>
</glyph>
<glyph name="q" format="2">
  <advance width="600"/>
  <unicode hex="0071"/>
  <anchor x="452" y="-240" name="bottom"/>
  <anchor x="300" y="546" name="top"/>
  <anchor x="557" y="546" name="topright"/>
  <outline>
    <contour>
      <point x="372" y="-11" type="curve" smooth="yes"/>
      <point x="372" y="-240" type="line"/>
      <point x="532" y="-240" type="line"/>
      <point x="532" y="546" type="line"/>
      <point x="395" y="546" type="line"/>
      <point x="383" y="476" type="line"/>
      <point x="379" y="476" type="line"/>
      <point x="351" y="521"/>
      <point x="308" y="556"/>
      <point x="234" y="556" type="curve" smooth="yes"/>
      <point x="119" y="556"/>
      <point x="41" y="458"/>
      <point x="41" y="272" type="curve" smooth="yes"/>
      <point x="41" y="87"/>
      <point x="118" y="-10"/>
      <point x="231" y="-10" type="curve" smooth="yes"/>
      <point x="304" y="-10"/>
      <point x="347" y="26"/>
      <point x="372" y="71" type="curve"/>
      <point x="378" y="71" type="line"/>
      <point x="374" y="44"/>
      <point x="372" y="16"/>
    </contour>
    <contour>
      <point x="292" y="107" type="curve" smooth="yes"/>
      <point x="232" y="107"/>
      <point x="204" y="161"/>
      <point x="204" y="270" type="curve" smooth="yes"/>
      <point x="204" y="377"/>
      <point x="232" y="435"/>
      <point x="290" y="435" type="curve" smooth="yes"/>
      <point x="363" y="435"/>
      <point x="384" y="377"/>
      <point x="384" y="271" type="curve" smooth="yes"/>
      <point x="384" y="253" type="line" smooth="yes"/>
      <point x="384" y="155"/>
      <point x="360" y="107"/>
    </contour>
  </outline>
</glyph>
<glyph name="s" format="2">
  <advance width="477"/>
  <unicode hex="0073"/>
  <anchor x="235" y="0" name="bottom"/>
  <anchor x="235" y="546" name="top"/>
  <anchor x="448" y="546" name="topright"/>
  <outline>
    <contour>
      <point x="440" y="162" type="curve" smooth="yes"/>
      <point x="440" y="259"/>
      <point x="391" y="294"/>
      <point x="302" y="332" type="curve" smooth="yes"/>
      <point x="213" y="370"/>
      <point x="196" y="384"/>
      <point x="196" y="410" type="curve" smooth="yes"/>
      <point x="196" y="434"/>
      <point x="214" y="446"/>
      <point x="249" y="446" type="curve" smooth="yes"/>
      <point x="288" y="446"/>
      <point x="338" y="429"/>
      <point x="390" y="406" type="curve"/>
      <point x="435" y="513" type="line"/>
      <point x="372" y="543"/>
      <point x="316" y="556"/>
      <point x="250" y="556" type="curve" smooth="yes"/>
      <point x="124" y="556"/>
      <point x="41" y="505"/>
      <point x="41" y="404" type="curve" smooth="yes"/>
      <point x="41" y="311"/>
      <point x="83" y="275"/>
      <point x="175" y="232" type="curve" smooth="yes"/>
      <point x="269" y="188"/>
      <point x="286" y="173"/>
      <point x="286" y="146" type="curve" smooth="yes"/>
      <point x="286" y="118"/>
      <point x="267" y="99"/>
      <point x="219" y="99" type="curve" smooth="yes"/>
      <point x="175" y="99"/>
      <point x="103" y="118"/>
      <point x="42" y="145" type="curve"/>
      <point x="42" y="22" type="line"/>
      <point x="98" y="-1"/>
      <point x="148" y="-10"/>
      <point x="221" y="-10" type="curve" smooth="yes"/>
      <point x="372" y="-10"/>
      <point x="440" y="51"/>
    </contour>
  </outline>
</glyph>
<glyph name="t" format="2">
  <advance width="420"/>
  <unicode hex="0074"/>
  <anchor x="237" y="0" name="bottom"/>
  <anchor x="190" y="273" name="center"/>
  <anchor x="196" y="662" name="top"/>
  <anchor x="274" y="840" name="topright"/>
  <outline>
    <contour>
      <point x="303" y="109" type="curve" smooth="yes"/>
      <point x="269" y="109"/>
      <point x="248" y="129"/>
      <point x="248" y="171" type="curve" smooth="yes"/>
      <point x="248" y="434" type="line"/>
      <point x="384" y="434" type="line"/>
      <point x="384" y="546" type="line"/>
      <point x="248" y="546" type="line"/>
      <point x="248" y="662" type="line"/>
      <point x="145" y="662" type="line"/>
      <point x="101" y="547" type="line"/>
      <point x="23" y="497" type="line"/>
      <point x="23" y="434" type="line"/>
      <point x="88" y="434" type="line"/>
      <point x="88" y="171" type="line" smooth="yes"/>
      <point x="88" y="30"/>
      <point x="156" y="-10"/>
      <point x="253" y="-10" type="curve" smooth="yes"/>
      <point x="313" y="-10"/>
      <point x="356" y="1"/>
      <point x="390" y="15" type="curve"/>
      <point x="390" y="126" type="line"/>
      <point x="361" y="116"/>
      <point x="335" y="109"/>
    </contour>
  </outline>
</glyph>
<glyph name="u" format="2">
  <advance width="624"/>
  <unicode hex="0075"/>
  <anchor x="304" y="0" name="bottom"/>
  <anchor x="312" y="546" name="top"/>
  <anchor x="583" y="546" name="topright"/>
  <outline>
    <contour>
      <point x="556" y="546" type="line"/>
      <point x="396" y="546" type="line"/>
      <point x="396" y="289" type="line" smooth="yes"/>
      <point x="396" y="173"/>
      <point x="375" y="109"/>
      <point x="298" y="109" type="curve" smooth="yes"/>
      <point x="247" y="109"/>
      <point x="226" y="149"/>
      <point x="226" y="227" type="curve" smooth="yes"/>
      <point x="226" y="546" type="line"/>
      <point x="66" y="546" type="line"/>
      <point x="66" y="190" type="line" smooth="yes"/>
      <point x="66" y="50"/>
      <point x="142" y="-10"/>
      <point x="248" y="-10" type="curve" smooth="yes"/>
      <point x="312" y="-10"/>
      <point x="372" y="14"/>
      <point x="405" y="70" type="curve"/>
      <point x="414" y="70" type="line"/>
      <point x="435" y="0" type="line"/>
      <point x="556" y="0" type="line"/>
    </contour>
  </outline>
</glyph>
<glyph name="u.serif" format="2">
  <advance width="667"/>
  <unicode hex="0075"/>
  <anchor x="334" y="0" name="bottom"/>
  <anchor x="334" y="536" name="top"/>
  <anchor x="637" y="536" name="topright"/>
  <outline>
    <contour>
      <point x="270" y="-10" type="curve" smooth="yes"/>
      <point x="329" y="-10"/>
      <point x="390" y="5"/>
      <point x="413" y="94" type="curve"/>
      <point x="415" y="94" type="line"/>
      <point x="415" y="0" type="line"/>
      <point x="642" y="0" type="line"/>
      <point x="642" y="10" type="line"/>
      <point x="638" y="10" type="line" smooth="yes"/>
      <point x="610" y="10"/>
      <point x="567" y="18"/>
      <point x="567" y="71" type="curve" smooth="yes"/>
      <point x="567" y="536" type="line"/>
      <point x="340" y="536" type="line"/>
      <point x="340" y="526" type="line"/>
      <point x="344" y="526" type="line" smooth="yes"/>
      <point x="373" y="526"/>
      <point x="415" y="518"/>
      <point x="415" y="461" type="curve" smooth="yes"/>
      <point x="415" y="210" type="line" smooth="yes"/>
      <point x="415" y="98"/>
      <point x="394" y="20"/>
      <point x="323" y="20" type="curve" smooth="yes"/>
      <point x="269" y="20"/>
      <point x="248" y="64"/>
      <point x="248" y="150" type="curve" smooth="yes"/>
      <point x="248" y="536" type="line"/>
      <point x="26" y="536" type="line"/>
      <point x="26" y="526" type="line"/>
      <point x="29" y="526" type="line" smooth="yes"/>
      <point x="74" y="526"/>
      <point x="96" y="517"/>
      <point x="96" y="455" type="curve" smooth="yes"/>
      <point x="96" y="183" type="line" smooth="yes"/>
      <point x="96" y="48"/>
      <point x="153" y="-10"/>
    </contour>
  </outline>
</glyph>
<glyph name="v" format="2">
  <advance width="555"/>
  <unicode hex="0076"/>
  <anchor x="278" y="0" name="bottom"/>
  <anchor x="275" y="546" name="top"/>
  <anchor x="536" y="546" name="topright"/>
  <outline>
    <contour>
      <point x="197" y="0" type="line"/>
      <point x="358" y="0" type="line"/>
      <point x="555" y="546" type="line"/>
      <point x="387" y="546" type="line"/>
      <point x="295" y="235" type="line" smooth="yes"/>
      <point x="284" y="199"/>
      <point x="279" y="157"/>
      <point x="278" y="123" type="curve"/>
      <point x="274" y="123" type="line"/>
      <point x="273" y="155"/>
      <point x="269" y="199"/>
      <point x="258" y="235" type="curve" smooth="yes"/>
      <point x="167" y="546" type="line"/>
      <point x="0" y="546" type="line"/>
    </contour>
  </outline>
</glyph>
<glyph name="w" format="2">
  <advance width="829"/>
  <unicode hex="0077"/>
  <anchor x="414" y="0" name="bottom"/>
  <anchor x="415" y="546" name="top"/>
  <anchor x="811" y="546" name="topright"/>
  <outline>
    <contour>
      <point x="440" y="288" type="curve" smooth="yes"/>
      <point x="498" y="0" type="line"/>
      <point x="684" y="0" type="line"/>
      <point x="819" y="546" type="line"/>
      <point x="667" y="546" type="line"/>
      <point x="609" y="267" type="line" smooth="yes"/>
      <point x="598" y="216"/>
      <point x="590" y="162"/>
      <point x="586" y="125" type="curve"/>
      <point x="583" y="125" type="line"/>
      <point x="580" y="162"/>
      <point x="570" y="235"/>
      <point x="564" y="263" type="curve" smooth="yes"/>
      <point x="503" y="546" type="line"/>
      <point x="329" y="546" type="line"/>
      <point x="266" y="262" type="line" smooth="yes"/>
      <point x="261" y="240"/>
      <point x="247" y="163"/>
      <point x="243" y="125" type="curve"/>
      <point x="239" y="125" type="line"/>
      <point x="236" y="163"/>
      <point x="227" y="217"/>
      <point x="218" y="267" type="curve" smooth="yes"/>
      <point x="166" y="546" type="line"/>
      <point x="10" y="546" type="line"/>
      <point x="141" y="0" type="line"/>
      <point x="328" y="0" type="line"/>
      <point x="391" y="284" type="line" smooth="yes"/>
      <point x="401" y="331"/>
      <point x="410" y="382"/>
      <point x="414" y="422" type="curve"/>
      <point x="417" y="422" type="line"/>
      <point x="421" y="382"/>
      <point x="431" y="333"/>
    </contour>
  </outline>
</glyph>
<glyph name="w.serif" format="2">
  <advance width="856"/>
  <unicode hex="0077"/>
  <anchor x="428" y="0" name="bottom"/>
  <anchor x="428" y="536" name="top"/>
  <anchor x="856" y="536" name="topright"/>
  <outline>
    <contour>
      <point x="58" y="473" type="curve" smooth="yes"/>
      <point x="199" y="0" type="line"/>
      <point x="307" y="0" type="line"/>
      <point x="418" y="396" type="line"/>
      <point x="547" y="0" type="line"/>
      <point x="641" y="0" type="line"/>
      <point x="767" y="447" type="line" smooth="yes"/>
      <point x="785" y="512"/>
      <point x="804" y="526"/>
      <point x="840" y="526" type="curve" smooth="yes"/>
      <point x="857" y="526" type="line"/>
      <point x="857" y="536" type="line"/>
      <point x="660" y="536" type="line"/>
      <point x="660" y="526" type="line"/>
      <point x="694" y="526" type="line" smooth="yes"/>
      <point x="738" y="526"/>
      <point x="760" y="511"/>
      <point x="760" y="477" type="curve" smooth="yes"/>
      <point x="760" y="466"/>
      <point x="756" y="444"/>
      <point x="751" y="427" type="curve" smooth="yes"/>
      <point x="698" y="239" type="line" smooth="yes"/>
      <point x="684" y="189"/>
      <point x="664" y="119"/>
      <point x="656" y="86" type="curve"/>
      <point x="653" y="86" type="line"/>
      <point x="640" y="134"/>
      <point x="623" y="189"/>
      <point x="607" y="236" type="curve" smooth="yes"/>
      <point x="509" y="531" type="line"/>
      <point x="445" y="531" type="line"/>
      <point x="334" y="134" type="line" smooth="yes"/>
      <point x="328" y="114"/>
      <point x="324" y="99"/>
      <point x="318" y="76" type="curve"/>
      <point x="316" y="76" type="line"/>
      <point x="304" y="122"/>
      <point x="277" y="216"/>
      <point x="262" y="268" type="curve" smooth="yes"/>
      <point x="212" y="441" type="line" smooth="yes"/>
      <point x="208" y="456"/>
      <point x="204" y="473"/>
      <point x="204" y="484" type="curve" smooth="yes"/>
      <point x="204" y="517"/>
      <point x="224" y="526"/>
      <point x="264" y="526" type="curve" smooth="yes"/>
      <point x="290" y="526" type="line"/>
      <point x="290" y="536" type="line"/>
      <point x="-3" y="536" type="line"/>
      <point x="-3" y="526" type="line"/>
      <point x="0" y="526" type="line" smooth="yes"/>
      <point x="26" y="526"/>
      <point x="45" y="516"/>
    </contour>
  </outline>
</glyph>
<glyph name="x" format="2">
  <advance width="568"/>
  <unicode hex="0078"/>
  <anchor x="284" y="0" name="bottom"/>
  <anchor x="283" y="546" name="top"/>
  <anchor x="549" y="546" name="topright"/>
  <outline>
    <contour>
      <point x="176" y="279" type="line"/>
      <point x="5" y="0" type="line"/>
      <point x="186" y="0" type="line"/>
      <point x="284" y="187" type="line"/>
      <point x="382" y="0" type="line"/>
      <point x="563" y="0" type="line"/>
      <point x="391" y="279" type="line"/>
      <point x="556" y="546" type="line"/>
      <point x="375" y="546" type="line"/>
      <point x="284" y="372" type="line"/>
      <point x="195" y="546" type="line"/>
      <point x="13" y="546" type="line"/>
    </contour>
  </outline>
</glyph>
<glyph name="x.serif" format="2">
  <advance width="646"/>
  <unicode hex="0078"/>
  <anchor x="323" y="0" name="bottom"/>
  <anchor x="323" y="536" name="top"/>
  <anchor x="626" y="536" name="topright"/>
  <outline>
    <contour>
      <point x="11" y="0" type="line"/>
      <point x="222" y="0" type="line"/>
      <point x="222" y="10" type="line"/>
      <point x="188" y="10" type="line" smooth="yes"/>
      <point x="157" y="10"/>
      <point x="137" y="16"/>
      <point x="137" y="40" type="curve" smooth="yes"/>
      <point x="137" y="58"/>
      <point x="147" y="77"/>
      <point x="162" y="96" type="curve" smooth="yes"/>
      <point x="278" y="241" type="line"/>
      <point x="373" y="112" type="line" smooth="yes"/>
      <point x="403" y="71"/>
      <point x="407" y="58"/>
      <point x="407" y="43" type="curve" smooth="yes"/>
      <point x="407" y="21"/>
      <point x="385" y="10"/>
      <point x="345" y="10" type="curve" smooth="yes"/>
      <point x="321" y="10" type="line"/>
      <point x="321" y="0" type="line"/>
      <point x="646" y="0" type="line"/>
      <point x="646" y="10" type="line"/>
      <point x="643" y="10" type="line" smooth="yes"/>
      <point x="620" y="10"/>
      <point x="596" y="25"/>
      <point x="568" y="63" type="curve" smooth="yes"/>
      <point x="385" y="312" type="line"/>
      <point x="508" y="462" type="line" smooth="yes"/>
      <point x="551" y="514"/>
      <point x="570" y="526"/>
      <point x="609" y="526" type="curve" smooth="yes"/>
      <point x="618" y="526" type="line"/>
      <point x="618" y="536" type="line"/>
      <point x="412" y="536" type="line"/>
      <point x="412" y="526" type="line"/>
      <point x="451" y="526" type="line" smooth="yes"/>
      <point x="482" y="526"/>
      <point x="502" y="520"/>
      <point x="502" y="496" type="curve" smooth="yes"/>
      <point x="502" y="478"/>
      <point x="492" y="459"/>
      <point x="477" y="440" type="curve" smooth="yes"/>
      <point x="378" y="321" type="line"/>
      <point x="283" y="451" type="line" smooth="yes"/>
      <point x="268" y="471"/>
      <point x="263" y="483"/>
      <point x="263" y="497" type="curve" smooth="yes"/>
      <point x="263" y="513"/>
      <point x="275" y="526"/>
      <point x="321" y="526" type="curve" smooth="yes"/>
      <point x="344" y="526" type="line"/>
      <point x="344" y="536" type="line"/>
      <point x="21" y="536" type="line"/>
      <point x="21" y="526" type="line"/>
      <point x="23" y="526" type="line" smooth="yes"/>
      <point x="53" y="526"/>
      <point x="80" y="508"/>
      <point x="106" y="473" type="curve" smooth="yes"/>
      <point x="271" y="250" type="line"/>
      <point x="143" y="89" type="line" smooth="yes"/>
      <point x="89" y="21"/>
      <point x="69" y="10"/>
      <point x="25" y="10" type="curve" smooth="yes"/>
      <point x="11" y="10" type="line"/>
    </contour>
  </outline>
</glyph>
<glyph name="y" format="2">
  <advance width="554"/>
  <unicode hex="0079"/>
  <anchor x="122" y="-240" name="bottom"/>
  <anchor x="278" y="546" name="top"/>
  <anchor x="536" y="546" name="topright"/>
  <outline>
    <contour>
      <point x="0" y="546" type="line"/>
      <point x="204" y="4" type="line"/>
      <point x="197" y="-23" type="line" smooth="yes"/>
      <point x="184" y="-77"/>
      <point x="154" y="-120"/>
      <point x="95" y="-120" type="curve" smooth="yes"/>
      <point x="74" y="-120"/>
      <point x="53" y="-117"/>
      <point x="40" y="-114" type="curve"/>
      <point x="40" y="-232" type="line"/>
      <point x="57" y="-236"/>
      <point x="80" y="-240"/>
      <point x="112" y="-240" type="curve" smooth="yes"/>
      <point x="229" y="-240"/>
      <point x="301" y="-183"/>
      <point x="341" y="-69" type="curve" smooth="yes"/>
      <point x="555" y="546" type="line"/>
      <point x="387" y="546" type="line"/>
      <point x="296" y="239" type="line" smooth="yes"/>
      <point x="287" y="209"/>
      <point x="283" y="179"/>
      <point x="280" y="144" type="curve"/>
      <point x="276" y="144" type="line"/>
      <point x="274" y="179"/>
      <point x="271" y="210"/>
      <point x="262" y="239" type="curve" smooth="yes"/>
      <point x="171" y="546" type="line"/>
    </contour>
  </outline>
</glyph>
<glyph name="y.serif" format="2">
  <advance width="579"/>
  <unicode hex="0079"/>
  <anchor x="150" y="-240" name="bottom"/>
  <anchor x="290" y="536" name="top"/>
  <anchor x="579" y="536" name="topright"/>
  <outline>
    <contour>
      <point x="31" y="-230" type="curve"/>
      <point x="31" y="-240" type="line"/>
      <point x="34" y="-240" type="line" smooth="yes"/>
      <point x="211" y="-240"/>
      <point x="252" y="-196"/>
      <point x="322" y="-4" type="curve" smooth="yes"/>
      <point x="488" y="448" type="line" smooth="yes"/>
      <point x="510" y="507"/>
      <point x="532" y="526"/>
      <point x="577" y="526" type="curve" smooth="yes"/>
      <point x="579" y="526" type="line"/>
      <point x="579" y="536" type="line"/>
      <point x="377" y="536" type="line"/>
      <point x="377" y="526" type="line"/>
      <point x="419" y="526" type="line" smooth="yes"/>
      <point x="465" y="526"/>
      <point x="485" y="516"/>
      <point x="485" y="487" type="curve" smooth="yes"/>
      <point x="485" y="474"/>
      <point x="481" y="457"/>
      <point x="473" y="436" type="curve" smooth="yes"/>
      <point x="388" y="206" type="line" smooth="yes"/>
      <point x="381" y="186"/>
      <point x="371" y="161"/>
      <point x="361" y="133" type="curve"/>
      <point x="351" y="157"/>
      <point x="344" y="173"/>
      <point x="321" y="225" type="curve" smooth="yes"/>
      <point x="223" y="450" type="line" smooth="yes"/>
      <point x="215" y="469"/>
      <point x="211" y="483"/>
      <point x="211" y="495" type="curve" smooth="yes"/>
      <point x="211" y="518"/>
      <point x="229" y="526"/>
      <point x="268" y="526" type="curve" smooth="yes"/>
      <point x="288" y="526" type="line"/>
      <point x="287" y="536" type="line"/>
      <point x="0" y="536" type="line"/>
      <point x="0" y="526" type="line"/>
      <point x="6" y="526" type="line" smooth="yes"/>
      <point x="27" y="526"/>
      <point x="39" y="514"/>
      <point x="56" y="478" type="curve" smooth="yes"/>
      <point x="299" y="-37" type="line"/>
      <point x="244" y="-171"/>
      <point x="213" y="-230"/>
    </contour>
  </outline>
</glyph>
<glyph name="z" format="2">
  <advance width="468"/>
  <unicode hex="007A"/>
  <anchor x="236" y="0" name="bottom"/>
  <anchor x="234" y="546" name="top"/>
  <anchor x="439" y="546" name="topright"/>
  <outline>
    <contour>
      <point x="442" y="0" type="line"/>
      <point x="442" y="114" type="line"/>
      <point x="214" y="114" type="line"/>
      <point x="432" y="449" type="line"/>
      <point x="432" y="546" type="line"/>
      <point x="37" y="546" type="line"/>
      <point x="37" y="432" type="line"/>
      <point x="251" y="432" type="line"/>
      <point x="24" y="88" type="line"/>
      <point x="24" y="0" type="line"/>
    </contour>
  </outline>
</glyph>
<glyph name="z.serif" format="2">
  <advance width="529"/>
  <unicode hex="007A"/>
  <anchor x="265" y="0" name="bottom"/>
  <anchor x="265" y="536" name="top"/>
  <anchor x="509" y="536" name="topright"/>
  <outline>
    <contour>
      <point x="18" y="0" type="line"/>
      <point x="493" y="0" type="line"/>
      <point x="499" y="181" type="line"/>
      <point x="489" y="181" type="line"/>
      <point x="486" y="141" type="line" smooth="yes"/>
      <point x="479" y="47"/>
      <point x="439" y="10"/>
      <point x="336" y="10" type="curve" smooth="yes"/>
      <point x="168" y="10" type="line"/>
      <point x="488" y="526" type="line"/>
      <point x="488" y="536" type="line"/>
      <point x="56" y="536" type="line"/>
      <point x="44" y="374" type="line"/>
      <point x="54" y="374" type="line"/>
      <point x="57" y="396" type="line" smooth="yes"/>
      <point x="70" y="490"/>
      <point x="112" y="526"/>
      <point x="206" y="526" type="curve" smooth="yes"/>
      <point x="338" y="526" type="line"/>
      <point x="18" y="10" type="line"/>
    </contour>
  </outline>
</glyph>
<glyph name="braceleft" format="2">
  <advance width="389"/>
  <unicode hex="007B"/>
  <outline>
    <contour>
      <point x="355" y="-158" type="curve"/>
      <point x="355" y="-48" type="line"/>
      <point x="312" y="-47"/>
      <point x="271" y="-35"/>
      <point x="271" y="21" type="curve" smooth="yes"/>
      <point x="271" y="167" type="line" smooth="yes"/>
      <point x="271" y="228"/>
      <point x="233" y="264"/>
      <point x="162" y="275" type="curve"/>
      <point x="162" y="281" type="line"/>
      <point x="232" y="292"/>
      <point x="271" y="328"/>
      <point x="271" y="389" type="curve" smooth="yes"/>
      <point x="271" y="535" type="line" smooth="yes"/>
      <point x="271" y="591"/>
      <point x="311" y="603"/>
      <point x="355" y="604" type="curve"/>
      <point x="355" y="714" type="line"/>
      <point x="177" y="714"/>
      <point x="136" y="674"/>
      <point x="136" y="578" type="curve" smooth="yes"/>
      <point x="136" y="423" type="line" smooth="yes"/>
      <point x="136" y="360"/>
      <point x="88" y="336"/>
      <point x="21" y="336" type="curve"/>
      <point x="21" y="219" type="line"/>
      <point x="87" y="219"/>
      <point x="136" y="195"/>
      <point x="136" y="132" type="curve" smooth="yes"/>
      <point x="136" y="-22" type="line"/>
      <point x="136" y="-118"/>
      <point x="178" y="-158"/>
    </contour>
  </outline>
</glyph>
<glyph name="braceleft.serif" format="2">
  <advance width="442"/>
  <unicode hex="007B"/>
  <outline>
    <contour>
      <point x="317" y="-125" type="curve" smooth="yes"/>
      <point x="412" y="-125" type="line"/>
      <point x="412" y="-115" type="line"/>
      <point x="373" y="-115" type="line" smooth="yes"/>
      <point x="316" y="-115"/>
      <point x="302" y="-80"/>
      <point x="302" y="-17" type="curve" smooth="yes"/>
      <point x="302" y="203" type="line" smooth="yes"/>
      <point x="302" y="263"/>
      <point x="268" y="305"/>
      <point x="182" y="318" type="curve"/>
      <point x="182" y="320" type="line"/>
      <point x="269" y="332"/>
      <point x="302" y="374"/>
      <point x="302" y="434" type="curve" smooth="yes"/>
      <point x="302" y="653" type="line" smooth="yes"/>
      <point x="302" y="716"/>
      <point x="316" y="750"/>
      <point x="373" y="750" type="curve" smooth="yes"/>
      <point x="412" y="750" type="line"/>
      <point x="412" y="760" type="line"/>
      <point x="317" y="760" type="line" smooth="yes"/>
      <point x="205" y="760"/>
      <point x="146" y="707"/>
      <point x="146" y="614" type="curve" smooth="yes"/>
      <point x="146" y="416" type="line" smooth="yes"/>
      <point x="146" y="341"/>
      <point x="95" y="325"/>
      <point x="30" y="323" type="curve"/>
      <point x="30" y="313" type="line"/>
      <point x="95" y="310"/>
      <point x="146" y="295"/>
      <point x="146" y="219" type="curve" smooth="yes"/>
      <point x="146" y="23" type="line" smooth="yes"/>
      <point x="146" y="-68"/>
      <point x="205" y="-125"/>
    </contour>
  </outline>
</glyph>
<glyph name="bar" format="2">
  <advance width="498"/>
  <unicode hex="007C"/>
  <outline>
    <contour>
      <point x="193" y="757" type="line"/>
      <point x="193" y="-227" type="line"/>
      <point x="305" y="-227" type="line"/>
      <point x="305" y="757" type="line"/>
    </contour>
  </outline>
</glyph>
<glyph name="braceright" format="2">
  <advance width="389"/>
  <unicode hex="007D"/>
  <outline>
    <contour>
      <point x="34" y="-48" type="curve"/>
      <point x="34" y="-158" type="line"/>
      <point x="211" y="-158"/>
      <point x="252" y="-118"/>
      <point x="252" y="-22" type="curve" smooth="yes"/>
      <point x="252" y="132" type="line"/>
      <point x="252" y="195"/>
      <point x="301" y="219"/>
      <point x="368" y="219" type="curve"/>
      <point x="368" y="336" type="line"/>
      <point x="300" y="336"/>
      <point x="252" y="360"/>
      <point x="252" y="423" type="curve" smooth="yes"/>
      <point x="252" y="578" type="line" smooth="yes"/>
      <point x="252" y="674"/>
      <point x="212" y="714"/>
      <point x="34" y="714" type="curve"/>
      <point x="34" y="604" type="line"/>
      <point x="77" y="603"/>
      <point x="118" y="591"/>
      <point x="118" y="535" type="curve" smooth="yes"/>
      <point x="118" y="389" type="line" smooth="yes"/>
      <point x="118" y="328"/>
      <point x="157" y="292"/>
      <point x="226" y="281" type="curve"/>
      <point x="226" y="275" type="line"/>
      <point x="156" y="264"/>
      <point x="118" y="228"/>
      <point x="118" y="167" type="curve" smooth="yes"/>
      <point x="118" y="21" type="line" smooth="yes"/>
      <point x="118" y="-35"/>
      <point x="77" y="-47"/>
    </contour>
  </outline>
</glyph>
<glyph name="braceright.serif" format="2">
  <advance width="442"/>
  <unicode hex="007D"/>
  <outline>
    <contour>
      <point x="30" y="-125" type="line"/>
      <point x="125" y="-125" type="line" smooth="yes"/>
      <point x="237" y="-125"/>
      <point x="296" y="-68"/>
      <point x="296" y="23" type="curve" smooth="yes"/>
      <point x="296" y="219" type="line" smooth="yes"/>
      <point x="296" y="295"/>
      <point x="347" y="310"/>
      <point x="412" y="313" type="curve"/>
      <point x="412" y="323" type="line"/>
      <point x="347" y="325"/>
      <point x="296" y="341"/>
      <point x="296" y="416" type="curve" smooth="yes"/>
      <point x="296" y="614" type="line" smooth="yes"/>
      <point x="296" y="707"/>
      <point x="237" y="760"/>
      <point x="125" y="760" type="curve" smooth="yes"/>
      <point x="30" y="760" type="line"/>
      <point x="30" y="750" type="line"/>
      <point x="69" y="750" type="line" smooth="yes"/>
      <point x="126" y="750"/>
      <point x="140" y="716"/>
      <point x="140" y="653" type="curve" smooth="yes"/>
      <point x="140" y="434" type="line" smooth="yes"/>
      <point x="140" y="374"/>
      <point x="173" y="332"/>
      <point x="260" y="320" type="curve"/>
      <point x="260" y="318" type="line"/>
      <point x="174" y="305"/>
      <point x="140" y="263"/>
      <point x="140" y="203" type="curve" smooth="yes"/>
      <point x="140" y="-17" type="line" smooth="yes"/>
      <point x="140" y="-80"/>
      <point x="126" y="-115"/>
      <point x="69" y="-115" type="curve" smooth="yes"/>
      <point x="30" y="-115" type="line"/>
    </contour>
  </outline>
</glyph>
<glyph name="asciitilde" format="2">
  <advance width="536"/>
  <unicode hex="007E"/>
  <outline>
    <contour>
      <point x="250" y="301" type="curve" smooth="yes"/>
      <point x="310" y="274"/>
      <point x="342" y="270"/>
      <point x="378" y="270" type="curve" smooth="yes"/>
      <point x="427" y="270"/>
      <point x="466" y="288"/>
      <point x="498" y="323" type="curve"/>
      <point x="498" y="436" type="line"/>
      <point x="466" y="403"/>
      <point x="426" y="377"/>
      <point x="391" y="377" type="curve" smooth="yes"/>
      <point x="363" y="377"/>
      <point x="330" y="383"/>
      <point x="284" y="404" type="curve" smooth="yes"/>
      <point x="225" y="431"/>
      <point x="193" y="435"/>
      <point x="156" y="435" type="curve" smooth="yes"/>
      <point x="107" y="435"/>
      <point x="68" y="417"/>
      <point x="37" y="382" type="curve"/>
      <point x="37" y="269" type="line"/>
      <point x="68" y="302"/>
      <point x="108" y="328"/>
      <point x="144" y="328" type="curve" smooth="yes"/>
      <point x="173" y="328"/>
      <point x="204" y="322"/>
    </contour>
  </outline>
</glyph>
<glyph name="asciitilde.serif" format="2">
  <advance width="559"/>
  <unicode hex="007E"/>
  <outline>
    <contour>
      <point x="64" y="277" type="curve"/>
      <point x="84" y="277" type="line"/>
      <point x="100" y="359"/>
      <point x="115" y="416"/>
      <point x="171" y="416" type="curve" smooth="yes"/>
      <point x="210" y="416"/>
      <point x="238" y="390"/>
      <point x="268" y="357" type="curve" smooth="yes"/>
      <point x="303" y="319"/>
      <point x="337" y="277"/>
      <point x="387" y="277" type="curve" smooth="yes"/>
      <point x="468" y="277"/>
      <point x="485" y="387"/>
      <point x="494" y="436" type="curve"/>
      <point x="475" y="436" type="line"/>
      <point x="461" y="378"/>
      <point x="448" y="297"/>
      <point x="389" y="297" type="curve" smooth="yes"/>
      <point x="349" y="297"/>
      <point x="318" y="334"/>
      <point x="284" y="369" type="curve" smooth="yes"/>
      <point x="251" y="403"/>
      <point x="217" y="436"/>
      <point x="170" y="436" type="curve" smooth="yes"/>
      <point x="89" y="436"/>
      <point x="76" y="337"/>
    </contour>
  </outline>
</glyph>
<glyph name="exclamdown" format="2">
  <advance width="272"/>
  <unicode hex="00A1"/>
  <outline>
    <contour>
      <point x="70" y="296" type="line"/>
      <point x="46" y="-180" type="line"/>
      <point x="225" y="-180" type="line"/>
      <point x="201" y="296" type="line"/>
    </contour>
    <contour>
      <point x="225" y="463" type="curve" smooth="yes"/>
      <point x="225" y="522"/>
      <point x="185" y="546"/>
      <point x="136" y="546" type="curve" smooth="yes"/>
      <point x="88" y="546"/>
      <point x="48" y="522"/>
      <point x="48" y="463" type="curve" smooth="yes"/>
      <point x="48" y="402"/>
      <point x="88" y="380"/>
      <point x="136" y="380" type="curve" smooth="yes"/>
      <point x="185" y="380"/>
      <point x="225" y="402"/>
    </contour>
  </outline>
</glyph>
